SplineFontDB: 3.2
FontName: ATM121-Regular
FullName: ATM121-Regular
FamilyName: ATM 121
Weight: Book
Copyright: AzhaguThamizh
Version: 1.001
ItalicAngle: -11
UnderlinePosition: -271
UnderlineWidth: 102
Ascent: 1600
Descent: 400
InvalidEm: 0
sfntRevision: 0x00010042
LayerCount: 2
Layer: 0 1 "Back" 1
Layer: 1 1 "Fore" 0
XUID: [1021 192 2086997156 18292]
StyleMap: 0x0040
FSType: 8
OS2Version: 3
OS2_WeightWidthSlopeOnly: 0
OS2_UseTypoMetrics: 0
CreationTime: 1536403239
ModificationTime: 1538230066
PfmFamily: 17
TTFWeight: 400
TTFWidth: 5
LineGap: 0
VLineGap: 0
Panose: 2 11 6 4 2 2 2 2 2 4
OS2TypoAscent: 2000
OS2TypoAOffset: 0
OS2TypoDescent: -1320
OS2TypoDOffset: 0
OS2TypoLinegap: 0
OS2WinAscent: 2000
OS2WinAOffset: 0
OS2WinDescent: 744
OS2WinDOffset: 0
HheadAscent: 2000
HheadAOffset: 0
HheadDescent: -1320
HheadDOffset: 0
OS2SubXSize: 1400
OS2SubYSize: 1300
OS2SubXOff: 0
OS2SubYOff: 0
OS2SupXSize: 1400
OS2SupYSize: 1300
OS2SupXOff: 0
OS2SupYOff: 0
OS2StrikeYSize: 100
OS2StrikeYPos: 518
OS2CapHeight: 1586
OS2XHeight: -200
OS2Vendor: '    '
OS2CodePages: 00000001.00000000
OS2UnicodeRanges: 00100003.00000000.00000000.00000000
Lookup: 4 0 0 "'akhn' Akhand in Tamil2 lookup 0" { "'akhn' Akhand in Tamil2 lookup 0 subtable"  } ['akhn' ('tml2' <'dflt' > ) ]
Lookup: 4 0 0 "'akhn' Akhand in Tamil lookup 1" { "'akhn' Akhand in Tamil lookup 1 subtable"  } ['akhn' ('taml' <'dflt' > ) ]
Lookup: 4 0 0 "'half' Half Forms in Tamil lookup 2" { "'half' Half Forms in Tamil lookup 2 subtable"  } ['half' ('taml' <'dflt' > ) ]
Lookup: 4 0 0 "'haln' Halant Forms in Tamil2 lookup 3" { "'haln' Halant Forms in Tamil2 lookup 3 subtable"  } ['haln' ('tml2' <'dflt' > ) ]
Lookup: 4 0 0 "'haln' Halant Forms in Tamil lookup 4" { "'haln' Halant Forms in Tamil lookup 4 subtable"  } ['haln' ('taml' <'dflt' > ) ]
Lookup: 4 0 0 "'abvs' Above Base Substitutions lookup 5" { "'abvs' Above Base Substitutions lookup 5 subtable"  } ['abvs' ('taml' <'dflt' > 'tml2' <'dflt' > ) ]

StartChar: .notdef
Encoding: 65536 -1 0
Width: 1000
Flags: W
LayerCount: 2
Fore
SplineSet
126 0 m 1,0,-1
 126 1600 l 1,1,-1
 876 1600 l 1,2,-1
 876 0 l 1,3,-1
 126 0 l 1,0,-1
250 126 m 1,4,-1
 750 126 l 1,5,-1
 750 1476 l 1,6,-1
 250 1476 l 1,7,-1
 250 126 l 1,4,-1
EndSplineSet
EndChar

StartChar: exclam
Encoding: 33 33 4
Width: 616
GlyphClass: 2
Flags: W
LayerCount: 2
Fore
SplineSet
478 1076 m 0,0,1
 478 1052 478 1052 448 894 c 2,2,-1
 354 402 l 2,3,4
 346 364 346 364 340 344 c 0,5,6
 328 310 328 310 308 296 c 1,7,8
 280 310 280 310 262 402 c 2,9,-1
 168 894 l 2,10,11
 138 1052 138 1052 138 1074 c 0,12,13
 138 1134 138 1134 196 1170 c 0,14,15
 246 1200 246 1200 308 1200 c 0,16,17
 372 1200 372 1200 425 1163 c 128,-1,18
 478 1126 478 1126 478 1076 c 0,0,1
440 138 m 0,19,20
 440 82 440 82 402 41 c 128,-1,21
 364 0 364 0 308 0 c 256,22,23
 252 0 252 0 218 40 c 1,24,25
 176 78 176 78 176 136 c 0,26,27
 176 192 176 192 214 233 c 128,-1,28
 252 274 252 274 308 274 c 0,29,30
 358 274 358 274 399 235 c 128,-1,31
 440 196 440 196 440 138 c 0,19,20
EndSplineSet
EndChar

StartChar: quotedbl
Encoding: 34 34 5
Width: 710
GlyphClass: 2
Flags: W
LayerCount: 2
Fore
SplineSet
616 1200 m 1,0,-1
 570 924 l 1,1,-1
 456 924 l 1,2,-1
 406 1198 l 1,3,-1
 406 1432 l 1,4,-1
 616 1432 l 1,5,-1
 616 1200 l 1,0,-1
302 1200 m 1,6,-1
 256 924 l 1,7,-1
 140 924 l 1,8,-1
 92 1198 l 1,9,-1
 92 1432 l 1,10,-1
 302 1432 l 1,11,-1
 302 1200 l 1,6,-1
EndSplineSet
EndChar

StartChar: numbersign
Encoding: 35 35 6
Width: 718
GlyphClass: 2
Flags: W
LayerCount: 2
Fore
SplineSet
716 656 m 1,0,-1
 696 586 l 1,1,-1
 550 586 l 1,2,-1
 490 366 l 1,3,-1
 640 366 l 1,4,-1
 622 296 l 1,5,-1
 474 296 l 1,6,-1
 396 0 l 1,7,-1
 296 0 l 1,8,-1
 378 296 l 1,9,-1
 244 296 l 1,10,-1
 166 0 l 1,11,-1
 66 0 l 1,12,-1
 146 296 l 1,13,-1
 0 296 l 1,14,-1
 16 366 l 1,15,-1
 164 366 l 1,16,-1
 224 586 l 1,17,-1
 76 586 l 1,18,-1
 90 656 l 1,19,-1
 242 656 l 1,20,-1
 324 952 l 1,21,-1
 420 952 l 1,22,-1
 338 656 l 1,23,-1
 470 656 l 1,24,-1
 548 952 l 1,25,-1
 646 952 l 1,26,-1
 568 656 l 1,27,-1
 716 656 l 1,0,-1
456 586 m 1,28,-1
 322 586 l 1,29,-1
 264 366 l 1,30,-1
 394 366 l 1,31,-1
 456 586 l 1,28,-1
EndSplineSet
EndChar

StartChar: dollar
Encoding: 36 36 7
Width: 878
GlyphClass: 2
Flags: W
LayerCount: 2
Fore
SplineSet
802 312 m 0,0,1
 802 258 802 258 788 210 c 1,2,3
 758 136 758 136 694 84 c 0,4,5
 620 22 620 22 472 0 c 1,6,-1
 472 -156 l 1,7,-1
 396 -156 l 1,8,-1
 396 -2 l 1,9,10
 296 -2 296 -2 220 22 c 1,11,-1
 160 48 l 2,12,13
 130 62 130 62 80 90 c 1,14,-1
 76 330 l 1,15,-1
 118 330 l 1,16,17
 170 64 170 64 396 64 c 1,18,-1
 396 540 l 1,19,20
 302 598 302 598 284 610 c 0,21,22
 220 654 220 654 180 692 c 0,23,24
 88 780 88 780 88 900 c 0,25,26
 88 1000 88 1000 174 1082 c 0,27,28
 254 1158 254 1158 396 1170 c 1,29,-1
 396 1280 l 1,30,-1
 470 1280 l 1,31,-1
 470 1168 l 1,32,33
 532 1168 532 1168 618 1144 c 0,34,35
 696 1122 696 1122 746 1072 c 1,36,-1
 746 866 l 1,37,-1
 708 866 l 1,38,39
 684 988 684 988 618 1046 c 0,40,41
 562 1094 562 1094 472 1106 c 1,42,-1
 472 692 l 1,43,44
 642 602 642 602 700 550 c 0,45,46
 802 454 802 454 802 312 c 0,0,1
396 728 m 1,47,-1
 396 1106 l 1,48,49
 314 1084 314 1084 282 1048 c 1,50,51
 234 1006 234 1006 234 932 c 0,52,53
 234 836 234 836 396 728 c 1,47,-1
652 272 m 0,54,55
 652 342 652 342 596 408 c 0,56,57
 572 436 572 436 472 494 c 1,58,-1
 472 64 l 1,59,60
 652 116 652 116 652 272 c 0,54,55
EndSplineSet
EndChar

StartChar: percent
Encoding: 37 37 8
Width: 1488
GlyphClass: 2
Flags: W
LayerCount: 2
Fore
SplineSet
740 936 m 0,0,1
 740 820 740 820 651 745 c 128,-1,2
 562 670 562 670 444 670 c 0,3,4
 316 670 316 670 228 748 c 128,-1,5
 140 826 140 826 140 936 c 0,6,7
 140 1044 140 1044 230 1122 c 128,-1,8
 320 1200 320 1200 444 1200 c 256,9,10
 568 1200 568 1200 648 1126 c 0,11,12
 740 1038 740 1038 740 936 c 0,0,1
1104 1142 m 1,13,14
 1038 1142 1038 1142 1024 1112 c 2,15,-1
 572 104 l 2,16,17
 566 90 566 90 576 68 c 1,18,19
 590 58 590 58 612 58 c 1,20,-1
 612 0 l 1,21,-1
 396 0 l 1,22,-1
 396 60 l 1,23,24
 442 64 442 64 476 122 c 1,25,-1
 910 1058 l 2,26,27
 916 1070 916 1070 928 1096 c 2,28,-1
 944 1122 l 1,29,30
 922 1142 922 1142 888 1142 c 1,31,-1
 888 1200 l 1,32,-1
 1104 1200 l 1,33,-1
 1104 1142 l 1,13,14
1350 264 m 0,34,35
 1350 146 1350 146 1263 73 c 128,-1,36
 1176 0 1176 0 1056 0 c 0,37,38
 926 0 926 0 842 76 c 0,39,40
 750 160 750 160 750 264 c 0,41,42
 750 380 750 380 846 458 c 0,43,44
 936 530 936 530 1056 530 c 0,45,46
 1174 530 1174 530 1260 458 c 0,47,48
 1350 380 1350 380 1350 264 c 0,34,35
592 936 m 0,49,50
 592 1014 592 1014 551 1069 c 128,-1,51
 510 1124 510 1124 442 1124 c 0,52,53
 376 1124 376 1124 331 1069 c 128,-1,54
 286 1014 286 1014 286 934 c 0,55,56
 286 860 286 860 330 802 c 1,57,58
 382 746 382 746 446 746 c 0,59,60
 514 746 514 746 556 810 c 0,61,62
 592 866 592 866 592 936 c 0,49,50
1204 264 m 0,63,64
 1204 336 1204 336 1166 392 c 0,65,66
 1122 454 1122 454 1054 454 c 0,67,68
 982 454 982 454 938 392 c 0,69,70
 898 338 898 338 898 262 c 0,71,72
 898 192 898 192 940 132 c 1,73,74
 992 76 992 76 1058 76 c 256,75,76
 1124 76 1124 76 1166 140 c 0,77,78
 1204 196 1204 196 1204 264 c 0,63,64
EndSplineSet
EndChar

StartChar: ampersand
Encoding: 38 38 9
Width: 1404
GlyphClass: 2
Flags: W
LayerCount: 2
Fore
SplineSet
1314 180 m 1,0,1
 1212 -26 1212 -26 1040 -26 c 0,2,3
 912 -26 912 -26 752 130 c 1,4,5
 570 -26 570 -26 372 -26 c 0,6,7
 234 -26 234 -26 154 46 c 0,8,9
 68 120 68 120 68 256 c 0,10,11
 68 450 68 450 284 594 c 0,12,13
 338 630 338 630 406 666 c 1,14,-1
 372 756 l 2,15,16
 348 820 348 820 348 902 c 0,17,18
 348 1028 348 1028 424 1108 c 128,-1,19
 500 1188 500 1188 622 1188 c 0,20,21
 724 1188 724 1188 794 1130 c 128,-1,22
 864 1072 864 1072 864 972 c 0,23,24
 864 860 864 860 762 770 c 1,25,-1
 600 668 l 1,26,-1
 700 486 l 2,27,28
 722 446 722 446 818 332 c 1,29,30
 906 452 906 452 928 510 c 1,31,32
 964 580 964 580 964 638 c 0,33,34
 964 700 964 700 854 700 c 1,35,-1
 854 754 l 1,36,-1
 1244 754 l 1,37,-1
 1244 702 l 1,38,39
 1122 688 1122 688 1078 604 c 2,40,-1
 1036 524 l 2,41,42
 962 382 962 382 866 268 c 1,43,44
 1008 118 1008 118 1128 118 c 0,45,46
 1172 118 1172 118 1214 148 c 1,47,-1
 1276 212 l 1,48,-1
 1314 180 l 1,0,1
754 978 m 0,49,50
 754 1034 754 1034 718 1074 c 128,-1,51
 682 1114 682 1114 626 1114 c 0,52,53
 502 1114 502 1114 502 972 c 0,54,55
 502 912 502 912 524 836 c 0,56,57
 530 822 530 822 532 812 c 0,58,59
 542 782 542 782 566 742 c 1,60,61
 660 796 660 796 690 832 c 1,62,63
 754 896 754 896 754 978 c 0,49,50
694 184 m 1,64,-1
 626 278 l 2,65,66
 608 304 608 304 572 358 c 1,67,-1
 442 590 l 1,68,69
 248 472 248 472 248 314 c 0,70,71
 248 216 248 216 308 150 c 128,-1,72
 368 84 368 84 464 84 c 0,73,74
 544 84 544 84 610 128 c 2,75,-1
 694 184 l 1,64,-1
EndSplineSet
EndChar

StartChar: quotesingle
Encoding: 39 39 10
Width: 382
GlyphClass: 2
Flags: W
LayerCount: 2
Fore
SplineSet
288 1192 m 1,0,-1
 244 924 l 1,1,-1
 130 924 l 1,2,-1
 88 1192 l 1,3,-1
 88 1432 l 1,4,-1
 288 1432 l 1,5,-1
 288 1192 l 1,0,-1
EndSplineSet
EndChar

StartChar: parenleft
Encoding: 40 40 11
Width: 840
GlyphClass: 2
Flags: W
LayerCount: 2
Fore
SplineSet
700 -600 m 1,0,-1
 516 -600 l 2,1,2
 360 -600 360 -600 250 -480 c 128,-1,3
 140 -360 140 -360 140 -194 c 2,4,-1
 140 994 l 2,5,6
 140 1158 140 1158 247 1279 c 128,-1,7
 354 1400 354 1400 516 1400 c 2,8,-1
 700 1400 l 1,9,-1
 700 1288 l 1,10,11
 628 1322 628 1322 576 1322 c 0,12,13
 460 1322 460 1322 375 1245 c 128,-1,14
 290 1168 290 1168 290 1054 c 2,15,-1
 290 -254 l 2,16,17
 290 -368 290 -368 376 -445 c 128,-1,18
 462 -522 462 -522 576 -522 c 0,19,20
 628 -522 628 -522 700 -488 c 1,21,-1
 700 -600 l 1,0,-1
EndSplineSet
EndChar

StartChar: parenright
Encoding: 41 41 12
Width: 840
GlyphClass: 2
Flags: W
LayerCount: 2
Fore
SplineSet
700 -194 m 2,0,1
 700 -358 700 -358 596 -476 c 0,2,3
 486 -600 486 -600 324 -600 c 2,4,-1
 140 -600 l 1,5,-1
 140 -488 l 1,6,7
 212 -522 212 -522 264 -522 c 0,8,9
 380 -522 380 -522 465 -445 c 128,-1,10
 550 -368 550 -368 550 -254 c 2,11,-1
 550 1054 l 2,12,13
 550 1168 550 1168 464 1245 c 128,-1,14
 378 1322 378 1322 264 1322 c 0,15,16
 212 1322 212 1322 140 1288 c 1,17,-1
 140 1400 l 1,18,-1
 324 1400 l 2,19,20
 478 1400 478 1400 589 1279 c 128,-1,21
 700 1158 700 1158 700 994 c 2,22,-1
 700 -194 l 2,0,1
EndSplineSet
EndChar

StartChar: asterisk
Encoding: 42 42 13
Width: 1460
GlyphClass: 2
Flags: W
LayerCount: 2
Fore
SplineSet
1348 622 m 1,0,-1
 946 342 l 1,1,-1
 1088 -120 l 1,2,-1
 738 174 l 1,3,-1
 340 -118 l 1,4,-1
 488 342 l 1,5,-1
 108 622 l 1,6,-1
 588 622 l 1,7,-1
 718 1060 l 1,8,-1
 848 622 l 1,9,-1
 1348 622 l 1,0,-1
EndSplineSet
EndChar

StartChar: plus
Encoding: 43 43 14
Width: 1216
GlyphClass: 2
Flags: W
LayerCount: 2
Fore
SplineSet
1080 372 m 1,0,-1
 688 372 l 1,1,-1
 688 106 l 2,2,3
 688 60 688 60 746 54 c 1,4,-1
 746 0 l 1,5,-1
 474 0 l 1,6,-1
 474 56 l 1,7,8
 532 56 532 56 532 106 c 2,9,-1
 532 372 l 1,10,-1
 140 372 l 1,11,-1
 140 448 l 1,12,-1
 532 448 l 1,13,-1
 532 714 l 2,14,15
 532 728 532 728 516 736 c 0,16,17
 508 744 508 744 474 744 c 1,18,-1
 474 800 l 1,19,-1
 746 800 l 1,20,-1
 746 744 l 1,21,22
 688 736 688 736 688 714 c 2,23,-1
 688 448 l 1,24,-1
 1080 448 l 1,25,-1
 1080 372 l 1,0,-1
EndSplineSet
EndChar

StartChar: comma
Encoding: 44 44 15
Width: 648
GlyphClass: 2
Flags: W
LayerCount: 2
Fore
SplineSet
510 98 m 0,0,1
 510 -46 510 -46 432 -162 c 0,2,3
 364 -264 364 -264 230 -330 c 1,4,-1
 140 -230 l 1,5,-1
 190 -184 l 1,6,7
 212 -212 212 -212 234 -224 c 1,8,9
 280 -224 280 -224 344 -144 c 1,10,11
 358 -120 358 -120 374 -96 c 0,12,13
 378 -90 378 -90 386 -66 c 0,14,15
 392 -52 392 -52 386 -42 c 0,16,17
 380 -30 380 -30 368 -30 c 0,18,19
 354 -30 354 -30 354 -52 c 1,20,-1
 380 -52 l 1,21,-1
 380 -8 l 1,22,23
 326 -8 326 -8 284 28 c 1,24,25
 250 66 250 66 250 118 c 0,26,27
 250 176 250 176 287 218 c 128,-1,28
 324 260 324 260 380 260 c 0,29,30
 438 260 438 260 474 209 c 128,-1,31
 510 158 510 158 510 98 c 0,0,1
EndSplineSet
EndChar

StartChar: hyphen
Encoding: 45 45 16
Width: 1024
GlyphClass: 2
Flags: W
LayerCount: 2
Fore
SplineSet
880 382 m 1,0,-1
 140 382 l 1,1,-1
 140 442 l 1,2,-1
 880 442 l 1,3,-1
 880 382 l 1,0,-1
EndSplineSet
EndChar

StartChar: period
Encoding: 46 46 17
Width: 536
GlyphClass: 2
Flags: W
LayerCount: 2
Fore
SplineSet
398 130 m 256,0,1
 398 76 398 76 359 38 c 128,-1,2
 320 0 320 0 266 0 c 256,3,4
 212 0 212 0 175 39 c 128,-1,5
 138 78 138 78 138 132 c 256,6,7
 138 186 138 186 176 223 c 128,-1,8
 214 260 214 260 268 260 c 256,9,10
 322 260 322 260 360 222 c 128,-1,11
 398 184 398 184 398 130 c 256,0,1
EndSplineSet
EndChar

StartChar: slash
Encoding: 47 47 18
Width: 984
GlyphClass: 2
Flags: W
LayerCount: 2
Fore
SplineSet
844 942 m 1,0,1
 782 942 782 942 764 912 c 1,2,-1
 312 -120 l 2,3,4
 314 -124 314 -124 321 -131 c 128,-1,5
 328 -138 328 -138 356 -142 c 1,6,-1
 356 -200 l 1,7,-1
 144 -200 l 1,8,-1
 144 -140 l 1,9,10
 188 -136 188 -136 222 -78 c 1,11,-1
 688 922 l 1,12,13
 662 942 662 942 632 942 c 1,14,-1
 632 1000 l 1,15,-1
 844 1000 l 1,16,-1
 844 942 l 1,0,1
EndSplineSet
EndChar

StartChar: zero
Encoding: 48 48 19
Width: 925
GlyphClass: 2
Flags: W
LayerCount: 2
Fore
SplineSet
844 505 m 0,0,1
 844 313 844 313 752 163 c 0,2,3
 644 -11 644 -11 464 -11 c 0,4,5
 283 -11 283 -11 179 152 c 0,6,7
 85 296 85 296 85 505 c 256,8,9
 85 714 85 714 179 861 c 0,10,11
 281 1022 281 1022 464 1022 c 0,12,13
 648 1022 648 1022 754 847 c 0,14,15
 844 701 844 701 844 505 c 0,0,1
716 505 m 0,16,17
 716 654 716 654 663 762 c 0,18,19
 597 901 597 901 464 901 c 256,20,21
 331 901 331 901 264 762 c 0,22,23
 211 654 211 654 211 505 c 0,24,25
 211 355 211 355 262 249 c 0,26,27
 329 110 329 110 464 110 c 0,28,29
 595 110 595 110 663 251 c 0,30,31
 716 359 716 359 716 505 c 0,16,17
EndSplineSet
EndChar

StartChar: one
Encoding: 49 49 20
Width: 931
GlyphClass: 2
Flags: W
LayerCount: 2
Fore
SplineSet
646 0 m 1,0,-1
 524 0 l 1,1,-1
 524 709 l 1,2,-1
 281 709 l 1,3,-1
 281 813 l 1,4,5
 399 813 399 813 471 866 c 1,6,7
 549 910 549 910 560 1011 c 1,8,-1
 646 1011 l 1,9,-1
 646 0 l 1,0,-1
EndSplineSet
EndChar

StartChar: two
Encoding: 50 50 21
Width: 927
GlyphClass: 2
Flags: W
LayerCount: 2
Fore
SplineSet
811 0 m 1,0,-1
 118 0 l 1,1,2
 118 274 118 274 465 475 c 0,3,4
 686 602 686 602 686 730 c 0,5,6
 686 802 686 802 625 849 c 1,7,8
 547 897 547 897 477 897 c 0,9,10
 393 897 393 897 330.5 836 c 128,-1,11
 268 775 268 775 268 692 c 2,12,-1
 268 619 l 1,13,-1
 142 619 l 1,14,-1
 142 692 l 2,15,16
 142 830 142 830 238 926 c 128,-1,17
 334 1022 334 1022 477 1022 c 0,18,19
 612 1022 612 1022 711.5 937.5 c 128,-1,20
 811 853 811 853 811 730 c 0,21,22
 811 526 811 526 547 372 c 0,23,24
 420 298 420 298 376 264 c 0,25,26
 321 220 321 220 281 125 c 1,27,-1
 811 125 l 1,28,-1
 811 0 l 1,0,-1
EndSplineSet
EndChar

StartChar: three
Encoding: 51 51 22
Width: 931
GlyphClass: 2
Flags: W
LayerCount: 2
Fore
SplineSet
826 308 m 0,0,1
 826 169 826 169 719 79 c 128,-1,2
 612 -11 612 -11 471 -11 c 0,3,4
 327 -11 327 -11 216.5 80 c 128,-1,5
 106 171 106 171 106 327 c 1,6,-1
 230 327 l 1,7,8
 230 232 230 232 305 173 c 128,-1,9
 380 114 380 114 471 114 c 0,10,11
 559 114 559 114 629 168 c 128,-1,12
 699 222 699 222 699 308 c 0,13,14
 699 388 699 388 621 433 c 0,15,16
 557 471 557 471 471 471 c 2,17,-1
 378 471 l 1,18,-1
 378 600 l 1,19,-1
 471 600 l 2,20,21
 541 600 541 600 596.5 644 c 128,-1,22
 652 688 652 688 652 756 c 0,23,24
 652 813 652 813 595 857 c 0,25,26
 574 870 574 870 536 885 c 1,27,28
 488 897 488 897 471 897 c 0,29,30
 391 897 391 897 319 845 c 1,31,32
 256 790 256 790 256 709 c 1,33,-1
 131 709 l 1,34,35
 131 840 131 840 229 931 c 128,-1,36
 327 1022 327 1022 460 1022 c 0,37,38
 583 1022 583 1022 680 946 c 128,-1,39
 777 870 777 870 777 754 c 0,40,41
 777 633 777 633 684 547 c 1,42,43
 826 460 826 460 826 308 c 0,0,1
EndSplineSet
EndChar

StartChar: four
Encoding: 52 52 23
Width: 931
GlyphClass: 2
Flags: W
LayerCount: 2
Fore
SplineSet
819 249 m 1,0,-1
 682 249 l 1,1,-1
 682 0 l 1,2,-1
 557 0 l 1,3,-1
 557 249 l 1,4,-1
 112 249 l 1,5,-1
 112 370 l 1,6,-1
 560 1011 l 1,7,-1
 682 1011 l 1,8,-1
 682 374 l 1,9,-1
 819 374 l 1,10,-1
 819 249 l 1,0,-1
557 374 m 1,11,-1
 557 779 l 1,12,-1
 270 374 l 1,13,-1
 557 374 l 1,11,-1
EndSplineSet
EndChar

StartChar: five
Encoding: 53 53 24
Width: 931
GlyphClass: 2
Flags: W
LayerCount: 2
Fore
SplineSet
826 344 m 0,0,1
 826 198 826 198 717 99 c 128,-1,2
 608 0 608 0 460 0 c 0,3,4
 313 0 313 0 213 84 c 0,5,6
 106 171 106 171 106 315 c 1,7,-1
 230 315 l 1,8,9
 230 226 230 226 302 175 c 0,10,11
 369 127 369 127 460 127 c 0,12,13
 557 127 557 127 631 190 c 0,14,15
 699 249 699 249 699 344 c 0,16,17
 699 435 699 435 626 503.5 c 128,-1,18
 553 572 553 572 460 572 c 0,19,20
 327 572 327 572 241 471 c 1,21,-1
 116 471 l 1,22,-1
 218 1003 l 1,23,-1
 752 1003 l 1,24,-1
 752 876 l 1,25,-1
 332 876 l 1,26,-1
 289 663 l 1,27,28
 384 699 384 699 460 699 c 0,29,30
 610 699 610 699 718 595.5 c 128,-1,31
 826 492 826 492 826 344 c 0,0,1
EndSplineSet
EndChar

StartChar: six
Encoding: 54 54 25
Width: 931
GlyphClass: 2
Flags: W
LayerCount: 2
Fore
SplineSet
819 332 m 0,0,1
 819 188 819 188 714.5 88.5 c 128,-1,2
 610 -11 610 -11 464 -11 c 0,3,4
 310 -11 310 -11 207 110 c 0,5,6
 110 224 110 224 110 380 c 2,7,-1
 110 505 l 2,8,9
 110 712 110 712 205 859 c 0,10,11
 312 1022 312 1022 490 1022 c 0,12,13
 619 1022 619 1022 707 940 c 0,14,15
 800 853 800 853 800 722 c 1,16,-1
 673 722 l 1,17,18
 673 800 673 800 620.5 848.5 c 128,-1,19
 568 897 568 897 490 897 c 0,20,21
 374 897 374 897 298 777 c 1,22,23
 260 699 260 699 237 560 c 1,24,25
 344 663 344 663 464 663 c 0,26,27
 606 663 606 663 712.5 569 c 128,-1,28
 819 475 819 475 819 332 c 0,0,1
690 332 m 0,29,30
 690 418 690 418 622.5 479.5 c 128,-1,31
 555 541 555 541 464 541 c 0,32,33
 376 541 376 541 313.5 473 c 128,-1,34
 251 405 251 405 251 317 c 0,35,36
 251 234 251 234 315.5 172 c 128,-1,37
 380 110 380 110 464 110 c 0,38,39
 555 110 555 110 622.5 176.5 c 128,-1,40
 690 243 690 243 690 332 c 0,29,30
EndSplineSet
EndChar

StartChar: seven
Encoding: 55 55 26
Width: 925
GlyphClass: 2
Flags: W
LayerCount: 2
Fore
SplineSet
844 880 m 1,0,1
 471 612 471 612 471 0 c 1,2,-1
 319 0 l 1,3,4
 319 414 319 414 509 693 c 0,5,6
 570 785 570 785 661 876 c 1,7,-1
 85 876 l 1,8,-1
 85 1003 l 1,9,-1
 844 1003 l 1,10,-1
 844 880 l 1,0,1
EndSplineSet
EndChar

StartChar: eight
Encoding: 56 56 27
Width: 925
GlyphClass: 2
Flags: W
LayerCount: 2
Fore
SplineSet
844 308 m 0,0,1
 844 167 844 167 722 74 c 0,2,3
 610 -11 610 -11 464 -11 c 0,4,5
 315 -11 315 -11 205 72 c 0,6,7
 85 163 85 163 85 308 c 0,8,9
 85 393 85 393 133 465 c 0,10,11
 161 511 161 511 247 555 c 1,12,13
 135 648 135 648 135 754 c 0,14,15
 135 876 135 876 241 952 c 0,16,17
 338 1022 338 1022 464 1022 c 0,18,19
 597 1022 597 1022 695.5 949 c 128,-1,20
 794 876 794 876 794 754 c 0,21,22
 794 650 794 650 682 555 c 1,23,24
 764 515 764 515 792 464 c 1,25,26
 844 391 844 391 844 308 c 0,0,1
665 754 m 0,27,28
 665 817 665 817 606 855 c 0,29,30
 541 897 541 897 464 897 c 0,31,32
 388 897 388 897 331 864 c 0,33,34
 262 825 262 825 262 754 c 0,35,36
 262 684 262 684 331 644 c 0,37,38
 388 612 388 612 464 612 c 0,39,40
 545 612 545 612 602 652 c 1,41,42
 665 686 665 686 665 754 c 0,27,28
716 308 m 0,43,44
 716 391 716 391 629 443 c 0,45,46
 553 484 553 484 464 484 c 0,47,48
 359 484 359 484 285 437.5 c 128,-1,49
 211 391 211 391 211 308 c 0,50,51
 211 218 211 218 288 166 c 128,-1,52
 365 114 365 114 464 114 c 0,53,54
 566 114 566 114 641 166 c 128,-1,55
 716 218 716 218 716 308 c 0,43,44
EndSplineSet
EndChar

StartChar: nine
Encoding: 57 57 28
Width: 931
GlyphClass: 2
Flags: W
LayerCount: 2
Fore
SplineSet
813 505 m 2,0,1
 813 310 813 310 728 163 c 0,2,3
 627 -11 627 -11 445 -11 c 0,4,5
 325 -11 325 -11 239.5 74.5 c 128,-1,6
 154 160 154 160 154 289 c 1,7,-1
 281 289 l 1,8,9
 281 211 281 211 329 165 c 0,10,11
 380 114 380 114 445 114 c 0,12,13
 557 114 557 114 619 232 c 0,14,15
 673 331 673 331 673 460 c 1,16,17
 557 370 557 370 458 370 c 0,18,19
 323 370 323 370 220.5 457.5 c 128,-1,20
 118 545 118 545 118 678 c 0,21,22
 118 825 118 825 218.5 923.5 c 128,-1,23
 319 1022 319 1022 458 1022 c 0,24,25
 612 1022 612 1022 712.5 903.5 c 128,-1,26
 813 785 813 785 813 629 c 2,27,-1
 813 505 l 2,0,1
673 692 m 0,28,29
 673 777 673 777 608 837 c 128,-1,30
 543 897 543 897 458 897 c 0,31,32
 376 897 376 897 306 834 c 0,33,34
 245 779 245 779 245 692 c 0,35,36
 245 604 245 604 306 547 c 128,-1,37
 367 490 367 490 458 490 c 0,38,39
 547 490 547 490 610 547 c 128,-1,40
 673 604 673 604 673 692 c 0,28,29
EndSplineSet
EndChar

StartChar: colon
Encoding: 58 58 29
Width: 536
GlyphClass: 2
Flags: W
LayerCount: 2
Fore
SplineSet
398 668 m 0,0,1
 398 606 398 606 360 568 c 1,2,3
 312 528 312 528 266 528 c 0,4,5
 214 528 214 528 176 570 c 128,-1,6
 138 612 138 612 138 666 c 256,7,8
 138 720 138 720 176 760 c 128,-1,9
 214 800 214 800 268 800 c 256,10,11
 322 800 322 800 360 761 c 128,-1,12
 398 722 398 722 398 668 c 0,0,1
398 136 m 256,13,14
 398 82 398 82 359 41 c 128,-1,15
 320 0 320 0 266 0 c 0,16,17
 210 0 210 0 174 39 c 128,-1,18
 138 78 138 78 138 134 c 0,19,20
 138 194 138 194 176 232 c 1,21,22
 224 272 224 272 268 272 c 0,23,24
 322 272 322 272 360 231 c 128,-1,25
 398 190 398 190 398 136 c 256,13,14
EndSplineSet
EndChar

StartChar: semicolon
Encoding: 59 59 30
Width: 648
GlyphClass: 2
Flags: W
LayerCount: 2
Fore
SplineSet
510 664 m 0,0,1
 510 604 510 604 472 566 c 128,-1,2
 434 528 434 528 378 528 c 0,3,4
 324 528 324 528 288 566 c 1,5,6
 250 616 250 616 250 662 c 0,7,8
 250 724 250 724 286 758 c 0,9,10
 330 800 330 800 380 800 c 0,11,12
 436 800 436 800 473 761 c 128,-1,13
 510 722 510 722 510 664 c 0,0,1
510 104 m 0,14,15
 510 -194 510 -194 230 -330 c 1,16,-1
 140 -230 l 1,17,-1
 190 -180 l 1,18,19
 190 -180 190 -180 234 -224 c 1,20,21
 286 -218 286 -218 348 -140 c 0,22,23
 394 -82 394 -82 416 -4 c 1,24,-1
 380 -4 l 2,25,26
 322 -4 322 -4 286 32 c 128,-1,27
 250 68 250 68 250 124 c 256,28,29
 250 180 250 180 286 226 c 1,30,31
 330 270 330 270 380 270 c 0,32,33
 426 270 426 270 472 220 c 1,34,35
 510 170 510 170 510 104 c 0,14,15
EndSplineSet
EndChar

StartChar: less
Encoding: 60 60 31
Width: 1216
GlyphClass: 2
Flags: W
LayerCount: 2
Fore
SplineSet
764 582 m 1,0,-1
 726 544 l 1,1,2
 704 568 704 568 688 568 c 0,3,4
 668 568 668 568 650 550 c 2,5,-1
 470 366 l 1,6,-1
 738 94 l 1,7,-1
 686 40 l 1,8,-1
 312 422 l 1,9,-1
 544 658 l 2,10,11
 560 674 560 674 560 694 c 0,12,13
 560 712 560 712 540 738 c 1,14,-1
 580 774 l 1,15,-1
 764 582 l 1,0,-1
EndSplineSet
EndChar

StartChar: equal
Encoding: 61 61 32
Width: 1280
GlyphClass: 2
Flags: W
LayerCount: 2
Fore
SplineSet
1140 528 m 1,0,-1
 140 528 l 1,1,-1
 140 600 l 1,2,-1
 1140 600 l 1,3,-1
 1140 528 l 1,0,-1
1140 200 m 1,4,-1
 140 200 l 1,5,-1
 140 272 l 1,6,-1
 1140 272 l 1,7,-1
 1140 200 l 1,4,-1
EndSplineSet
EndChar

StartChar: greater
Encoding: 62 62 33
Width: 1216
GlyphClass: 2
Flags: W
LayerCount: 2
Fore
SplineSet
828 424 m 1,0,-1
 452 40 l 1,1,-1
 402 92 l 1,2,-1
 670 368 l 1,3,-1
 486 550 l 2,4,5
 468 568 468 568 450 568 c 0,6,7
 428 568 428 568 412 546 c 1,8,-1
 376 582 l 1,9,-1
 560 774 l 1,10,-1
 600 734 l 1,11,12
 576 710 576 710 576 694 c 256,13,14
 576 678 576 678 592 658 c 2,15,-1
 828 424 l 1,0,-1
EndSplineSet
EndChar

StartChar: question
Encoding: 63 63 34
Width: 1112
GlyphClass: 2
Flags: W
LayerCount: 2
Fore
SplineSet
976 876 m 0,0,1
 976 786 976 786 912 698 c 1,2,3
 866 614 866 614 754 572 c 0,4,5
 584 508 584 508 584 442 c 0,6,7
 584 398 584 398 606 384 c 0,8,9
 618 378 618 378 642 372 c 1,10,-1
 642 314 l 1,11,-1
 430 314 l 1,12,-1
 430 442 l 2,13,14
 430 538 430 538 670 628 c 0,15,16
 738 654 738 654 780 723 c 128,-1,17
 822 792 822 792 822 876 c 0,18,19
 822 984 822 984 740 1052 c 0,20,21
 650 1124 650 1124 538 1124 c 0,22,23
 444 1124 444 1124 362 1048 c 0,24,25
 290 982 290 982 290 876 c 0,26,27
 290 796 290 796 333 741 c 128,-1,28
 376 686 376 686 438 686 c 0,29,30
 470 686 470 686 496 722 c 0,31,32
 508 738 508 738 508 766 c 1,33,-1
 564 766 l 1,34,-1
 564 636 l 1,35,36
 498 610 498 610 438 610 c 0,37,38
 324 610 324 610 230 687 c 128,-1,39
 136 764 136 764 136 876 c 0,40,41
 136 1018 136 1018 270 1114 c 0,42,43
 390 1200 390 1200 538 1200 c 0,44,45
 716 1200 716 1200 846 1104 c 128,-1,46
 976 1008 976 1008 976 876 c 0,0,1
664 136 m 0,47,48
 664 82 664 82 617 41 c 128,-1,49
 570 0 570 0 516 0 c 0,50,51
 458 0 458 0 420 39 c 128,-1,52
 382 78 382 78 382 136 c 0,53,54
 382 198 382 198 421 241 c 128,-1,55
 460 284 460 284 516 284 c 0,56,57
 578 284 578 284 616 240 c 1,58,59
 664 198 664 198 664 136 c 0,47,48
EndSplineSet
EndChar

StartChar: at
Encoding: 64 64 35
Width: 2030
GlyphClass: 2
Flags: W
LayerCount: 2
Fore
SplineSet
1958 32 m 1,0,1
 1834 -216 1834 -216 1492 -356 c 1,2,-1
 1418 -378 l 2,3,4
 1386 -388 1386 -388 1308 -404 c 1,5,-1
 1210 -416 l 1,6,-1
 1092 -420 l 2,7,8
 906 -426 906 -426 698 -362 c 0,9,10
 514 -306 514 -306 390 -200 c 0,11,12
 258 -88 258 -88 188 60 c 0,13,14
 108 230 108 230 108 458 c 0,15,16
 108 704 108 704 204 912 c 0,17,18
 456 1458 456 1458 1072 1458 c 0,19,20
 1234 1458 1234 1458 1362 1418 c 0,21,22
 1392 1408 1392 1408 1452 1386 c 1,23,24
 1684 1282 1684 1282 1810 1062 c 0,25,26
 1904 898 1904 898 1904 694 c 0,27,28
 1904 416 1904 416 1704 192 c 0,29,30
 1526 -8 1526 -8 1314 -8 c 2,31,-1
 1290 -8 l 1,32,-1
 1250 -6 l 2,33,34
 1228 -4 1228 -4 1202 14 c 1,35,36
 1182 22 1182 22 1166 40 c 0,37,38
 1158 48 1158 48 1138 78 c 1,39,-1
 1126 138 l 1,40,41
 1022 42 1022 42 918 8 c 0,42,43
 874 -6 874 -6 834 -6 c 0,44,45
 638 -6 638 -6 532 204 c 0,46,47
 476 314 476 314 476 436 c 0,48,49
 476 586 476 586 553 742 c 128,-1,50
 630 898 630 898 751 980 c 128,-1,51
 872 1062 872 1062 986 1062 c 0,52,53
 1084 1062 1084 1062 1148 1016 c 1,54,55
 1200 992 1200 992 1276 900 c 1,56,-1
 1302 1034 l 1,57,-1
 1492 1034 l 1,58,-1
 1322 224 l 1,59,60
 1332 194 1332 194 1340 188 c 0,61,62
 1364 172 1364 172 1380 172 c 0,63,64
 1460 172 1460 172 1556 268 c 0,65,66
 1632 344 1632 344 1678 432 c 1,67,-1
 1728 562 l 1,68,69
 1744 638 1744 638 1744 698 c 0,70,71
 1744 854 1744 854 1666 988 c 0,72,73
 1582 1128 1582 1128 1424 1212 c 0,74,75
 1348 1252 1348 1252 1250 1278 c 1,76,-1
 1162 1292 l 1,77,-1
 1064 1298 l 2,78,79
 928 1306 928 1306 774 1252 c 0,80,81
 506 1156 506 1156 370 890 c 0,82,83
 314 780 314 780 292 686 c 0,84,85
 268 582 268 582 268 476 c 0,86,87
 268 -12 268 -12 654 -176 c 0,88,89
 846 -258 846 -258 1090 -258 c 0,90,91
 1324 -258 1324 -258 1500 -176 c 0,92,93
 1660 -102 1660 -102 1766 32 c 1,94,-1
 1958 32 l 1,0,1
1212 632 m 0,95,96
 1212 746 1212 746 1148 826 c 0,97,98
 1090 900 1090 900 998 900 c 0,99,100
 878 900 878 900 792 780 c 0,101,102
 740 710 740 710 700 604 c 1,103,104
 674 488 674 488 674 424 c 0,105,106
 674 302 674 302 731 228 c 128,-1,107
 788 154 788 154 870 154 c 0,108,109
 920 154 920 154 980 184 c 1,110,111
 1042 224 1042 224 1086 282 c 1,112,113
 1142 334 1142 334 1176 438 c 0,114,115
 1212 550 1212 550 1212 632 c 0,95,96
EndSplineSet
EndChar

StartChar: bracketleft
Encoding: 91 91 36
Width: 556
GlyphClass: 2
Flags: W
LayerCount: 2
Fore
SplineSet
524 -398 m 1,0,-1
 136 -398 l 1,1,-1
 136 1432 l 1,2,-1
 524 1432 l 1,3,-1
 524 1286 l 1,4,-1
 312 1286 l 1,5,-1
 312 -252 l 1,6,-1
 524 -252 l 1,7,-1
 524 -398 l 1,0,-1
EndSplineSet
EndChar

StartChar: backslash
Encoding: 92 92 37
Width: 556
GlyphClass: 2
Flags: W
LayerCount: 2
Fore
SplineSet
556 -24 m 1,0,-1
 416 -24 l 1,1,-1
 0 1456 l 1,2,-1
 142 1456 l 1,3,-1
 556 -24 l 1,0,-1
EndSplineSet
EndChar

StartChar: bracketright
Encoding: 93 93 38
Width: 556
GlyphClass: 2
Flags: W
LayerCount: 2
Fore
SplineSet
426 -398 m 1,0,-1
 38 -398 l 1,1,-1
 38 -252 l 1,2,-1
 250 -252 l 1,3,-1
 250 1286 l 1,4,-1
 38 1286 l 1,5,-1
 38 1432 l 1,6,-1
 426 1432 l 1,7,-1
 426 -398 l 1,0,-1
EndSplineSet
EndChar

StartChar: asciicircum
Encoding: 94 94 39
Width: 938
GlyphClass: 2
Flags: W
LayerCount: 2
Fore
SplineSet
886 674 m 1,0,-1
 708 674 l 1,1,-1
 468 1256 l 1,2,-1
 234 674 l 1,3,-1
 52 674 l 1,4,-1
 398 1456 l 1,5,-1
 540 1456 l 1,6,-1
 886 674 l 1,0,-1
EndSplineSet
EndChar

StartChar: underscore
Encoding: 95 95 40
Width: 1112
GlyphClass: 2
Flags: W
LayerCount: 2
Fore
SplineSet
1134 -398 m 1,0,-1
 -30 -398 l 1,1,-1
 -30 -270 l 1,2,-1
 1134 -270 l 1,3,-1
 1134 -398 l 1,0,-1
EndSplineSet
EndChar

StartChar: grave
Encoding: 96 96 41
Width: 672
GlyphClass: 2
Flags: W
LayerCount: 2
Fore
SplineSet
690 990 m 1,0,-1
 626 960 l 1,1,-1
 450 1276 l 2,2,3
 444 1292 444 1292 444 1308 c 256,4,5
 444 1324 444 1324 448 1338 c 0,6,7
 460 1368 460 1368 492 1388 c 0,8,9
 504 1394 504 1394 528 1398 c 1,10,11
 586 1398 586 1398 610 1336 c 1,12,-1
 690 990 l 1,0,-1
EndSplineSet
EndChar

StartChar: braceleft
Encoding: 123 123 42
Width: 668
GlyphClass: 2
Flags: W
LayerCount: 2
Fore
SplineSet
622 -420 m 1,0,-1
 566 -420 l 2,1,2
 460 -420 460 -420 426 -404 c 1,3,4
 380 -392 380 -392 328 -334 c 0,5,6
 310 -314 310 -314 270 -206 c 1,7,8
 258 -128 258 -128 258 48 c 0,9,10
 258 246 258 246 242 292 c 1,11,12
 218 426 218 426 56 438 c 1,13,-1
 56 598 l 1,14,15
 204 598 204 598 242 744 c 1,16,-1
 252 854 l 1,17,-1
 258 974 l 2,18,19
 258 1034 258 1034 264 1200 c 0,20,21
 268 1316 268 1316 348 1396 c 0,22,23
 372 1420 372 1420 446 1446 c 1,24,-1
 516 1454 l 1,25,-1
 566 1456 l 1,26,-1
 622 1456 l 1,27,-1
 622 1302 l 1,28,-1
 590 1302 l 2,29,30
 494 1302 494 1302 454 1264 c 1,31,32
 422 1226 422 1226 422 1102 c 2,33,-1
 420 824 l 2,34,35
 420 792 420 792 412 780 c 1,36,37
 394 682 394 682 348 624 c 0,38,39
 310 574 310 574 218 518 c 1,40,41
 350 470 350 470 392 338 c 0,42,43
 418 256 418 256 422 78 c 2,44,-1
 426 -148 l 2,45,46
 428 -208 428 -208 466 -242 c 1,47,-1
 506 -258 l 1,48,49
 556 -268 556 -268 590 -268 c 2,50,-1
 622 -268 l 1,51,-1
 622 -420 l 1,0,-1
EndSplineSet
EndChar

StartChar: bar
Encoding: 124 124 43
Width: 520
GlyphClass: 2
Flags: W
LayerCount: 2
Fore
SplineSet
336 -420 m 1,0,-1
 184 -420 l 1,1,-1
 184 1456 l 1,2,-1
 336 1456 l 1,3,-1
 336 -420 l 1,0,-1
EndSplineSet
EndChar

StartChar: braceright
Encoding: 125 125 44
Width: 668
GlyphClass: 2
Flags: W
LayerCount: 2
Fore
SplineSet
612 438 m 1,0,1
 462 438 462 438 424 290 c 1,2,-1
 414 200 l 1,3,-1
 410 -34 l 2,4,5
 410 -86 410 -86 404 -154 c 0,6,7
 400 -234 400 -234 373 -282 c 128,-1,8
 346 -330 346 -330 312 -364 c 1,9,-1
 276 -386 l 1,10,-1
 222 -410 l 1,11,-1
 176 -418 l 1,12,-1
 100 -420 l 1,13,-1
 46 -420 l 1,14,-1
 46 -268 l 1,15,-1
 76 -268 l 2,16,17
 182 -268 182 -268 216 -218 c 0,18,19
 242 -180 242 -180 244 -66 c 2,20,-1
 246 124 l 1,21,-1
 252 244 l 2,22,23
 256 338 256 338 316 416 c 0,24,25
 366 484 366 484 448 518 c 1,26,27
 320 574 320 574 274 698 c 0,28,29
 244 780 244 780 244 958 c 2,30,-1
 244 1078 l 1,31,-1
 238 1200 l 2,32,33
 232 1302 232 1302 76 1302 c 2,34,-1
 46 1302 l 1,35,-1
 46 1456 l 1,36,-1
 100 1456 l 2,37,38
 204 1456 204 1456 250 1436 c 1,39,40
 346 1406 346 1406 396 1240 c 1,41,-1
 406 1138 l 1,42,-1
 410 988 l 2,43,44
 412 896 412 896 424 738 c 1,45,46
 438 652 438 652 544 608 c 1,47,-1
 576 600 l 1,48,-1
 612 598 l 1,49,-1
 612 438 l 1,0,1
EndSplineSet
EndChar

StartChar: asciitilde
Encoding: 126 126 45
Width: 1168
GlyphClass: 2
Flags: W
LayerCount: 2
Fore
SplineSet
1084 658 m 1,0,1
 1024 604 1024 604 960 572 c 1,2,3
 862 544 862 544 814 546 c 2,4,-1
 758 548 l 1,5,-1
 726 548 l 1,6,-1
 704 556 l 2,7,8
 666 566 666 566 524 628 c 0,9,10
 416 676 416 676 340 676 c 0,11,12
 276 676 276 676 222 650 c 1,13,-1
 162 612 l 1,14,-1
 136 592 l 1,15,-1
 84 544 l 1,16,-1
 84 744 l 1,17,18
 186 856 186 856 356 862 c 0,19,20
 380 862 380 862 480 844 c 1,21,22
 506 832 506 832 664 776 c 2,23,-1
 764 740 l 1,24,-1
 806 730 l 1,25,-1
 832 730 l 2,26,27
 948 730 948 730 1084 864 c 1,28,-1
 1084 658 l 1,0,1
EndSplineSet
EndChar

StartChar: cent
Encoding: 162 162 46
Width: 721
GlyphClass: 2
Flags: W
LayerCount: 2
Fore
SplineSet
598 156 m 1,0,1
 537 71 537 71 467 31 c 128,-1,2
 397 -9 397 -9 304 -17 c 1,3,-1
 228 -265 l 1,4,-1
 187 -265 l 1,5,-1
 262 -17 l 1,6,7
 177 -8 177 -8 128.5 47 c 128,-1,8
 80 102 80 102 80 188 c 0,9,10
 80 345 80 345 191.5 478.5 c 128,-1,11
 303 612 303 612 457 638 c 1,12,-1
 541 917 l 1,13,-1
 580 917 l 1,14,-1
 499 638 l 1,15,16
 580 638 580 638 616.5 607 c 128,-1,17
 653 576 653 576 653 523 c 0,18,19
 653 482 653 482 631.5 455.5 c 128,-1,20
 610 429 610 429 580 429 c 0,21,22
 557 429 557 429 544 442 c 128,-1,23
 531 455 531 455 531 476 c 0,24,25
 531 491 531 491 536 502 c 128,-1,26
 541 513 541 513 560.5 534.5 c 128,-1,27
 580 556 580 556 580 570 c 0,28,29
 580 578 580 578 575 585 c 0,30,31
 565 596 565 596 549.5 601 c 128,-1,32
 534 606 534 606 489 606 c 1,33,-1
 322 49 l 1,34,-1
 352 47 l 1,35,36
 470 47 470 47 580 173 c 1,37,-1
 598 156 l 1,0,1
284 57 m 1,38,-1
 445 598 l 1,39,40
 383 570 383 570 342 533 c 0,41,42
 274 467 274 467 237 380.5 c 128,-1,43
 200 294 200 294 200 205 c 0,44,45
 200 146 200 146 224 108 c 0,46,47
 243 81 243 81 284 57 c 1,38,-1
EndSplineSet
EndChar

StartChar: multiply
Encoding: 215 215 47
Width: 1242
GlyphClass: 2
Flags: W
LayerCount: 2
Fore
SplineSet
1012 400 m 1,0,-1
 926 314 l 1,1,-1
 630 608 l 1,2,-1
 334 314 l 1,3,-1
 248 400 l 1,4,-1
 542 696 l 1,5,-1
 248 990 l 1,6,-1
 336 1078 l 1,7,-1
 630 784 l 1,8,-1
 924 1078 l 1,9,-1
 1012 990 l 1,10,-1
 718 696 l 1,11,-1
 1012 400 l 1,0,-1
EndSplineSet
EndChar

StartChar: divide
Encoding: 247 247 48
Width: 1222
GlyphClass: 2
Flags: W
LayerCount: 2
Fore
SplineSet
740 986 m 0,0,1
 740 942 740 942 711 909 c 128,-1,2
 682 876 682 876 640 876 c 0,3,4
 592 876 592 876 556 903 c 128,-1,5
 520 930 520 930 520 976 c 256,6,7
 520 1022 520 1022 552 1054 c 128,-1,8
 584 1086 584 1086 630 1086 c 0,9,10
 674 1086 674 1086 707 1057 c 128,-1,11
 740 1028 740 1028 740 986 c 0,0,1
1052 630 m 1,12,-1
 214 630 l 1,13,-1
 214 754 l 1,14,-1
 1052 754 l 1,15,-1
 1052 630 l 1,12,-1
740 408 m 0,16,17
 740 364 740 364 711 331 c 128,-1,18
 682 298 682 298 640 298 c 0,19,20
 592 298 592 298 556 325 c 128,-1,21
 520 352 520 352 520 398 c 256,22,23
 520 444 520 444 552 476 c 128,-1,24
 584 508 584 508 630 508 c 0,25,26
 674 508 674 508 707 479 c 128,-1,27
 740 450 740 450 740 408 c 0,16,17
EndSplineSet
EndChar

StartChar: tm_visarga
Encoding: 2947 2947 49
Width: 1716
GlyphClass: 2
Flags: W
LayerCount: 2
Fore
SplineSet
1144 1054 m 0,0,1
 1144 948 1144 948 1055 869 c 128,-1,2
 966 790 966 790 848 790 c 0,3,4
 722 790 722 790 637 867 c 128,-1,5
 552 944 552 944 552 1054 c 0,6,7
 552 1172 552 1172 640 1246 c 128,-1,8
 728 1320 728 1320 848 1320 c 0,9,10
 974 1320 974 1320 1059 1243 c 128,-1,11
 1144 1166 1144 1166 1144 1054 c 0,0,1
1648 266 m 0,12,13
 1648 150 1648 150 1559 75 c 128,-1,14
 1470 0 1470 0 1352 0 c 0,15,16
 1232 0 1232 0 1148 72 c 0,17,18
 1058 148 1058 148 1058 266 c 0,19,20
 1058 372 1058 372 1143 451 c 128,-1,21
 1228 530 1228 530 1352 530 c 0,22,23
 1478 530 1478 530 1563 453 c 128,-1,24
 1648 376 1648 376 1648 266 c 0,12,13
658 266 m 0,25,26
 658 150 658 150 570 75 c 128,-1,27
 482 0 482 0 364 0 c 0,28,29
 238 0 238 0 153 77 c 128,-1,30
 68 154 68 154 68 266 c 0,31,32
 68 376 68 376 155 453 c 128,-1,33
 242 530 242 530 364 530 c 0,34,35
 484 530 484 530 571 457 c 128,-1,36
 658 384 658 384 658 266 c 0,25,26
966 1056 m 0,37,38
 966 1120 966 1120 940 1176 c 0,39,40
 906 1244 906 1244 848 1244 c 0,41,42
 804 1244 804 1244 762 1190 c 1,43,44
 728 1122 728 1122 728 1052 c 0,45,46
 728 988 728 988 756 934 c 0,47,48
 790 866 790 866 848 866 c 0,49,50
 904 866 904 866 938 936 c 0,51,52
 966 994 966 994 966 1056 c 0,37,38
1472 268 m 0,53,54
 1472 338 1472 338 1436 396 c 128,-1,55
 1400 454 1400 454 1352 454 c 0,56,57
 1314 454 1314 454 1268 400 c 1,58,59
 1234 346 1234 346 1234 264 c 0,60,61
 1234 188 1234 188 1266 132 c 128,-1,62
 1298 76 1298 76 1352 76 c 0,63,64
 1428 76 1428 76 1464 198 c 0,65,66
 1472 228 1472 228 1472 268 c 0,53,54
482 268 m 0,67,68
 482 328 482 328 454 384 c 0,69,70
 418 454 418 454 364 454 c 0,71,72
 320 454 320 454 278 400 c 1,73,74
 244 342 244 342 244 264 c 0,75,76
 244 200 244 200 272 144 c 0,77,78
 306 76 306 76 364 76 c 0,79,80
 414 76 414 76 448 133 c 128,-1,81
 482 190 482 190 482 268 c 0,67,68
EndSplineSet
EndChar

StartChar: tm_a
Encoding: 2949 2949 50
Width: 1828
GlyphClass: 2
Flags: W
LayerCount: 2
Fore
SplineSet
1746 -160 m 1,0,-1
 1470 -160 l 1,1,-1
 1470 -104 l 1,2,3
 1528 -104 1528 -104 1528 -54 c 2,4,-1
 1528 254 l 1,5,-1
 1398 254 l 1,6,7
 1358 70 1358 70 1156 -42 c 0,8,9
 944 -160 944 -160 658 -160 c 0,10,11
 538 -160 538 -160 432 -138 c 0,12,13
 308 -112 308 -112 234 -76 c 0,14,15
 56 12 56 12 56 134 c 0,16,17
 56 222 56 222 128 278 c 0,18,19
 194 328 194 328 284 328 c 2,20,-1
 1226 328 l 1,21,-1
 1226 372 l 2,22,23
 1226 530 1226 530 1135 627 c 128,-1,24
 1044 724 1044 724 886 724 c 0,25,26
 814 724 814 724 780 684 c 1,27,28
 736 646 736 646 736 572 c 0,29,30
 736 512 736 512 760 474 c 1,31,32
 780 450 780 450 784 448 c 0,33,34
 798 436 798 436 816 436 c 0,35,36
 832 436 832 436 864 464 c 1,37,38
 888 498 888 498 888 538 c 0,39,40
 888 568 888 568 866 602 c 0,41,42
 850 620 850 620 818 624 c 1,43,-1
 818 684 l 1,44,-1
 886 684 l 2,45,46
 950 684 950 684 1007 642 c 128,-1,47
 1064 600 1064 600 1064 538 c 0,48,49
 1064 462 1064 462 991 416 c 128,-1,50
 918 370 918 370 808 370 c 0,51,52
 704 370 704 370 636 418 c 0,53,54
 560 474 560 474 560 574 c 0,55,56
 560 684 560 684 674 748 c 0,57,58
 766 800 766 800 886 800 c 0,59,60
 1100 800 1100 800 1262 656 c 0,61,62
 1332 594 1332 594 1370 506 c 1,63,64
 1398 418 1398 418 1398 328 c 1,65,-1
 1528 328 l 1,66,-1
 1528 694 l 2,67,68
 1528 744 1528 744 1470 744 c 1,69,-1
 1470 800 l 1,70,-1
 1746 800 l 1,71,-1
 1746 744 l 1,72,73
 1686 744 1686 744 1686 694 c 2,74,-1
 1686 -54 l 2,75,76
 1686 -104 1686 -104 1746 -104 c 1,77,-1
 1746 -160 l 1,0,-1
1220 254 m 1,78,-1
 402 254 l 2,79,80
 344 254 344 254 292 224 c 0,81,82
 232 190 232 190 232 134 c 0,83,84
 232 22 232 22 398 -40 c 0,85,86
 522 -84 522 -84 658 -84 c 0,87,88
 872 -84 872 -84 1034 16 c 0,89,90
 1170 100 1170 100 1220 254 c 1,78,-1
EndSplineSet
EndChar

StartChar: tm_aa
Encoding: 2950 2950 51
Width: 2110
GlyphClass: 2
Flags: W
LayerCount: 2
Fore
SplineSet
2086 -18 m 0,0,1
 2086 -190 2086 -190 1924 -302 c 0,2,3
 1780 -400 1780 -400 1600 -400 c 2,4,-1
 1244 -400 l 2,5,6
 1176 -400 1176 -400 1114 -370 c 0,7,8
 1038 -334 1038 -334 1038 -274 c 0,9,10
 1038 -222 1038 -222 1096 -190 c 0,11,12
 1144 -166 1144 -166 1202 -166 c 2,13,-1
 1412 -166 l 1,14,-1
 1412 -282 l 1,15,16
 1344 -240 1344 -240 1304 -242 c 2,17,-1
 1256 -244 l 2,18,19
 1242 -244 1242 -244 1222 -255 c 128,-1,20
 1202 -266 1202 -266 1194 -298 c 1,21,22
 1206 -324 1206 -324 1304 -324 c 2,23,-1
 1542 -324 l 2,24,25
 1682 -324 1682 -324 1798 -242 c 0,26,27
 1928 -152 1928 -152 1928 -18 c 0,28,29
 1928 40 1928 40 1893 81 c 128,-1,30
 1858 122 1858 122 1796 122 c 0,31,32
 1752 122 1752 122 1692 52 c 1,33,-1
 1690 -56 l 2,34,35
 1690 -106 1690 -106 1750 -106 c 1,36,-1
 1750 -164 l 1,37,-1
 1472 -164 l 1,38,-1
 1472 -106 l 1,39,40
 1534 -106 1534 -106 1534 -56 c 2,41,-1
 1534 250 l 1,42,-1
 1400 250 l 1,43,44
 1350 40 1350 40 1106 -72 c 0,45,46
 908 -164 908 -164 660 -164 c 0,47,48
 404 -164 404 -164 234 -80 c 0,49,50
 56 8 56 8 56 132 c 0,51,52
 56 220 56 220 126 276 c 0,53,54
 190 326 190 326 282 326 c 2,55,-1
 1236 326 l 1,56,-1
 1244 394 l 1,57,58
 1244 524 1244 524 1151 624 c 128,-1,59
 1058 724 1058 724 928 724 c 0,60,61
 848 724 848 724 798 690 c 0,62,63
 740 650 740 650 740 574 c 0,64,65
 740 512 740 512 762 474 c 0,66,67
 772 460 772 460 778 454 c 0,68,69
 796 436 796 436 820 436 c 0,70,71
 838 436 838 436 864 462 c 1,72,73
 888 500 888 500 888 536 c 0,74,75
 888 616 888 616 820 624 c 1,76,-1
 820 682 l 1,77,-1
 888 682 l 2,78,79
 950 682 950 682 1008 640 c 128,-1,80
 1066 598 1066 598 1066 538 c 0,81,82
 1066 460 1066 460 992 414 c 128,-1,83
 918 368 918 368 808 368 c 0,84,85
 704 368 704 368 636 418 c 0,86,87
 562 472 562 472 562 574 c 0,88,89
 562 668 562 668 670 738 c 0,90,91
 766 800 766 800 928 800 c 0,92,93
 1114 800 1114 800 1258 690 c 0,94,95
 1412 568 1412 568 1412 388 c 2,96,-1
 1412 326 l 1,97,-1
 1534 326 l 1,98,-1
 1534 692 l 2,99,100
 1534 742 1534 742 1472 742 c 1,101,-1
 1472 800 l 1,102,-1
 1750 800 l 1,103,-1
 1750 742 l 1,104,105
 1690 742 1690 742 1690 692 c 2,106,-1
 1690 160 l 1,107,108
 1776 208 1776 208 1860 208 c 0,109,110
 1956 208 1956 208 2021 143 c 128,-1,111
 2086 78 2086 78 2086 -18 c 0,0,1
1222 250 m 1,112,-1
 402 250 l 2,113,114
 342 250 342 250 292 222 c 0,115,116
 234 188 234 188 234 132 c 0,117,118
 234 40 234 40 356 -22 c 0,119,120
 486 -88 486 -88 660 -88 c 0,121,122
 802 -88 802 -88 928 -40 c 0,123,124
 1072 14 1072 14 1152 114 c 0,125,126
 1196 168 1196 168 1222 250 c 1,112,-1
EndSplineSet
EndChar

StartChar: tm_i
Encoding: 2951 2951 52
Width: 1628
GlyphClass: 2
Flags: W
LayerCount: 2
Fore
SplineSet
1710 -254 m 0,0,1
 1710 -402 1710 -402 1611 -501 c 128,-1,2
 1512 -600 1512 -600 1364 -600 c 0,3,4
 1124 -600 1124 -600 948 -506 c 1,5,6
 776 -600 776 -600 494 -600 c 0,7,8
 290 -600 290 -600 150 -498 c 128,-1,9
 10 -396 10 -396 10 -254 c 0,10,11
 10 -50 10 -50 150 82 c 0,12,13
 192 120 192 120 256 154 c 1,14,15
 168 330 168 330 168 498 c 0,16,17
 168 788 168 788 374 994 c 128,-1,18
 580 1200 580 1200 870 1200 c 0,19,20
 1178 1200 1178 1200 1395 1058 c 128,-1,21
 1612 916 1612 916 1612 726 c 2,22,-1
 1612 450 l 1,23,-1
 1454 450 l 1,24,-1
 1454 726 l 2,25,26
 1454 914 1454 914 1256 1028 c 0,27,28
 1090 1122 1090 1122 888 1122 c 0,29,30
 646 1122 646 1122 482 934 c 0,31,32
 326 754 326 754 326 508 c 0,33,34
 326 330 326 330 378 216 c 1,35,36
 588 300 588 300 790 300 c 0,37,38
 1030 300 1030 300 1200 252 c 1,39,40
 1200 446 1200 446 1095 596 c 128,-1,41
 990 746 990 746 850 746 c 0,42,43
 782 746 782 746 716 696 c 1,44,45
 662 644 662 644 662 576 c 0,46,47
 662 510 662 510 712 470 c 0,48,49
 738 448 738 448 780 448 c 0,50,51
 828 448 828 448 850 476 c 1,52,53
 880 504 880 504 880 540 c 0,54,55
 880 574 880 574 861 601 c 128,-1,56
 842 628 842 628 810 628 c 0,57,58
 800 628 800 628 762 598 c 1,59,-1
 762 704 l 1,60,-1
 850 704 l 2,61,62
 928 704 928 704 988 660 c 0,63,64
 1056 614 1056 614 1056 538 c 0,65,66
 1056 468 1056 468 976 416 c 0,67,68
 904 370 904 370 790 370 c 0,69,70
 680 370 680 370 594 418 c 0,71,72
 486 476 486 476 486 576 c 0,73,74
 486 680 486 680 592 747 c 128,-1,75
 698 814 698 814 850 814 c 0,76,77
 1064 814 1064 814 1220 644 c 0,78,79
 1384 462 1384 462 1376 240 c 2,80,-1
 1374 190 l 1,81,82
 1522 126 1522 126 1610 18 c 0,83,84
 1710 -104 1710 -104 1710 -254 c 0,0,1
1552 -254 m 0,85,86
 1552 -132 1552 -132 1490 -54 c 1,87,88
 1456 14 1456 14 1344 80 c 1,89,90
 1320 -90 1320 -90 1260 -204 c 0,91,92
 1196 -326 1196 -326 1068 -430 c 1,93,94
 1214 -492 1214 -492 1324 -492 c 0,95,96
 1416 -492 1416 -492 1482 -420 c 1,97,98
 1552 -356 1552 -356 1552 -254 c 0,85,86
1200 156 m 1,99,100
 1018 212 1018 212 790 212 c 0,101,102
 566 212 566 212 398 128 c 1,103,104
 572 -158 572 -158 948 -382 c 1,105,106
 1200 -154 1200 -154 1200 156 c 1,99,100
866 -448 m 1,107,108
 508 -266 508 -266 302 70 c 1,109,110
 168 -42 168 -42 168 -244 c 0,111,112
 168 -360 168 -360 266 -441 c 128,-1,113
 364 -522 364 -522 494 -522 c 0,114,115
 710 -522 710 -522 866 -448 c 1,107,108
EndSplineSet
EndChar

StartChar: tm_ii
Encoding: 2952 2952 53
Width: 1216
GlyphClass: 2
Flags: W
LayerCount: 2
Fore
SplineSet
1168 458 m 0,0,1
 1168 414 1168 414 1120 364 c 0,2,3
 1080 322 1080 322 1020 322 c 0,4,5
 962 322 962 322 923 361 c 128,-1,6
 884 400 884 400 884 458 c 0,7,8
 884 514 884 514 923 559 c 128,-1,9
 962 604 962 604 1020 604 c 0,10,11
 1076 604 1076 604 1122 560 c 128,-1,12
 1168 516 1168 516 1168 458 c 0,0,1
1186 682 m 1,13,-1
 1078 716 l 1,14,15
 1054 718 1054 718 1008 724 c 1,16,-1
 830 724 l 1,17,-1
 830 86 l 2,18,19
 830 64 830 64 890 56 c 1,20,-1
 890 0 l 1,21,-1
 618 0 l 1,22,-1
 618 56 l 1,23,24
 678 62 678 62 678 86 c 2,25,-1
 678 724 l 1,26,-1
 298 724 l 1,27,-1
 298 86 l 2,28,29
 298 64 298 64 358 56 c 1,30,-1
 358 0 l 1,31,-1
 86 0 l 1,32,-1
 86 56 l 1,33,34
 144 64 144 64 144 86 c 2,35,-1
 144 694 l 2,36,37
 144 738 144 738 96 800 c 1,38,-1
 1186 800 l 1,39,-1
 1186 682 l 1,13,-1
624 458 m 0,40,41
 624 408 624 408 581 365 c 128,-1,42
 538 322 538 322 478 322 c 0,43,44
 388 322 388 322 352 408 c 0,45,46
 340 432 340 432 340 458 c 0,47,48
 340 516 340 516 380 560 c 128,-1,49
 420 604 420 604 478 604 c 256,50,51
 536 604 536 604 580 562 c 128,-1,52
 624 520 624 520 624 458 c 0,40,41
EndSplineSet
EndChar

StartChar: tm_u
Encoding: 2953 2953 54
Width: 1750
GlyphClass: 2
Flags: W
LayerCount: 2
Fore
SplineSet
1736 0 m 1,0,-1
 284 0 l 2,1,2
 204 0 204 0 152 42 c 0,3,4
 94 90 94 90 94 156 c 0,5,6
 94 238 94 238 192 284 c 0,7,8
 270 320 270 320 362 320 c 2,9,-1
 540 320 l 2,10,11
 608 320 608 320 664 383 c 128,-1,12
 720 446 720 446 720 528 c 0,13,14
 720 646 720 646 586 696 c 0,15,16
 560 704 560 704 536 714 c 1,17,18
 490 724 490 724 440 724 c 1,19,-1
 444 736 l 1,20,21
 502 722 502 722 545 679 c 128,-1,22
 588 636 588 636 588 578 c 0,23,24
 588 490 588 490 494 436 c 0,25,26
 416 392 416 392 322 392 c 0,27,28
 230 392 230 392 154 438 c 0,29,30
 66 490 66 490 66 576 c 0,31,32
 66 702 66 702 210 764 c 0,33,34
 318 810 318 810 462 810 c 0,35,36
 630 810 630 810 750 752 c 0,37,38
 906 678 906 678 906 528 c 0,39,40
 906 406 906 406 801 321 c 128,-1,41
 696 236 696 236 550 236 c 2,42,-1
 382 236 l 2,43,44
 340 236 340 236 306 211 c 128,-1,45
 272 186 272 186 272 146 c 0,46,47
 272 126 272 126 302 96 c 1,48,49
 338 76 338 76 382 76 c 2,50,-1
 1736 76 l 1,51,-1
 1736 0 l 1,0,-1
412 578 m 0,52,53
 412 610 412 610 388 639 c 128,-1,54
 364 668 364 668 332 666 c 2,55,-1
 304 664 l 1,56,-1
 304 688 l 1,57,58
 276 688 276 688 258 644 c 0,59,60
 242 608 242 608 242 576 c 0,61,62
 242 532 242 532 266 498 c 1,63,64
 300 468 300 468 332 468 c 0,65,66
 368 468 368 468 390 504 c 128,-1,67
 412 540 412 540 412 578 c 0,52,53
EndSplineSet
EndChar

StartChar: tm_uu
Encoding: 2954 2954 55
Width: 2232
GlyphClass: 2
Flags: W
LayerCount: 2
Fore
SplineSet
2276 676 m 1,0,1
 2202 724 2202 724 2156 724 c 2,2,-1
 2078 724 l 1,3,-1
 2078 224 l 2,4,5
 2078 172 2078 172 2138 172 c 1,6,-1
 2138 118 l 1,7,-1
 1860 118 l 1,8,-1
 1860 172 l 1,9,10
 1920 172 1920 172 1920 224 c 2,11,-1
 1920 726 l 1,12,13
 1856 726 1856 726 1818 696 c 1,14,15
 1782 674 1782 674 1782 638 c 2,16,-1
 1782 224 l 2,17,18
 1782 172 1782 172 1840 172 c 1,19,-1
 1840 118 l 1,20,-1
 1564 118 l 1,21,-1
 1564 172 l 1,22,23
 1622 172 1622 172 1622 224 c 2,24,-1
 1622 536 l 2,25,26
 1622 620 1622 620 1542 666 c 1,27,28
 1466 724 1466 724 1356 724 c 0,29,30
 1268 724 1268 724 1208 686 c 0,31,32
 1198 682 1198 682 1176 636 c 1,33,-1
 1254 644 l 1,34,35
 1392 644 1392 644 1487 567 c 128,-1,36
 1582 490 1582 490 1582 380 c 0,37,38
 1582 272 1582 272 1487 195 c 128,-1,39
 1392 118 1392 118 1256 118 c 256,40,41
 1120 118 1120 118 1024 212 c 128,-1,42
 928 306 928 306 928 440 c 0,43,44
 928 600 928 600 1064 704 c 0,45,46
 1190 800 1190 800 1356 800 c 0,47,48
 1578 800 1578 800 1690 680 c 1,49,50
 1722 730 1722 730 1762 762 c 1,51,52
 1826 800 1826 800 1886 800 c 2,53,-1
 2276 800 l 1,54,-1
 2276 676 l 1,0,1
2196 0 m 1,55,-1
 284 0 l 2,56,57
 210 0 210 0 158 34 c 0,58,59
 96 76 96 76 96 146 c 0,60,61
 96 212 96 212 160 262 c 128,-1,62
 224 312 224 312 312 312 c 2,63,-1
 482 312 l 2,64,65
 582 312 582 312 656 375 c 128,-1,66
 730 438 730 438 730 536 c 0,67,68
 730 618 730 618 638 680 c 0,69,70
 570 726 570 726 464 726 c 2,71,-1
 446 726 l 1,72,-1
 446 736 l 1,73,74
 510 720 510 720 542 682 c 1,75,76
 590 636 590 636 590 578 c 0,77,78
 590 498 590 498 512 445 c 128,-1,79
 434 392 434 392 322 392 c 0,80,81
 230 392 230 392 154 436 c 0,82,83
 66 490 66 490 66 576 c 0,84,85
 66 702 66 702 210 764 c 0,86,87
 318 810 318 810 462 810 c 0,88,89
 630 810 630 810 750 756 c 0,90,91
 908 684 908 684 908 536 c 0,92,93
 908 398 908 398 799 312 c 128,-1,94
 690 226 690 226 550 226 c 2,95,-1
 384 226 l 2,96,97
 340 226 340 226 302 202 c 0,98,99
 274 180 274 180 274 146 c 0,100,101
 274 124 274 124 302 96 c 1,102,103
 338 76 338 76 384 76 c 2,104,-1
 2196 76 l 1,105,-1
 2196 0 l 1,55,-1
1404 380 m 0,106,107
 1404 450 1404 450 1364 509 c 128,-1,108
 1324 568 1324 568 1256 568 c 0,109,110
 1184 568 1184 568 1142 506 c 0,111,112
 1106 452 1106 452 1106 378 c 0,113,114
 1106 300 1106 300 1149 247 c 128,-1,115
 1192 194 1192 194 1256 194 c 256,116,117
 1320 194 1320 194 1362 249 c 128,-1,118
 1404 304 1404 304 1404 380 c 0,106,107
412 578 m 0,119,120
 412 612 412 612 389 640 c 128,-1,121
 366 668 366 668 332 666 c 2,122,-1
 304 664 l 1,123,-1
 304 688 l 1,124,125
 276 688 276 688 258 644 c 0,126,127
 244 610 244 610 244 576 c 0,128,129
 244 532 244 532 271 500 c 128,-1,130
 298 468 298 468 332 468 c 0,131,132
 360 468 360 468 388 496 c 1,133,134
 412 548 412 548 412 578 c 0,119,120
EndSplineSet
EndChar

StartChar: tm_e
Encoding: 2958 2958 56
Width: 1196
GlyphClass: 2
Flags: W
LayerCount: 2
Fore
SplineSet
1312 682 m 1,0,1
 1196 724 1196 724 1144 724 c 2,2,-1
 1056 724 l 1,3,-1
 1056 106 l 2,4,5
 1056 62 1056 62 1116 56 c 1,6,-1
 1116 0 l 1,7,-1
 840 0 l 1,8,-1
 840 56 l 1,9,10
 900 62 900 62 900 106 c 2,11,-1
 900 724 l 1,12,-1
 556 724 l 2,13,14
 422 724 422 724 348 650 c 2,15,-1
 328 630 l 1,16,-1
 350 594 l 1,17,18
 386 604 386 604 416 604 c 0,19,20
 550 604 550 604 646 514 c 128,-1,21
 742 424 742 424 742 302 c 0,22,23
 742 172 742 172 645 86 c 128,-1,24
 548 0 548 0 416 0 c 0,25,26
 274 0 274 0 180 112 c 0,27,28
 92 216 92 216 92 360 c 0,29,30
 92 540 92 540 214 670 c 128,-1,31
 336 800 336 800 514 800 c 2,32,-1
 1312 800 l 1,33,-1
 1312 682 l 1,0,1
566 302 m 0,34,35
 566 382 566 382 518 462 c 0,36,37
 478 528 478 528 416 528 c 0,38,39
 342 528 342 528 302 448 c 0,40,41
 268 382 268 382 268 302 c 0,42,43
 268 226 268 226 304 158 c 0,44,45
 346 76 346 76 416 76 c 0,46,47
 476 76 476 76 521 144 c 128,-1,48
 566 212 566 212 566 302 c 0,34,35
EndSplineSet
EndChar

StartChar: tm_ee
Encoding: 2959 2959 57
Width: 1116
GlyphClass: 2
Flags: W
LayerCount: 2
Fore
SplineSet
1244 680 m 1,0,1
 1122 724 1122 724 1076 724 c 2,2,-1
 988 724 l 1,3,-1
 988 74 l 1,4,-1
 586 -250 l 1,5,-1
 514 -178 l 1,6,-1
 832 80 l 1,7,-1
 832 724 l 1,8,-1
 488 724 l 2,9,10
 414 724 414 724 348 672 c 0,11,12
 322 652 322 652 290 582 c 1,13,14
 360 604 360 604 408 604 c 0,15,16
 536 604 536 604 634 516 c 128,-1,17
 732 428 732 428 732 302 c 0,18,19
 732 182 732 182 635 91 c 128,-1,20
 538 0 538 0 408 0 c 0,21,22
 282 0 282 0 188 108 c 128,-1,23
 94 216 94 216 94 360 c 0,24,25
 94 534 94 534 202 664 c 0,26,27
 318 800 318 800 488 800 c 2,28,-1
 1244 800 l 1,29,-1
 1244 680 l 1,0,1
556 302 m 0,30,31
 556 394 556 394 508 464 c 1,32,33
 474 528 474 528 408 528 c 0,34,35
 346 528 346 528 303 462 c 128,-1,36
 260 396 260 396 260 302 c 0,37,38
 260 222 260 222 294 156 c 0,39,40
 336 76 336 76 408 76 c 256,41,42
 480 76 480 76 522 158 c 0,43,44
 556 224 556 224 556 302 c 0,30,31
EndSplineSet
EndChar

StartChar: tm_ai
Encoding: 2960 2960 58
Width: 1470
GlyphClass: 2
Flags: W
LayerCount: 2
Fore
SplineSet
1378 -324 m 0,0,1
 1378 -440 1378 -440 1266 -514 c 0,2,3
 1166 -580 1166 -580 1044 -580 c 0,4,5
 890 -580 890 -580 788 -500 c 0,6,7
 764 -480 764 -480 738 -442 c 1,8,9
 694 -500 694 -500 628 -532 c 0,10,11
 528 -580 528 -580 422 -580 c 0,12,13
 258 -580 258 -580 172 -498 c 0,14,15
 78 -410 78 -410 78 -276 c 0,16,17
 78 -128 78 -128 185 -39 c 128,-1,18
 292 50 292 50 482 50 c 2,19,-1
 994 50 l 2,20,21
 1068 50 1068 50 1126 150 c 0,22,23
 1182 244 1182 244 1182 396 c 0,24,25
 1182 530 1182 530 1134 620 c 1,26,27
 1094 714 1094 714 1032 714 c 0,28,29
 988 714 988 714 954 674 c 0,30,31
 924 644 924 644 924 586 c 2,32,-1
 924 220 l 2,33,34
 924 168 924 168 984 168 c 1,35,-1
 984 110 l 1,36,-1
 710 110 l 1,37,-1
 710 168 l 1,38,39
 770 168 770 168 770 220 c 2,40,-1
 770 550 l 1,41,42
 748 628 748 628 670 672 c 1,43,44
 600 722 600 722 502 722 c 0,45,46
 408 722 408 722 346 686 c 1,47,-1
 328 672 l 1,48,-1
 344 636 l 1,49,-1
 402 642 l 1,50,51
 536 642 536 642 632 566 c 128,-1,52
 728 490 728 490 728 376 c 0,53,54
 728 260 728 260 620 182 c 0,55,56
 522 110 522 110 402 110 c 0,57,58
 270 110 270 110 174 198 c 128,-1,59
 78 286 78 286 78 416 c 0,60,61
 78 594 78 594 202 700 c 0,62,63
 320 800 320 800 502 800 c 0,64,65
 716 800 716 800 834 670 c 1,66,67
 928 800 928 800 1062 800 c 0,68,69
 1218 800 1218 800 1304 670 c 0,70,71
 1378 560 1378 560 1378 396 c 0,72,73
 1378 228 1378 228 1272 104 c 0,74,75
 1160 -28 1160 -28 994 -28 c 2,76,-1
 482 -28 l 2,77,78
 382 -28 382 -28 318 -102 c 128,-1,79
 254 -176 254 -176 254 -276 c 0,80,81
 254 -366 254 -366 314 -435 c 128,-1,82
 374 -504 374 -504 462 -504 c 0,83,84
 542 -504 542 -504 601 -442 c 128,-1,85
 660 -380 660 -380 660 -294 c 0,86,87
 660 -244 660 -244 592 -244 c 1,88,-1
 592 -186 l 1,89,-1
 884 -186 l 1,90,-1
 884 -244 l 1,91,92
 850 -244 850 -244 832 -258 c 0,93,94
 828 -262 828 -262 816 -298 c 1,95,96
 816 -376 816 -376 870 -442 c 1,97,98
 932 -504 932 -504 1014 -504 c 0,99,100
 1088 -504 1088 -504 1145 -451 c 128,-1,101
 1202 -398 1202 -398 1202 -324 c 0,102,103
 1202 -262 1202 -262 1170 -210 c 0,104,105
 1148 -174 1148 -174 1082 -166 c 1,106,-1
 1082 -98 l 1,107,-1
 1162 -98 l 2,108,109
 1252 -98 1252 -98 1315 -163 c 128,-1,110
 1378 -228 1378 -228 1378 -324 c 0,0,1
550 376 m 0,111,112
 550 446 550 446 512 502 c 0,113,114
 468 566 468 566 402 566 c 0,115,116
 304 566 304 566 266 448 c 0,117,118
 254 414 254 414 254 374 c 0,119,120
 254 302 254 302 294 244 c 1,121,122
 344 188 344 188 402 188 c 0,123,124
 464 188 464 188 507 243 c 128,-1,125
 550 298 550 298 550 376 c 0,111,112
EndSplineSet
EndChar

StartChar: tm_o
Encoding: 2962 2962 59
Width: 1406
GlyphClass: 2
Flags: W
LayerCount: 2
Fore
SplineSet
1322 368 m 0,0,1
 1322 212 1322 212 1217 102 c 128,-1,2
 1112 -8 1112 -8 958 -8 c 0,3,4
 952 -8 952 -8 866 16 c 1,5,-1
 926 -66 l 1,6,7
 966 -108 966 -108 1026 -108 c 2,8,-1
 1254 -108 l 1,9,-1
 1254 -212 l 1,10,11
 1202 -186 1202 -186 1180 -186 c 0,12,13
 1088 -186 1088 -186 1016 -312 c 0,14,15
 936 -452 936 -452 812 -524 c 0,16,17
 678 -600 678 -600 516 -600 c 0,18,19
 386 -600 386 -600 276 -542 c 0,20,21
 142 -472 142 -472 142 -354 c 0,22,23
 142 -240 142 -240 234 -170 c 0,24,25
 318 -108 318 -108 436 -108 c 2,26,-1
 602 -108 l 1,27,-1
 602 -224 l 1,28,29
 538 -186 538 -186 474 -186 c 0,30,31
 402 -186 402 -186 354 -234 c 128,-1,32
 306 -282 306 -282 306 -356 c 0,33,34
 306 -420 306 -420 364 -468 c 0,35,36
 430 -522 430 -522 516 -522 c 256,37,38
 602 -522 602 -522 688 -468 c 128,-1,39
 774 -414 774 -414 824 -328 c 0,40,41
 868 -252 868 -252 948 -188 c 1,42,43
 844 -148 844 -148 792 -86 c 0,44,45
 712 10 712 10 712 138 c 0,46,47
 712 274 712 274 780 390 c 0,48,49
 860 524 860 524 988 524 c 2,50,-1
 1056 524 l 1,51,-1
 1056 448 l 1,52,53
 976 442 976 442 930 364 c 0,54,55
 878 276 878 276 878 160 c 2,56,-1
 878 104 l 1,57,58
 910 72 910 72 948 68 c 1,59,60
 1038 68 1038 68 1098 178 c 0,61,62
 1146 270 1146 270 1146 368 c 0,63,64
 1146 510 1146 510 1012 617 c 128,-1,65
 878 724 878 724 692 724 c 0,66,67
 624 724 624 724 562 710 c 0,68,69
 480 692 480 692 440 670 c 2,70,-1
 384 640 l 1,71,-1
 394 602 l 1,72,-1
 416 602 l 2,73,74
 546 602 546 602 638 512 c 128,-1,75
 730 422 730 422 730 298 c 0,76,77
 730 170 730 170 637 81 c 128,-1,78
 544 -8 544 -8 416 -8 c 0,79,80
 250 -8 250 -8 152 144 c 0,81,82
 134 170 134 170 114 208 c 1,83,84
 92 274 92 274 92 346 c 0,85,86
 92 582 92 582 286 710 c 0,87,88
 454 820 454 820 702 820 c 0,89,90
 924 820 924 820 1108 708 c 0,91,92
 1322 578 1322 578 1322 368 c 0,0,1
566 298 m 0,93,94
 566 382 566 382 520 458 c 0,95,96
 478 526 478 526 416 526 c 0,97,98
 342 526 342 526 302 444 c 0,99,100
 268 378 268 378 268 298 c 0,101,102
 268 202 268 202 311 135 c 128,-1,103
 354 68 354 68 416 68 c 0,104,105
 470 68 470 68 520 134 c 1,106,107
 566 216 566 216 566 298 c 0,93,94
EndSplineSet
EndChar

StartChar: tm_oo
Encoding: 2963 2963 60
Width: 1360
GlyphClass: 2
Flags: W
LayerCount: 2
Fore
SplineSet
1272 396 m 0,0,1
 1272 244 1272 244 1186 126 c 0,2,3
 1092 -8 1092 -8 946 -8 c 0,4,5
 932 -8 932 -8 852 14 c 1,6,7
 872 -18 872 -18 908 -68 c 1,8,9
 946 -108 946 -108 1008 -108 c 2,10,-1
 1232 -108 l 1,11,-1
 1232 -210 l 1,12,13
 1184 -186 1184 -186 1158 -186 c 0,14,15
 1066 -186 1066 -186 996 -312 c 0,16,17
 920 -452 920 -452 790 -524 c 0,18,19
 652 -600 652 -600 496 -600 c 0,20,21
 344 -600 344 -600 238 -530 c 128,-1,22
 132 -460 132 -460 132 -356 c 0,23,24
 132 -250 132 -250 231 -179 c 128,-1,25
 330 -108 330 -108 474 -108 c 0,26,27
 580 -108 580 -108 660 -162 c 128,-1,28
 740 -216 740 -216 740 -294 c 0,29,30
 740 -358 740 -358 678 -410 c 128,-1,31
 616 -462 616 -462 536 -462 c 2,32,-1
 428 -462 l 1,33,-1
 428 -336 l 1,34,35
 456 -358 456 -358 516 -384 c 1,36,37
 552 -384 552 -384 578 -358 c 128,-1,38
 604 -332 604 -332 604 -296 c 0,39,40
 604 -256 604 -256 564 -218 c 0,41,42
 532 -186 532 -186 472 -186 c 0,43,44
 394 -186 394 -186 340 -234 c 128,-1,45
 286 -282 286 -282 286 -358 c 0,46,47
 286 -420 286 -420 344 -468 c 0,48,49
 410 -522 410 -522 496 -522 c 0,50,51
 698 -522 698 -522 802 -348 c 0,52,53
 822 -314 822 -314 844 -286 c 0,54,55
 884 -234 884 -234 952 -184 c 1,56,57
 848 -158 848 -158 786 -90 c 0,58,59
 702 2 702 2 702 140 c 0,60,61
 702 292 702 292 782 408 c 128,-1,62
 862 524 862 524 968 524 c 2,63,-1
 1094 524 l 1,64,-1
 1094 418 l 1,65,66
 1058 442 1058 442 1026 446 c 1,67,68
 956 446 956 446 910 364 c 0,69,70
 858 272 858 272 858 160 c 2,71,-1
 858 104 l 1,72,73
 892 70 892 70 928 70 c 0,74,75
 1006 70 1006 70 1064 164 c 0,76,77
 1128 268 1128 268 1128 396 c 256,78,79
 1128 524 1128 524 1054 618 c 0,80,81
 974 722 974 722 850 722 c 2,82,-1
 536 722 l 2,83,84
 422 722 422 722 330 630 c 1,85,-1
 350 594 l 1,86,87
 380 602 380 602 418 602 c 0,88,89
 542 602 542 602 622 504 c 0,90,91
 690 422 690 422 690 316 c 0,92,93
 690 184 690 184 607 88 c 128,-1,94
 524 -8 524 -8 418 -8 c 0,95,96
 274 -8 274 -8 180 104 c 0,97,98
 92 210 92 210 92 358 c 0,99,100
 92 542 92 542 222 671 c 128,-1,101
 352 800 352 800 536 800 c 2,102,-1
 850 800 l 2,103,104
 1022 800 1022 800 1147 685 c 128,-1,105
 1272 570 1272 570 1272 396 c 0,0,1
546 316 m 0,106,107
 546 380 546 380 514 446 c 0,108,109
 476 526 476 526 418 526 c 0,110,111
 344 526 344 526 296 472 c 128,-1,112
 248 418 248 418 248 334 c 0,113,114
 248 238 248 238 286 164 c 0,115,116
 332 70 332 70 418 70 c 0,117,118
 466 70 466 70 506 140 c 128,-1,119
 546 210 546 210 546 316 c 0,106,107
EndSplineSet
EndChar

StartChar: tm_au
Encoding: 2964 2964 61
Width: 2836
GlyphClass: 2
Flags: W
LayerCount: 2
Fore
SplineSet
2802 678 m 1,0,1
 2714 724 2714 724 2636 724 c 2,2,-1
 2594 724 l 1,3,-1
 2594 106 l 2,4,5
 2594 62 2594 62 2654 56 c 1,6,-1
 2654 0 l 1,7,-1
 2380 0 l 1,8,-1
 2380 56 l 1,9,10
 2438 62 2438 62 2438 106 c 2,11,-1
 2438 724 l 1,12,-1
 2240 724 l 1,13,-1
 2240 106 l 2,14,15
 2240 62 2240 62 2298 56 c 1,16,-1
 2298 0 l 1,17,-1
 2024 0 l 1,18,-1
 2024 56 l 1,19,20
 2084 62 2084 62 2084 106 c 2,21,-1
 2082 536 l 1,22,23
 2056 620 2056 620 1972 672 c 128,-1,24
 1888 724 1888 724 1796 724 c 0,25,26
 1698 724 1698 724 1620 632 c 0,27,28
 1598 606 1598 606 1572 570 c 1,29,30
 1668 604 1668 604 1718 604 c 0,31,32
 1852 604 1852 604 1947 515 c 128,-1,33
 2042 426 2042 426 2042 302 c 0,34,35
 2042 172 2042 172 1946 86 c 128,-1,36
 1850 0 1850 0 1718 0 c 0,37,38
 1584 0 1584 0 1488 100 c 128,-1,39
 1392 200 1392 200 1392 342 c 0,40,41
 1392 520 1392 520 1504 656 c 0,42,43
 1622 800 1622 800 1796 800 c 0,44,45
 1954 800 1954 800 2084 712 c 1,46,-1
 2084 800 l 1,47,-1
 2802 800 l 1,48,-1
 2802 678 l 1,0,1
1322 368 m 0,49,50
 1322 212 1322 212 1217 102 c 128,-1,51
 1112 -8 1112 -8 958 -8 c 0,52,53
 952 -8 952 -8 866 16 c 1,54,-1
 926 -66 l 1,55,56
 966 -108 966 -108 1026 -108 c 2,57,-1
 1254 -108 l 1,58,-1
 1254 -212 l 1,59,60
 1202 -186 1202 -186 1180 -186 c 0,61,62
 1088 -186 1088 -186 1016 -312 c 0,63,64
 936 -452 936 -452 812 -524 c 0,65,66
 678 -600 678 -600 516 -600 c 0,67,68
 386 -600 386 -600 276 -542 c 0,69,70
 142 -472 142 -472 142 -354 c 0,71,72
 142 -240 142 -240 234 -170 c 0,73,74
 318 -108 318 -108 436 -108 c 2,75,-1
 602 -108 l 1,76,-1
 602 -224 l 1,77,78
 538 -186 538 -186 474 -186 c 0,79,80
 402 -186 402 -186 354 -234 c 128,-1,81
 306 -282 306 -282 306 -356 c 0,82,83
 306 -420 306 -420 364 -468 c 0,84,85
 430 -522 430 -522 516 -522 c 256,86,87
 602 -522 602 -522 688 -468 c 128,-1,88
 774 -414 774 -414 824 -328 c 0,89,90
 868 -252 868 -252 948 -188 c 1,91,92
 844 -148 844 -148 792 -86 c 0,93,94
 712 10 712 10 712 138 c 0,95,96
 712 274 712 274 780 390 c 0,97,98
 860 524 860 524 988 524 c 2,99,-1
 1056 524 l 1,100,-1
 1056 448 l 1,101,102
 976 442 976 442 930 364 c 0,103,104
 878 276 878 276 878 160 c 2,105,-1
 878 104 l 1,106,107
 910 72 910 72 948 68 c 1,108,109
 1038 68 1038 68 1098 178 c 0,110,111
 1146 270 1146 270 1146 368 c 0,112,113
 1146 510 1146 510 1012 617 c 128,-1,114
 878 724 878 724 692 724 c 0,115,116
 624 724 624 724 562 710 c 0,117,118
 480 692 480 692 440 670 c 2,119,-1
 384 640 l 1,120,-1
 394 602 l 1,121,-1
 416 602 l 2,122,123
 546 602 546 602 638 512 c 128,-1,124
 730 422 730 422 730 298 c 0,125,126
 730 170 730 170 637 81 c 128,-1,127
 544 -8 544 -8 416 -8 c 0,128,129
 250 -8 250 -8 152 144 c 0,130,131
 134 170 134 170 114 208 c 1,132,133
 92 274 92 274 92 346 c 0,134,135
 92 582 92 582 286 710 c 0,136,137
 454 820 454 820 702 820 c 0,138,139
 924 820 924 820 1108 708 c 0,140,141
 1322 578 1322 578 1322 368 c 0,49,50
1866 302 m 256,142,143
 1866 392 1866 392 1810 476 c 0,144,145
 1776 528 1776 528 1718 528 c 0,146,147
 1644 528 1644 528 1604 448 c 0,148,149
 1570 382 1570 382 1570 302 c 256,150,151
 1570 222 1570 222 1604 156 c 0,152,153
 1646 76 1646 76 1718 76 c 0,154,155
 1778 76 1778 76 1822 144 c 128,-1,156
 1866 212 1866 212 1866 302 c 256,142,143
566 298 m 0,157,158
 566 382 566 382 520 458 c 0,159,160
 478 526 478 526 416 526 c 0,161,162
 342 526 342 526 302 444 c 0,163,164
 268 378 268 378 268 298 c 0,165,166
 268 202 268 202 311 135 c 128,-1,167
 354 68 354 68 416 68 c 0,168,169
 470 68 470 68 520 134 c 1,170,171
 566 216 566 216 566 298 c 0,157,158
EndSplineSet
EndChar

StartChar: tm_ka
Encoding: 2965 2965 62
Width: 1208
GlyphClass: 2
Flags: W
LayerCount: 2
Fore
SplineSet
1138 264 m 0,0,1
 1138 152 1138 152 1062 76 c 128,-1,2
 986 0 986 0 874 0 c 2,3,-1
 708 0 l 1,4,-1
 708 108 l 1,5,6
 758 76 758 76 796 76 c 0,7,8
 862 76 862 76 912 128 c 0,9,10
 934 156 934 156 942 172 c 0,11,12
 964 214 964 214 964 264 c 0,13,14
 964 340 964 340 917 395 c 128,-1,15
 870 450 870 450 796 450 c 2,16,-1
 706 450 l 1,17,-1
 706 204 l 2,18,19
 706 114 706 114 618 54 c 0,20,21
 540 0 540 0 402 0 c 0,22,23
 256 0 256 0 167 72 c 128,-1,24
 78 144 78 144 78 264 c 0,25,26
 78 352 78 352 128 432 c 1,27,28
 174 492 174 492 254 514 c 1,29,-1
 254 800 l 1,30,-1
 990 800 l 1,31,-1
 990 676 l 1,32,33
 922 724 922 724 862 724 c 2,34,-1
 706 724 l 1,35,-1
 706 526 l 1,36,-1
 874 526 l 2,37,38
 1050 526 1050 526 1118 366 c 0,39,40
 1138 318 1138 318 1138 264 c 0,0,1
550 526 m 1,41,-1
 550 724 l 1,42,-1
 410 724 l 1,43,-1
 410 526 l 1,44,-1
 550 526 l 1,41,-1
550 204 m 2,45,-1
 550 450 l 1,46,-1
 402 450 l 2,47,48
 334 450 334 450 296 396 c 0,49,50
 252 334 252 334 252 262 c 0,51,52
 252 188 252 188 290 136 c 0,53,54
 332 76 332 76 402 76 c 0,55,56
 464 76 464 76 507 112 c 128,-1,57
 550 148 550 148 550 204 c 2,45,-1
EndSplineSet
EndChar

StartChar: tm_nga
Encoding: 2969 2969 63
Width: 1508
GlyphClass: 2
Flags: W
LayerCount: 2
Fore
SplineSet
1426 0 m 1,0,-1
 440 0 l 1,1,-1
 440 114 l 1,2,3
 504 76 504 76 568 76 c 2,4,-1
 726 76 l 2,5,6
 804 76 804 76 860 150 c 128,-1,7
 916 224 916 224 916 322 c 0,8,9
 916 390 916 390 870 456 c 1,10,11
 820 510 820 510 766 510 c 256,12,13
 712 510 712 510 654 454 c 1,14,-1
 654 282 l 2,15,16
 654 252 654 252 716 252 c 1,17,-1
 716 196 l 1,18,-1
 440 196 l 1,19,-1
 440 252 l 1,20,21
 500 252 500 252 500 282 c 2,22,-1
 500 724 l 1,23,-1
 300 724 l 1,24,-1
 300 86 l 2,25,26
 300 64 300 64 358 56 c 1,27,-1
 358 0 l 1,28,-1
 86 0 l 1,29,-1
 86 56 l 1,30,31
 144 64 144 64 144 86 c 2,32,-1
 144 694 l 2,33,34
 144 738 144 738 96 800 c 1,35,-1
 852 800 l 1,36,-1
 852 676 l 1,37,38
 770 724 770 724 686 724 c 2,39,-1
 654 724 l 1,40,-1
 654 566 l 1,41,42
 744 604 744 604 824 604 c 0,43,44
 940 604 940 604 1015 522 c 128,-1,45
 1090 440 1090 440 1090 322 c 0,46,47
 1090 228 1090 228 1046 160 c 0,48,49
 1042 154 1042 154 1024 132 c 128,-1,50
 1006 110 1006 110 960 76 c 1,51,-1
 1212 76 l 1,52,-1
 1212 694 l 2,53,54
 1212 738 1212 738 1150 744 c 1,55,-1
 1150 800 l 1,56,-1
 1426 800 l 1,57,-1
 1426 744 l 1,58,59
 1368 738 1368 738 1368 694 c 2,60,-1
 1368 86 l 2,61,62
 1368 62 1368 62 1426 56 c 1,63,-1
 1426 0 l 1,0,-1
EndSplineSet
EndChar

StartChar: tm_ca
Encoding: 2970 2970 64
Width: 1044
GlyphClass: 2
Flags: W
LayerCount: 2
Fore
SplineSet
1020 400 m 1,0,1
 944 450 944 450 892 450 c 2,2,-1
 706 450 l 1,3,-1
 706 204 l 2,4,5
 706 126 706 126 617 63 c 128,-1,6
 528 0 528 0 402 0 c 0,7,8
 270 0 270 0 180 64 c 0,9,10
 80 138 80 138 80 264 c 0,11,12
 80 368 80 368 132 436 c 1,13,14
 158 480 158 480 188 494 c 1,15,16
 206 508 206 508 258 516 c 1,17,-1
 258 800 l 1,18,-1
 962 800 l 1,19,-1
 962 676 l 1,20,21
 892 724 892 724 842 724 c 2,22,-1
 706 724 l 1,23,-1
 706 526 l 1,24,-1
 1020 526 l 1,25,-1
 1020 400 l 1,0,1
552 526 m 1,26,-1
 552 724 l 1,27,-1
 412 724 l 1,28,-1
 412 526 l 1,29,-1
 552 526 l 1,26,-1
552 204 m 2,30,-1
 552 450 l 1,31,-1
 402 450 l 2,32,33
 336 450 336 450 298 396 c 0,34,35
 254 334 254 334 254 262 c 256,36,37
 254 190 254 190 290 136 c 0,38,39
 332 76 332 76 402 76 c 0,40,41
 466 76 466 76 509 112 c 128,-1,42
 552 148 552 148 552 204 c 2,30,-1
EndSplineSet
EndChar

StartChar: tm_ja
Encoding: 2972 2972 65
Width: 1476
GlyphClass: 2
Flags: W
LayerCount: 2
Fore
SplineSet
1388 396 m 0,0,1
 1388 228 1388 228 1274 100 c 128,-1,2
 1160 -28 1160 -28 994 -28 c 2,3,-1
 442 -28 l 2,4,5
 358 -28 358 -28 306 -90 c 128,-1,6
 254 -152 254 -152 254 -236 c 0,7,8
 254 -314 254 -314 316 -374 c 128,-1,9
 378 -434 378 -434 462 -434 c 0,10,11
 632 -434 632 -434 760 -286 c 0,12,13
 912 -108 912 -108 1082 -108 c 0,14,15
 1174 -108 1174 -108 1250 -158 c 0,16,17
 1338 -214 1338 -214 1338 -302 c 0,18,19
 1338 -382 1338 -382 1265 -441 c 128,-1,20
 1192 -500 1192 -500 1092 -500 c 0,21,22
 958 -500 958 -500 908 -382 c 1,23,-1
 1004 -306 l 1,24,25
 1004 -362 1004 -362 1026 -380 c 0,26,27
 1060 -402 1060 -402 1096 -402 c 0,28,29
 1130 -402 1130 -402 1158 -332 c 0,30,31
 1164 -314 1164 -314 1164 -292 c 0,32,33
 1164 -258 1164 -258 1134 -232 c 1,34,35
 1118 -204 1118 -204 1070 -204 c 0,36,37
 938 -204 938 -204 824 -340 c 0,38,39
 674 -520 674 -520 374 -520 c 0,40,41
 248 -520 248 -520 163 -437 c 128,-1,42
 78 -354 78 -354 78 -236 c 0,43,44
 78 -114 78 -114 165 -31 c 128,-1,45
 252 52 252 52 374 52 c 2,46,-1
 994 52 l 2,47,48
 1098 52 1098 52 1156 180 c 0,49,50
 1202 280 1202 280 1202 396 c 0,51,52
 1202 522 1202 522 1154 626 c 0,53,54
 1110 724 1110 724 1054 724 c 0,55,56
 1006 724 1006 724 960 676 c 1,57,58
 924 630 924 630 924 554 c 2,59,-1
 924 218 l 2,60,61
 924 168 924 168 984 168 c 1,62,-1
 984 112 l 1,63,-1
 710 112 l 1,64,-1
 710 168 l 1,65,66
 770 168 770 168 770 218 c 2,67,-1
 770 554 l 2,68,69
 770 620 770 620 689 672 c 128,-1,70
 608 724 608 724 500 724 c 0,71,72
 418 724 418 724 354 680 c 0,73,74
 344 676 344 676 334 668 c 2,75,-1
 286 620 l 1,76,77
 368 642 368 642 400 642 c 0,78,79
 534 642 534 642 631 565 c 128,-1,80
 728 488 728 488 728 388 c 0,81,82
 728 266 728 266 624 186 c 0,83,84
 528 112 528 112 402 112 c 0,85,86
 268 112 268 112 173 206 c 128,-1,87
 78 300 78 300 78 434 c 0,88,89
 78 592 78 592 192 696 c 128,-1,90
 306 800 306 800 500 800 c 0,91,92
 722 800 722 800 846 668 c 1,93,94
 936 800 936 800 1072 800 c 0,95,96
 1218 800 1218 800 1308 666 c 0,97,98
 1388 550 1388 550 1388 396 c 0,0,1
550 388 m 0,99,100
 550 456 550 456 508 510 c 128,-1,101
 466 564 466 564 400 564 c 0,102,103
 340 564 340 564 297 511 c 128,-1,104
 254 458 254 458 254 376 c 0,105,106
 254 302 254 302 294 244 c 1,107,108
 344 188 344 188 402 188 c 0,109,110
 440 188 440 188 468 210 c 0,111,112
 476 216 476 216 506 246 c 1,113,114
 550 304 550 304 550 388 c 0,99,100
EndSplineSet
EndChar

StartChar: tm_nya
Encoding: 2974 2974 66
Width: 1872
GlyphClass: 2
Flags: W
LayerCount: 2
Fore
SplineSet
1786 210 m 0,0,1
 1786 -86 1786 -86 1518 -282 c 0,2,3
 1274 -460 1274 -460 966 -460 c 0,4,5
 608 -460 608 -460 357 -243 c 128,-1,6
 106 -26 106 -26 106 276 c 0,7,8
 106 480 106 480 206 618 c 128,-1,9
 306 756 306 756 480 800 c 1,10,-1
 480 724 l 1,11,12
 282 622 282 622 282 276 c 0,13,14
 282 0 282 0 485 -192 c 128,-1,15
 688 -384 688 -384 966 -384 c 0,16,17
 1220 -384 1220 -384 1415 -213 c 128,-1,18
 1610 -42 1610 -42 1610 208 c 0,19,20
 1610 290 1610 290 1566 358 c 0,21,22
 1518 436 1518 436 1440 436 c 0,23,24
 1376 436 1376 436 1310 372 c 1,25,-1
 1310 100 l 2,26,27
 1310 50 1310 50 1370 50 c 1,28,-1
 1370 -8 l 1,29,-1
 1096 -8 l 1,30,-1
 1096 50 l 1,31,32
 1154 50 1154 50 1154 100 c 2,33,-1
 1154 722 l 1,34,-1
 848 722 l 2,35,36
 776 722 776 722 708 670 c 0,37,38
 696 660 696 660 678 642 c 2,39,-1
 612 574 l 1,40,41
 724 600 724 600 768 600 c 0,42,43
 900 600 900 600 997 514 c 128,-1,44
 1094 428 1094 428 1094 298 c 0,45,46
 1094 166 1094 166 998 79 c 128,-1,47
 902 -8 902 -8 768 -8 c 0,48,49
 640 -8 640 -8 542 92 c 0,50,51
 452 182 452 182 452 338 c 0,52,53
 452 556 452 556 559 677 c 128,-1,54
 666 798 666 798 848 798 c 2,55,-1
 1568 798 l 1,56,-1
 1568 672 l 1,57,58
 1492 722 1492 722 1400 722 c 2,59,-1
 1310 722 l 1,60,-1
 1310 484 l 1,61,62
 1406 532 1406 532 1480 532 c 0,63,64
 1606 532 1606 532 1696 437 c 128,-1,65
 1786 342 1786 342 1786 210 c 0,0,1
918 298 m 0,66,67
 918 380 918 380 872 458 c 0,68,69
 834 524 834 524 768 524 c 0,70,71
 706 524 706 524 664 460 c 0,72,73
 618 390 618 390 618 298 c 0,74,75
 618 220 618 220 654 152 c 0,76,77
 696 70 696 70 768 70 c 0,78,79
 826 70 826 70 872 136 c 1,80,81
 918 218 918 218 918 298 c 0,66,67
EndSplineSet
EndChar

StartChar: tm_tta
Encoding: 2975 2975 67
Width: 1434
GlyphClass: 2
Flags: W
LayerCount: 2
Fore
SplineSet
1406 0 m 1,0,-1
 146 0 l 1,1,-1
 146 714 l 2,2,3
 146 736 146 736 86 744 c 1,4,-1
 86 800 l 1,5,-1
 360 800 l 1,6,-1
 360 744 l 1,7,8
 300 738 300 738 300 714 c 2,9,-1
 300 76 l 1,10,-1
 1260 76 l 2,11,12
 1322 76 1322 76 1406 134 c 1,13,-1
 1406 0 l 1,0,-1
EndSplineSet
EndChar

StartChar: tm_nna
Encoding: 2979 2979 68
Width: 2280
GlyphClass: 2
Flags: W
LayerCount: 2
Fore
SplineSet
2334 702 m 1,0,1
 2262 724 2262 724 2164 724 c 2,2,-1
 2136 724 l 1,3,-1
 2136 86 l 2,4,5
 2136 64 2136 64 2196 56 c 1,6,-1
 2196 0 l 1,7,-1
 1918 0 l 1,8,-1
 1918 56 l 1,9,10
 1978 62 1978 62 1978 86 c 2,11,-1
 1978 724 l 1,12,-1
 1854 724 l 2,13,14
 1756 724 1756 724 1674 694 c 1,15,16
 1782 616 1782 616 1830 528 c 0,17,18
 1892 412 1892 412 1892 302 c 0,19,20
 1892 176 1892 176 1796 88 c 128,-1,21
 1700 0 1700 0 1574 0 c 0,22,23
 1418 0 1418 0 1336 102 c 0,24,25
 1314 128 1314 128 1288 174 c 1,26,27
 1224 90 1224 90 1180 58 c 0,28,29
 1102 0 1102 0 990 0 c 0,30,31
 886 0 886 0 810 50 c 0,32,33
 782 68 782 68 760 92 c 0,34,35
 730 122 730 122 708 166 c 1,36,37
 652 88 652 88 598 52 c 0,38,39
 516 0 516 0 416 0 c 0,40,41
 272 0 272 0 185 91 c 128,-1,42
 98 182 98 182 98 340 c 0,43,44
 98 570 98 570 270 696 c 0,45,46
 424 810 424 810 662 810 c 0,47,48
 868 810 868 810 990 742 c 1,49,50
 1122 810 1122 810 1288 810 c 0,51,52
 1392 810 1392 810 1572 744 c 1,53,54
 1692 800 1692 800 1862 800 c 2,55,-1
 2334 800 l 1,56,-1
 2334 702 l 1,0,1
1714 302 m 0,57,58
 1714 508 1714 508 1576 646 c 1,59,60
 1436 514 1436 514 1436 302 c 0,61,62
 1436 224 1436 224 1466 160 c 0,63,64
 1506 76 1506 76 1574 76 c 0,65,66
 1628 76 1628 76 1670 140 c 1,67,68
 1714 224 1714 224 1714 302 c 0,57,58
1492 696 m 1,69,70
 1400 724 1400 724 1288 724 c 0,71,72
 1182 724 1182 724 1088 698 c 1,73,74
 1216 596 1216 596 1286 438 c 1,75,76
 1352 586 1352 586 1492 696 c 1,69,70
1128 302 m 0,77,78
 1128 510 1128 510 992 646 c 1,79,80
 852 514 852 514 852 302 c 0,81,82
 852 222 852 222 882 158 c 0,83,84
 920 76 920 76 990 76 c 0,85,86
 1038 76 1038 76 1086 140 c 1,87,88
 1128 218 1128 218 1128 302 c 0,77,78
896 696 m 1,89,90
 794 724 794 724 662 724 c 0,91,92
 504 724 504 724 428 678 c 2,93,-1
 362 638 l 1,94,-1
 382 600 l 1,95,-1
 414 604 l 1,96,97
 552 604 552 604 646 514 c 0,98,99
 672 488 672 488 704 446 c 1,100,101
 768 598 768 598 896 696 c 1,89,90
564 302 m 0,102,103
 564 386 564 386 516 462 c 1,104,105
 482 528 482 528 416 528 c 0,106,107
 352 528 352 528 310 462 c 0,108,109
 264 390 264 390 264 302 c 0,110,111
 264 222 264 222 300 156 c 0,112,113
 344 76 344 76 416 76 c 0,114,115
 512 76 512 76 552 214 c 0,116,117
 564 254 564 254 564 302 c 0,102,103
EndSplineSet
EndChar

StartChar: tm_ta
Encoding: 2980 2980 69
Width: 1178
GlyphClass: 2
Flags: W
LayerCount: 2
Fore
SplineSet
1098 200 m 0,0,1
 1098 22 1098 22 954 -100 c 0,2,3
 818 -214 818 -214 636 -214 c 2,4,-1
 262 -214 l 2,5,6
 232 -214 232 -214 213 -229 c 128,-1,7
 194 -244 194 -244 194 -274 c 0,8,9
 194 -324 194 -324 270 -344 c 1,10,-1
 270 -410 l 1,11,-1
 184 -410 l 2,12,13
 134 -410 134 -410 86 -370 c 128,-1,14
 38 -330 38 -330 38 -274 c 256,15,16
 38 -218 38 -218 82 -177 c 128,-1,17
 126 -136 126 -136 182 -136 c 2,18,-1
 636 -136 l 2,19,20
 748 -136 748 -136 836 -38 c 0,21,22
 876 8 876 8 900 71 c 128,-1,23
 924 134 924 134 924 202 c 0,24,25
 924 288 924 288 874 362 c 0,26,27
 816 446 816 446 734 446 c 2,28,-1
 706 446 l 1,29,-1
 706 250 l 2,30,31
 706 126 706 126 617 56 c 128,-1,32
 528 -14 528 -14 402 -14 c 0,33,34
 252 -14 252 -14 165 57 c 128,-1,35
 78 128 78 128 78 258 c 0,36,37
 78 464 78 464 254 512 c 1,38,-1
 254 800 l 1,39,-1
 970 800 l 1,40,-1
 970 678 l 1,41,42
 874 724 874 724 812 724 c 2,43,-1
 706 724 l 1,44,-1
 706 524 l 1,45,-1
 784 524 l 2,46,47
 912 524 912 524 1005 427 c 128,-1,48
 1098 330 1098 330 1098 200 c 0,0,1
550 524 m 1,49,-1
 550 724 l 1,50,-1
 410 724 l 1,51,-1
 410 524 l 1,52,-1
 550 524 l 1,49,-1
550 230 m 2,53,-1
 550 446 l 1,54,-1
 402 446 l 2,55,56
 334 446 334 446 290 384 c 0,57,58
 252 330 252 330 252 258 c 256,59,60
 252 186 252 186 290 128 c 0,61,62
 332 62 332 62 400 62 c 0,63,64
 462 62 462 62 506 110 c 128,-1,65
 550 158 550 158 550 230 c 2,53,-1
EndSplineSet
EndChar

StartChar: tm_na
Encoding: 2984 2984 70
Width: 1188
GlyphClass: 2
Flags: W
LayerCount: 2
Fore
SplineSet
1106 180 m 0,0,1
 1106 8 1106 8 982 -103 c 128,-1,2
 858 -214 858 -214 684 -214 c 2,3,-1
 310 -214 l 2,4,5
 248 -214 248 -214 240 -282 c 0,6,7
 240 -304 240 -304 261 -328 c 128,-1,8
 282 -352 282 -352 318 -352 c 1,9,-1
 318 -410 l 1,10,-1
 192 -410 l 2,11,12
 150 -410 150 -410 112 -368 c 0,13,14
 86 -338 86 -338 86 -284 c 0,15,16
 86 -218 86 -218 133 -177 c 128,-1,17
 180 -136 180 -136 248 -136 c 2,18,-1
 646 -136 l 2,19,20
 768 -136 768 -136 849 -40 c 128,-1,21
 930 56 930 56 930 180 c 0,22,23
 930 268 930 268 898 342 c 0,24,25
 856 438 856 438 780 438 c 256,26,27
 704 438 704 438 656 384 c 1,28,-1
 654 82 l 2,29,30
 654 52 654 52 714 52 c 1,31,-1
 714 -6 l 1,32,-1
 438 -6 l 1,33,-1
 438 52 l 1,34,35
 498 52 498 52 498 82 c 2,36,-1
 498 724 l 1,37,-1
 300 724 l 1,38,-1
 300 82 l 2,39,40
 300 52 300 52 358 52 c 1,41,-1
 358 -6 l 1,42,-1
 86 -6 l 1,43,-1
 86 52 l 1,44,45
 144 52 144 52 144 82 c 2,46,-1
 144 692 l 2,47,48
 144 734 144 734 94 800 c 1,49,-1
 858 800 l 1,50,-1
 858 678 l 1,51,52
 770 724 770 724 712 724 c 2,53,-1
 654 724 l 1,54,-1
 654 482 l 1,55,56
 728 524 728 524 792 524 c 0,57,58
 920 524 920 524 1010 422 c 0,59,60
 1106 314 1106 314 1106 180 c 0,0,1
EndSplineSet
EndChar

StartChar: tm_nnna
Encoding: 2985 2985 71
Width: 1776
GlyphClass: 2
Flags: W
LayerCount: 2
Fore
SplineSet
1854 676 m 1,0,1
 1766 724 1766 724 1686 724 c 2,2,-1
 1638 724 l 1,3,-1
 1638 86 l 2,4,5
 1638 62 1638 62 1696 56 c 1,6,-1
 1696 0 l 1,7,-1
 1420 0 l 1,8,-1
 1420 56 l 1,9,10
 1480 62 1480 62 1480 86 c 2,11,-1
 1480 724 l 1,12,-1
 1330 724 l 2,13,14
 1266 724 1266 724 1174 702 c 1,15,16
 1296 608 1296 608 1344 528 c 0,17,18
 1408 418 1408 418 1408 302 c 0,19,20
 1408 178 1408 178 1311 89 c 128,-1,21
 1214 0 1214 0 1082 0 c 0,22,23
 952 0 952 0 855 87 c 128,-1,24
 758 174 758 174 758 302 c 0,25,26
 758 514 758 514 982 698 c 1,27,28
 834 724 834 724 678 724 c 0,29,30
 538 724 538 724 444 678 c 0,31,32
 396 654 396 654 328 584 c 1,33,-1
 428 604 l 1,34,35
 568 604 568 604 664 516 c 0,36,37
 766 422 766 422 766 302 c 0,38,39
 766 174 766 174 663 87 c 128,-1,40
 560 0 560 0 430 0 c 0,41,42
 272 0 272 0 183 100 c 128,-1,43
 94 200 94 200 94 360 c 0,44,45
 94 582 94 582 284 700 c 0,46,47
 442 800 442 800 678 800 c 0,48,49
 940 800 940 800 1084 746 c 1,50,51
 1220 800 1220 800 1368 800 c 2,52,-1
 1854 800 l 1,53,-1
 1854 676 l 1,0,1
1232 302 m 0,54,55
 1232 504 1232 504 1084 644 c 1,56,57
 934 508 934 508 934 302 c 0,58,59
 934 222 934 222 968 156 c 0,60,61
 1010 76 1010 76 1082 76 c 256,62,63
 1154 76 1154 76 1196 156 c 0,64,65
 1232 224 1232 224 1232 302 c 0,54,55
590 302 m 0,66,67
 590 398 590 398 540 464 c 1,68,69
 500 528 500 528 428 528 c 256,70,71
 356 528 356 528 310 448 c 0,72,73
 270 380 270 380 270 302 c 0,74,75
 270 218 270 218 308 154 c 0,76,77
 354 76 354 76 432 76 c 0,78,79
 496 76 496 76 540 142 c 0,80,81
 590 218 590 218 590 302 c 0,66,67
EndSplineSet
EndChar

StartChar: tm_pa
Encoding: 2986 2986 72
Width: 1010
GlyphClass: 2
Flags: W
LayerCount: 2
Fore
SplineSet
936 744 m 1,0,1
 878 736 878 736 878 714 c 2,2,-1
 878 146 l 2,3,4
 878 84 878 84 835 42 c 128,-1,5
 792 0 792 0 730 0 c 2,6,-1
 280 0 l 2,7,8
 218 0 218 0 176 44 c 128,-1,9
 134 88 134 88 134 146 c 2,10,-1
 134 714 l 2,11,12
 134 736 134 736 76 744 c 1,13,-1
 76 800 l 1,14,-1
 348 800 l 1,15,-1
 348 744 l 1,16,17
 290 738 290 738 290 714 c 2,18,-1
 290 146 l 2,19,20
 290 122 290 122 312 99 c 128,-1,21
 334 76 334 76 358 76 c 2,22,-1
 652 76 l 2,23,24
 672 76 672 76 697 98 c 128,-1,25
 722 120 722 120 722 146 c 2,26,-1
 722 714 l 2,27,28
 722 738 722 738 664 744 c 1,29,-1
 664 800 l 1,30,-1
 936 800 l 1,31,-1
 936 744 l 1,0,1
EndSplineSet
EndChar

StartChar: tm_ma
Encoding: 2990 2990 73
Width: 1290
GlyphClass: 2
Flags: W
LayerCount: 2
Fore
SplineSet
1202 322 m 0,0,1
 1202 178 1202 178 1078 86 c 0,2,3
 966 0 966 0 818 0 c 2,4,-1
 230 0 l 2,5,6
 198 0 198 0 164 30 c 1,7,8
 140 60 140 60 140 108 c 2,9,-1
 140 714 l 2,10,11
 140 738 140 738 82 744 c 1,12,-1
 82 800 l 1,13,-1
 356 800 l 1,14,-1
 356 744 l 1,15,16
 296 738 296 738 296 714 c 2,17,-1
 296 126 l 2,18,19
 296 76 296 76 366 76 c 2,20,-1
 554 76 l 1,21,-1
 554 614 l 2,22,23
 554 690 554 690 619 745 c 128,-1,24
 684 800 684 800 778 800 c 0,25,26
 952 800 952 800 1077 657 c 128,-1,27
 1202 514 1202 514 1202 322 c 0,0,1
1028 322 m 0,28,29
 1028 484 1028 484 958 608 c 0,30,31
 892 724 892 724 800 724 c 0,32,33
 756 724 756 724 736 694 c 1,34,35
 710 666 710 666 710 616 c 2,36,-1
 710 76 l 1,37,-1
 818 76 l 2,38,39
 912 76 912 76 970 150 c 128,-1,40
 1028 224 1028 224 1028 322 c 0,28,29
EndSplineSet
EndChar

StartChar: tm_ya
Encoding: 2991 2991 74
Width: 1270
GlyphClass: 2
Flags: W
LayerCount: 2
Fore
SplineSet
1196 744 m 1,0,1
 1138 738 1138 738 1138 714 c 2,2,-1
 1138 126 l 2,3,4
 1138 84 1138 84 1092 38 c 0,5,6
 1054 0 1054 0 990 0 c 2,7,-1
 636 0 l 2,8,9
 570 0 570 0 530 30 c 0,10,11
 516 40 516 40 488 80 c 1,12,13
 386 0 386 0 242 0 c 0,14,15
 198 0 198 0 166 32 c 128,-1,16
 134 64 134 64 134 108 c 2,17,-1
 134 714 l 2,18,19
 134 738 134 738 76 744 c 1,20,-1
 76 800 l 1,21,-1
 350 800 l 1,22,-1
 350 744 l 1,23,24
 290 738 290 738 290 714 c 2,25,-1
 290 146 l 2,26,27
 290 94 290 94 320 94 c 0,28,29
 392 94 392 94 484 192 c 1,30,-1
 488 714 l 2,31,32
 488 738 488 738 430 744 c 1,33,-1
 430 800 l 1,34,-1
 704 800 l 1,35,-1
 704 744 l 1,36,37
 644 738 644 738 644 714 c 2,38,-1
 644 126 l 2,39,40
 644 76 644 76 694 76 c 2,41,-1
 930 76 l 2,42,43
 982 76 982 76 982 126 c 2,44,-1
 982 714 l 2,45,46
 982 736 982 736 922 744 c 1,47,-1
 922 800 l 1,48,-1
 1196 800 l 1,49,-1
 1196 744 l 1,0,1
EndSplineSet
EndChar

StartChar: tm_ra
Encoding: 2992 2992 75
Width: 780
GlyphClass: 2
Flags: W
LayerCount: 2
Fore
SplineSet
846 676 m 1,0,1
 774 724 774 724 738 724 c 2,2,-1
 650 724 l 1,3,-1
 650 64 l 1,4,-1
 252 -250 l 1,5,-1
 192 -178 l 1,6,-1
 498 60 l 1,7,-1
 498 724 l 1,8,-1
 298 724 l 1,9,-1
 298 88 l 2,10,11
 298 56 298 56 356 56 c 1,12,-1
 356 0 l 1,13,-1
 86 0 l 1,14,-1
 86 56 l 1,15,16
 146 56 146 56 146 88 c 2,17,-1
 146 694 l 2,18,19
 146 736 146 736 96 800 c 1,20,-1
 846 800 l 1,21,-1
 846 676 l 1,0,1
EndSplineSet
EndChar

StartChar: tm_rra
Encoding: 2993 2993 76
Width: 1316
GlyphClass: 2
Flags: W
LayerCount: 2
Fore
SplineSet
1208 358 m 0,0,1
 1208 142 1208 142 1098 -24 c 0,2,3
 972 -214 972 -214 766 -214 c 2,4,-1
 312 -214 l 2,5,6
 294 -214 294 -214 266 -232 c 0,7,8
 254 -242 254 -242 242 -282 c 1,9,10
 242 -314 242 -314 262 -329 c 128,-1,11
 282 -344 282 -344 300 -344 c 0,12,13
 312 -342 312 -342 320 -342 c 1,14,-1
 320 -410 l 1,15,-1
 176 -410 l 2,16,17
 132 -410 132 -410 94 -368 c 1,18,19
 68 -332 68 -332 68 -282 c 0,20,21
 68 -224 68 -224 120 -174 c 1,22,23
 172 -136 172 -136 252 -136 c 2,24,-1
 688 -136 l 2,25,26
 826 -136 826 -136 929 9 c 128,-1,27
 1032 154 1032 154 1032 358 c 0,28,29
 1032 488 1032 488 974 594 c 0,30,31
 906 724 906 724 786 724 c 0,32,33
 732 724 732 724 694 690 c 128,-1,34
 656 656 656 656 656 604 c 2,35,-1
 656 100 l 2,36,37
 656 52 656 52 714 52 c 1,38,-1
 714 -6 l 1,39,-1
 442 -6 l 1,40,-1
 442 52 l 1,41,42
 502 52 502 52 502 100 c 2,43,-1
 502 600 l 1,44,45
 478 724 478 724 400 724 c 0,46,47
 370 724 370 724 342 688 c 1,48,49
 316 662 316 662 302 604 c 1,50,-1
 302 100 l 2,51,52
 302 52 302 52 360 52 c 1,53,-1
 360 -6 l 1,54,-1
 86 -6 l 1,55,-1
 86 52 l 1,56,57
 146 52 146 52 146 100 c 2,58,-1
 146 602 l 2,59,60
 146 692 146 692 232 750 c 0,61,62
 308 800 308 800 402 800 c 0,63,64
 516 800 516 800 588 732 c 1,65,66
 650 800 650 800 786 800 c 0,67,68
 976 800 976 800 1092 675 c 128,-1,69
 1208 550 1208 550 1208 358 c 0,0,1
EndSplineSet
EndChar

StartChar: tm_la
Encoding: 2994 2994 77
Width: 1526
GlyphClass: 2
Flags: W
LayerCount: 2
Fore
SplineSet
1432 400 m 0,0,1
 1432 236 1432 236 1348 124 c 0,2,3
 1256 0 1256 0 1098 0 c 0,4,5
 936 0 936 0 844 122 c 0,6,7
 762 232 762 232 762 400 c 0,8,9
 762 550 762 550 701 637 c 128,-1,10
 640 724 640 724 536 724 c 256,11,12
 432 724 432 724 354 650 c 2,13,14
 354 650 354 650 288 584 c 1,15,16
 388 604 388 604 416 604 c 0,17,18
 548 604 548 604 645 518 c 128,-1,19
 742 432 742 432 742 302 c 0,20,21
 742 178 742 178 643 89 c 128,-1,22
 544 0 544 0 416 0 c 0,23,24
 284 0 284 0 188 106 c 128,-1,25
 92 212 92 212 92 360 c 0,26,27
 92 546 92 546 221 673 c 128,-1,28
 350 800 350 800 536 800 c 0,29,30
 714 800 714 800 827 689 c 128,-1,31
 940 578 940 578 940 400 c 2,32,-1
 940 310 l 1,33,34
 948 272 948 272 956 233 c 128,-1,35
 964 194 964 194 982 156 c 0,36,37
 1026 66 1026 66 1098 66 c 0,38,39
 1150 66 1150 66 1208 164 c 1,40,41
 1256 264 1256 264 1256 400 c 0,42,43
 1256 514 1256 514 1200 610 c 0,44,45
 1134 724 1134 724 1028 724 c 0,46,47
 960 724 960 724 900 696 c 1,48,-1
 900 800 l 1,49,-1
 1028 800 l 2,50,51
 1198 800 1198 800 1315 684 c 128,-1,52
 1432 568 1432 568 1432 400 c 0,0,1
566 302 m 0,53,54
 566 384 566 384 518 462 c 0,55,56
 478 528 478 528 416 528 c 0,57,58
 352 528 352 528 310 464 c 128,-1,59
 268 400 268 400 268 302 c 0,60,61
 268 224 268 224 302 158 c 0,62,63
 344 76 344 76 416 76 c 0,64,65
 486 76 486 76 530 158 c 0,66,67
 566 226 566 226 566 302 c 0,53,54
EndSplineSet
EndChar

StartChar: tm_lla
Encoding: 2995 2995 78
Width: 1442
GlyphClass: 2
Flags: W
LayerCount: 2
Fore
SplineSet
1502 678 m 1,0,1
 1414 724 1414 724 1336 724 c 2,2,-1
 1294 724 l 1,3,-1
 1294 106 l 2,4,5
 1294 62 1294 62 1354 56 c 1,6,-1
 1354 0 l 1,7,-1
 1080 0 l 1,8,-1
 1080 56 l 1,9,10
 1138 62 1138 62 1138 106 c 2,11,-1
 1138 724 l 1,12,-1
 940 724 l 1,13,-1
 940 106 l 2,14,15
 940 62 940 62 998 56 c 1,16,-1
 998 0 l 1,17,-1
 724 0 l 1,18,-1
 724 56 l 1,19,20
 784 62 784 62 784 106 c 2,21,-1
 782 536 l 1,22,23
 756 620 756 620 672 672 c 128,-1,24
 588 724 588 724 496 724 c 0,25,26
 398 724 398 724 320 632 c 0,27,28
 298 606 298 606 272 570 c 1,29,30
 368 604 368 604 418 604 c 0,31,32
 552 604 552 604 647 515 c 128,-1,33
 742 426 742 426 742 302 c 0,34,35
 742 172 742 172 646 86 c 128,-1,36
 550 0 550 0 418 0 c 0,37,38
 284 0 284 0 188 100 c 128,-1,39
 92 200 92 200 92 342 c 0,40,41
 92 520 92 520 204 656 c 0,42,43
 322 800 322 800 496 800 c 0,44,45
 654 800 654 800 784 712 c 1,46,-1
 784 800 l 1,47,-1
 1502 800 l 1,48,-1
 1502 678 l 1,0,1
566 302 m 256,49,50
 566 392 566 392 510 476 c 0,51,52
 476 528 476 528 418 528 c 0,53,54
 344 528 344 528 304 448 c 0,55,56
 270 382 270 382 270 302 c 256,57,58
 270 222 270 222 304 156 c 0,59,60
 346 76 346 76 418 76 c 0,61,62
 478 76 478 76 522 144 c 128,-1,63
 566 212 566 212 566 302 c 256,49,50
EndSplineSet
EndChar

StartChar: tm_llla
Encoding: 2996 2996 79
Width: 1290
GlyphClass: 2
Flags: W
LayerCount: 2
Fore
SplineSet
1202 316 m 0,0,1
 1202 174 1202 174 1078 80 c 0,2,3
 964 -8 964 -8 818 -8 c 2,4,-1
 710 -8 l 1,5,-1
 710 -38 l 2,6,7
 710 -104 710 -104 746 -140 c 1,8,9
 780 -186 780 -186 840 -186 c 2,10,-1
 1184 -186 l 1,11,-1
 1184 -298 l 1,12,13
 1132 -264 1132 -264 1092 -264 c 0,14,15
 1012 -264 1012 -264 924 -416 c 0,16,17
 870 -508 870 -508 768 -552 c 0,18,19
 658 -600 658 -600 524 -600 c 0,20,21
 394 -600 394 -600 284 -552 c 0,22,23
 140 -488 140 -488 140 -374 c 0,24,25
 140 -292 140 -292 201 -239 c 128,-1,26
 262 -186 262 -186 346 -186 c 2,27,-1
 552 -186 l 1,28,-1
 552 -320 l 1,29,30
 490 -264 490 -264 442 -264 c 0,31,32
 388 -264 388 -264 344 -290 c 0,33,34
 296 -322 296 -322 296 -374 c 0,35,36
 296 -432 296 -432 361 -477 c 128,-1,37
 426 -522 426 -522 524 -522 c 0,38,39
 692 -522 692 -522 792 -368 c 0,40,41
 798 -358 798 -358 862 -264 c 1,42,-1
 778 -264 l 2,43,44
 684 -264 684 -264 619 -198 c 128,-1,45
 554 -132 554 -132 554 -38 c 2,46,-1
 554 -8 l 1,47,-1
 230 -8 l 2,48,49
 200 -8 200 -8 164 22 c 1,50,51
 140 56 140 56 140 102 c 2,52,-1
 140 712 l 2,53,54
 140 742 140 742 82 742 c 1,55,-1
 82 800 l 1,56,-1
 356 800 l 1,57,-1
 356 742 l 1,58,59
 296 742 296 742 296 712 c 2,60,-1
 296 120 l 2,61,62
 296 70 296 70 366 70 c 2,63,-1
 554 70 l 1,64,-1
 554 612 l 2,65,66
 554 690 554 690 621 745 c 128,-1,67
 688 800 688 800 778 800 c 0,68,69
 952 800 952 800 1077 659 c 128,-1,70
 1202 518 1202 518 1202 316 c 0,0,1
1028 316 m 0,71,72
 1028 442 1028 442 976 566 c 0,73,74
 910 722 910 722 800 722 c 0,75,76
 758 722 758 722 734 692 c 128,-1,77
 710 662 710 662 710 614 c 2,78,-1
 710 70 l 1,79,-1
 818 70 l 2,80,81
 908 70 908 70 968 144 c 0,82,83
 994 176 994 176 1011 220 c 128,-1,84
 1028 264 1028 264 1028 316 c 0,71,72
EndSplineSet
EndChar

StartChar: tm_va
Encoding: 2997 2997 80
Width: 1570
GlyphClass: 2
Flags: W
LayerCount: 2
Fore
SplineSet
1494 744 m 1,0,1
 1434 744 1434 744 1434 712 c 2,2,-1
 1434 126 l 2,3,4
 1434 72 1434 72 1397 36 c 128,-1,5
 1360 0 1360 0 1306 0 c 2,6,-1
 706 0 l 1,7,-1
 706 100 l 1,8,9
 732 90 732 90 786 76 c 1,10,11
 860 76 860 76 902 198 c 0,12,13
 934 288 934 288 934 380 c 0,14,15
 934 522 934 522 848 630 c 0,16,17
 754 744 754 744 616 744 c 0,18,19
 492 744 492 744 408 688 c 0,20,21
 372 664 372 664 342 632 c 1,22,-1
 362 598 l 1,23,24
 380 604 380 604 420 604 c 0,25,26
 550 604 550 604 646 520 c 0,27,28
 744 430 744 430 744 302 c 0,29,30
 744 172 744 172 648 86 c 128,-1,31
 552 0 552 0 420 0 c 0,32,33
 268 0 268 0 178 104 c 0,34,35
 94 202 94 202 94 370 c 0,36,37
 94 572 94 572 258 700 c 0,38,39
 410 820 410 820 616 820 c 0,40,41
 814 820 814 820 956 700 c 0,42,43
 1108 574 1108 574 1108 380 c 0,44,45
 1108 278 1108 278 1058 188 c 0,46,47
 1030 136 1030 136 960 76 c 1,48,-1
 1228 76 l 2,49,50
 1278 76 1278 76 1278 126 c 2,51,-1
 1278 712 l 2,52,53
 1278 744 1278 744 1220 744 c 1,54,-1
 1220 802 l 1,55,-1
 1494 802 l 1,56,-1
 1494 744 l 1,0,1
568 302 m 0,57,58
 568 380 568 380 520 462 c 0,59,60
 480 530 480 530 420 530 c 0,61,62
 348 530 348 530 304 448 c 0,63,64
 268 380 268 380 268 302 c 0,65,66
 268 222 268 222 304 156 c 0,67,68
 348 76 348 76 420 76 c 0,69,70
 480 76 480 76 524 143 c 128,-1,71
 568 210 568 210 568 302 c 0,57,58
EndSplineSet
EndChar

StartChar: tm_ssa
Encoding: 2999 2999 81
Width: 2232
GlyphClass: 2
Flags: W
LayerCount: 2
Fore
SplineSet
2172 200 m 256,0,1
 2172 124 2172 124 2110 60 c 128,-1,2
 2048 -4 2048 -4 1964 -4 c 2,3,-1
 1776 -4 l 1,4,-1
 1776 -132 l 2,5,6
 1776 -184 1776 -184 1836 -184 c 1,7,-1
 1836 -240 l 1,8,-1
 1558 -240 l 1,9,-1
 1558 -184 l 1,10,11
 1618 -184 1618 -184 1618 -132 c 2,12,-1
 1618 -4 l 1,13,-1
 706 -4 l 1,14,-1
 706 98 l 1,15,16
 728 88 728 88 788 72 c 1,17,18
 854 72 854 72 904 160 c 128,-1,19
 954 248 954 248 954 380 c 0,20,21
 954 532 954 532 855 643 c 128,-1,22
 756 754 756 754 606 754 c 0,23,24
 494 754 494 754 406 696 c 0,25,26
 366 670 366 670 290 574 c 1,27,28
 384 604 384 604 418 604 c 0,29,30
 552 604 552 604 648 518 c 128,-1,31
 744 432 744 432 744 300 c 0,32,33
 744 174 744 174 649 85 c 128,-1,34
 554 -4 554 -4 418 -4 c 0,35,36
 278 -4 278 -4 185 106 c 128,-1,37
 92 216 92 216 92 358 c 0,38,39
 92 558 92 558 252 692 c 0,40,41
 402 820 402 820 606 820 c 0,42,43
 806 820 806 820 958 702 c 0,44,45
 1122 574 1122 574 1122 380 c 0,46,47
 1122 208 1122 208 982 72 c 1,48,-1
 1618 72 l 1,49,-1
 1618 310 l 1,50,-1
 1488 310 l 2,51,52
 1378 310 1378 310 1296 366 c 0,53,54
 1202 432 1202 432 1202 536 c 0,55,56
 1202 652 1202 652 1304 730 c 0,57,58
 1400 802 1400 802 1520 802 c 0,59,60
 1608 802 1608 802 1684 758 c 0,61,62
 1776 706 1776 706 1776 626 c 2,63,-1
 1776 388 l 1,64,-1
 1964 388 l 2,65,66
 2042 388 2042 388 2107 332 c 128,-1,67
 2172 276 2172 276 2172 200 c 256,0,1
1994 202 m 0,68,69
 1994 242 1994 242 1958 278 c 1,70,71
 1932 310 1932 310 1874 310 c 2,72,-1
 1776 310 l 1,73,-1
 1776 72 l 1,74,-1
 1874 72 l 2,75,76
 1924 72 1924 72 1959 113 c 128,-1,77
 1994 154 1994 154 1994 202 c 0,68,69
1618 388 m 1,78,-1
 1618 624 l 2,79,80
 1618 668 1618 668 1590 696 c 128,-1,81
 1562 724 1562 724 1518 724 c 0,82,83
 1468 724 1468 724 1420 670 c 1,84,85
 1378 604 1378 604 1378 534 c 0,86,87
 1378 470 1378 470 1416 432 c 1,88,89
 1450 388 1450 388 1508 388 c 2,90,-1
 1618 388 l 1,78,-1
568 300 m 0,91,92
 568 382 568 382 522 460 c 0,93,94
 484 526 484 526 418 526 c 0,95,96
 346 526 346 526 304 446 c 0,97,98
 270 380 270 380 270 300 c 0,99,100
 270 204 270 204 311 138 c 128,-1,101
 352 72 352 72 418 72 c 0,102,103
 476 72 476 72 522 138 c 1,104,105
 568 220 568 220 568 300 c 0,91,92
EndSplineSet
EndChar

StartChar: tm_sa
Encoding: 3000 3000 82
Width: 1984
GlyphClass: 2
Flags: W
LayerCount: 2
Fore
SplineSet
1892 400 m 0,0,1
 1892 218 1892 218 1781 109 c 128,-1,2
 1670 0 1670 0 1486 0 c 0,3,4
 1362 0 1362 0 1284 58 c 0,5,6
 1200 120 1200 120 1200 204 c 2,7,-1
 1200 596 l 2,8,9
 1200 642 1200 642 1160 686 c 1,10,11
 1132 724 1132 724 1072 724 c 0,12,13
 1024 724 1024 724 982 692 c 128,-1,14
 940 660 940 660 940 614 c 2,15,-1
 940 106 l 2,16,17
 940 62 940 62 1002 56 c 1,18,-1
 1002 0 l 1,19,-1
 726 0 l 1,20,-1
 726 56 l 1,21,22
 786 62 786 62 786 106 c 2,23,-1
 786 534 l 1,24,25
 776 618 776 618 698 674 c 0,26,27
 624 724 624 724 536 724 c 0,28,29
 442 724 442 724 382 672 c 2,30,-1
 336 632 l 1,31,-1
 358 596 l 1,32,33
 382 604 382 604 418 604 c 0,34,35
 550 604 550 604 647 518 c 128,-1,36
 744 432 744 432 744 302 c 0,37,38
 744 178 744 178 645 89 c 128,-1,39
 546 0 546 0 418 0 c 0,40,41
 274 0 274 0 180 110 c 0,42,43
 92 214 92 214 92 360 c 0,44,45
 92 548 92 548 222 674 c 128,-1,46
 352 800 352 800 536 800 c 0,47,48
 704 800 704 800 802 734 c 0,49,50
 824 718 824 718 852 684 c 1,51,52
 898 742 898 742 932 760 c 0,53,54
 992 800 992 800 1070 800 c 0,55,56
 1202 800 1202 800 1280 743 c 128,-1,57
 1358 686 1358 686 1358 596 c 2,58,-1
 1358 204 l 2,59,60
 1358 148 1358 148 1393 112 c 128,-1,61
 1428 76 1428 76 1486 76 c 0,62,63
 1594 76 1594 76 1660 190 c 0,64,65
 1716 286 1716 286 1716 400 c 256,66,67
 1716 514 1716 514 1660 610 c 0,68,69
 1592 724 1592 724 1486 724 c 0,70,71
 1474 724 1474 724 1418 668 c 1,72,-1
 1418 800 l 1,73,-1
 1486 800 l 2,74,75
 1656 800 1656 800 1774 685 c 128,-1,76
 1892 570 1892 570 1892 400 c 0,0,1
566 302 m 0,77,78
 566 378 566 378 530 446 c 0,79,80
 486 528 486 528 418 528 c 0,81,82
 346 528 346 528 302 448 c 0,83,84
 268 382 268 382 268 302 c 0,85,86
 268 224 268 224 304 158 c 0,87,88
 346 76 346 76 418 76 c 256,89,90
 490 76 490 76 532 158 c 0,91,92
 566 224 566 224 566 302 c 0,77,78
EndSplineSet
EndChar

StartChar: tm_ha
Encoding: 3001 3001 83
Width: 2384
GlyphClass: 2
Flags: W
LayerCount: 2
Fore
SplineSet
2274 338 m 0,0,1
 2274 128 2274 128 2168 -32 c 0,2,3
 2048 -214 2048 -214 1848 -214 c 2,4,-1
 340 -214 l 2,5,6
 258 -214 258 -214 250 -282 c 0,7,8
 250 -316 250 -316 284 -340 c 0,9,10
 300 -352 300 -352 330 -352 c 1,11,-1
 330 -410 l 1,12,-1
 202 -410 l 2,13,14
 154 -410 154 -410 122 -368 c 0,15,16
 94 -332 94 -332 94 -282 c 0,17,18
 94 -234 94 -234 140 -176 c 1,19,20
 186 -144 186 -144 260 -136 c 1,21,-1
 1790 -136 l 2,22,23
 1912 -136 1912 -136 2000 4 c 0,24,25
 2096 158 2096 158 2096 338 c 0,26,27
 2096 470 2096 470 2038 584 c 0,28,29
 1968 724 1968 724 1848 724 c 0,30,31
 1798 724 1798 724 1756 696 c 1,32,33
 1718 678 1718 678 1718 632 c 2,34,-1
 1718 100 l 2,35,36
 1718 52 1718 52 1778 52 c 1,37,-1
 1778 -6 l 1,38,-1
 1502 -6 l 1,39,-1
 1502 52 l 1,40,41
 1560 52 1560 52 1560 100 c 2,42,-1
 1560 632 l 2,43,44
 1560 670 1560 670 1533 697 c 128,-1,45
 1506 724 1506 724 1462 724 c 0,46,47
 1422 724 1422 724 1392 698 c 128,-1,48
 1362 672 1362 672 1362 634 c 2,49,-1
 1362 100 l 2,50,51
 1362 52 1362 52 1422 52 c 1,52,-1
 1422 -6 l 1,53,-1
 710 -6 l 1,54,-1
 710 96 l 1,55,-1
 760 72 l 1,56,57
 828 72 828 72 876 158 c 0,58,59
 928 252 928 252 928 378 c 0,60,61
 928 516 928 516 833 620 c 128,-1,62
 738 724 738 724 600 724 c 0,63,64
 496 724 496 724 402 672 c 0,65,66
 368 654 368 654 308 582 c 1,67,68
 390 604 390 604 420 604 c 0,69,70
 550 604 550 604 649 516 c 128,-1,71
 748 428 748 428 748 300 c 256,72,73
 748 172 748 172 651 83 c 128,-1,74
 554 -6 554 -6 420 -6 c 0,75,76
 284 -6 284 -6 189 103 c 128,-1,77
 94 212 94 212 94 358 c 0,78,79
 94 568 94 568 244 688 c 0,80,81
 384 800 384 800 600 800 c 0,82,83
 828 800 828 800 966 684 c 128,-1,84
 1104 568 1104 568 1104 378 c 0,85,86
 1104 202 1104 202 982 70 c 1,87,-1
 1204 70 l 1,88,-1
 1204 614 l 2,89,90
 1204 698 1204 698 1288 752 c 0,91,92
 1362 800 1362 800 1450 800 c 0,93,94
 1570 800 1570 800 1640 740 c 1,95,96
 1700 800 1700 800 1848 800 c 0,97,98
 2032 800 2032 800 2156 660 c 0,99,100
 2274 526 2274 526 2274 338 c 0,0,1
570 300 m 0,101,102
 570 382 570 382 522 460 c 0,103,104
 482 526 482 526 420 526 c 0,105,106
 348 526 348 526 306 446 c 0,107,108
 272 380 272 380 272 300 c 256,109,110
 272 220 272 220 306 154 c 0,111,112
 348 70 348 70 420 70 c 256,113,114
 492 70 492 70 536 152 c 0,115,116
 570 220 570 220 570 300 c 0,101,102
EndSplineSet
EndChar

StartChar: tm_aakaar
Encoding: 3006 3006 84
Width: 788
GlyphClass: 2
Flags: W
LayerCount: 2
Fore
SplineSet
846 678 m 1,0,1
 770 724 770 724 720 724 c 2,2,-1
 650 724 l 1,3,-1
 650 86 l 2,4,5
 650 64 650 64 708 56 c 1,6,-1
 708 0 l 1,7,-1
 438 0 l 1,8,-1
 438 56 l 1,9,10
 498 62 498 62 498 86 c 2,11,-1
 498 724 l 1,12,-1
 298 724 l 1,13,-1
 298 86 l 2,14,15
 298 64 298 64 356 56 c 1,16,-1
 356 0 l 1,17,-1
 86 0 l 1,18,-1
 86 56 l 1,19,20
 146 62 146 62 146 86 c 2,21,-1
 146 694 l 2,22,23
 146 736 146 736 96 800 c 1,24,-1
 846 800 l 1,25,-1
 846 678 l 1,0,1
EndSplineSet
EndChar

StartChar: tm_ikaar
Encoding: 3007 3007 85
Width: 326
GlyphClass: 2
Flags: W
LayerCount: 2
Fore
SplineSet
324 2 m 1,0,-1
 54 2 l 1,1,-1
 54 60 l 1,2,3
 112 60 112 60 112 110 c 2,4,-1
 112 978 l 2,5,6
 112 1126 112 1126 94 1170 c 0,7,8
 64 1242 64 1242 -68 1242 c 0,9,10
 -182 1242 -182 1242 -218 1178 c 0,11,12
 -242 1134 -242 1134 -242 998 c 0,13,14
 -242 852 -242 852 -130 816 c 1,15,-1
 -132 792 l 1,16,-1
 -284 794 l 1,17,18
 -342 818 -342 818 -379 869 c 128,-1,19
 -416 920 -416 920 -416 998 c 0,20,21
 -416 1150 -416 1150 -338 1250 c 0,22,23
 -250 1362 -250 1362 -58 1362 c 0,24,25
 136 1362 136 1362 212 1244 c 0,26,27
 264 1164 264 1164 264 978 c 2,28,-1
 264 110 l 2,29,30
 264 60 264 60 324 60 c 1,31,-1
 324 2 l 1,0,-1
EndSplineSet
EndChar

StartChar: tm_iikaar
Encoding: 3008 3008 86
Width: 54
GlyphClass: 4
Flags: W
LayerCount: 2
Fore
SplineSet
138 1148 m 0,0,1
 138 1038 138 1038 40 964 c 0,2,3
 -50 896 -50 896 -162 896 c 0,4,5
 -204 896 -204 896 -258 918 c 1,6,-1
 -282 884 l 1,7,-1
 -268 862 l 1,8,9
 -234 828 -234 828 -184 818 c 1,10,-1
 -184 800 l 1,11,-1
 -300 802 l 1,12,13
 -462 896 -462 896 -462 1090 c 0,14,15
 -462 1214 -462 1214 -374 1302 c 128,-1,16
 -286 1390 -286 1390 -162 1390 c 0,17,18
 -50 1390 -50 1390 40 1326 c 0,19,20
 138 1256 138 1256 138 1148 c 0,0,1
-34 1150 m 0,21,22
 -34 1212 -34 1212 -66 1262 c 0,23,24
 -104 1318 -104 1318 -162 1318 c 0,25,26
 -216 1318 -216 1318 -253 1273 c 128,-1,27
 -290 1228 -290 1228 -290 1148 c 0,28,29
 -290 1088 -290 1088 -256 1038 c 0,30,31
 -220 980 -220 980 -162 980 c 0,32,33
 -122 980 -122 980 -72 1030 c 1,34,35
 -34 1084 -34 1084 -34 1150 c 0,21,22
EndSplineSet
EndChar

StartChar: tm_ukaar
Encoding: 3009 3009 87
Width: 988
GlyphClass: 4
Flags: W
LayerCount: 2
Fore
SplineSet
884 540 m 0,0,1
 884 424 884 424 776 348 c 0,2,3
 680 280 680 280 560 280 c 0,4,5
 434 280 434 280 338 326 c 0,6,7
 218 386 218 386 218 500 c 0,8,9
 218 602 218 602 302 656 c 0,10,11
 374 702 374 702 482 702 c 2,12,-1
 550 702 l 1,13,-1
 550 616 l 1,14,15
 526 620 526 620 480 628 c 1,16,17
 436 628 436 628 414 587 c 128,-1,18
 392 546 392 546 392 500 c 0,19,20
 392 440 392 440 437 397 c 128,-1,21
 482 354 482 354 562 354 c 0,22,23
 630 354 630 354 666 406 c 1,24,25
 708 448 708 448 708 540 c 0,26,27
 708 612 708 612 664 669 c 128,-1,28
 620 726 620 726 550 726 c 2,29,-1
 -216 726 l 1,30,-1
 -216 800 l 1,31,-1
 550 800 l 2,32,33
 674 800 674 800 772 734 c 0,34,35
 884 660 884 660 884 540 c 0,0,1
EndSplineSet
EndChar

StartChar: tm_uukaar
Encoding: 3010 3010 88
Width: 1196
GlyphClass: 4
Flags: W
LayerCount: 2
Fore
SplineSet
1096 660 m 0,0,1
 1096 418 1096 418 946 264 c 128,-1,2
 796 110 796 110 556 110 c 0,3,4
 334 110 334 110 212 154 c 1,5,-1
 212 292 l 1,6,7
 394 186 394 186 556 186 c 0,8,9
 720 186 720 186 826 346 c 0,10,11
 920 488 920 488 920 660 c 0,12,13
 920 850 920 850 824 987 c 128,-1,14
 728 1124 728 1124 604 1124 c 0,15,16
 508 1124 508 1124 438 1029 c 128,-1,17
 368 934 368 934 368 806 c 1,18,-1
 604 806 l 2,19,20
 668 806 668 806 726 758 c 1,21,22
 782 702 782 702 782 642 c 0,23,24
 782 570 782 570 734 519 c 128,-1,25
 686 468 686 468 614 448 c 0,26,27
 562 434 562 434 496 434 c 0,28,29
 360 434 360 434 270 524 c 0,30,31
 224 570 224 570 210 626 c 0,32,33
 200 658 200 658 198 664 c 0,34,35
 190 700 190 700 190 730 c 1,36,-1
 -254 730 l 1,37,-1
 -254 806 l 1,38,-1
 192 806 l 1,39,40
 214 966 214 966 326 1080 c 0,41,42
 446 1200 446 1200 604 1200 c 0,43,44
 830 1200 830 1200 966 1042 c 0,45,46
 1096 890 1096 890 1096 660 c 0,0,1
606 640 m 0,47,48
 606 680 606 680 572 705 c 128,-1,49
 538 730 538 730 496 730 c 2,50,-1
 366 730 l 1,51,-1
 374 646 l 1,52,53
 384 596 384 596 414 556 c 0,54,55
 450 510 450 510 496 510 c 0,56,57
 520 510 520 510 546 526 c 0,58,59
 556 532 556 532 572 548 c 0,60,61
 606 594 606 594 606 640 c 0,47,48
EndSplineSet
EndChar

StartChar: tm_ekaar
Encoding: 3014 3014 89
Width: 1432
GlyphClass: 2
Flags: W
LayerCount: 2
Fore
SplineSet
1346 0 m 1,0,-1
 1072 0 l 1,1,-1
 1072 58 l 1,2,3
 1132 58 1132 58 1132 108 c 2,4,-1
 1132 798 l 2,5,6
 1132 998 1132 998 1022 1152 c 0,7,8
 898 1322 898 1322 706 1322 c 0,9,10
 482 1322 482 1322 347 1154 c 128,-1,11
 212 986 212 986 212 700 c 0,12,13
 212 456 212 456 306 288 c 0,14,15
 420 78 420 78 646 78 c 0,16,17
 732 78 732 78 786 150 c 0,18,19
 834 216 834 216 834 304 c 0,20,21
 834 360 834 360 808 412 c 0,22,23
 776 474 776 474 724 474 c 0,24,25
 686 474 686 474 646 432 c 1,26,27
 616 386 616 386 616 326 c 0,28,29
 616 272 616 272 640 230 c 1,30,31
 670 196 670 196 704 196 c 2,32,-1
 754 196 l 1,33,-1
 754 128 l 1,34,-1
 656 128 l 2,35,36
 572 128 572 128 506 186 c 128,-1,37
 440 244 440 244 440 326 c 0,38,39
 440 426 440 426 536 492 c 0,40,41
 620 552 620 552 724 552 c 0,42,43
 848 552 848 552 926 480 c 0,44,45
 1010 402 1010 402 1010 304 c 0,46,47
 1010 172 1010 172 892 82 c 0,48,49
 784 0 784 0 646 0 c 0,50,51
 362 0 362 0 198 214 c 0,52,53
 46 408 46 408 46 700 c 0,54,55
 46 1006 46 1006 224 1203 c 128,-1,56
 402 1400 402 1400 706 1400 c 0,57,58
 956 1400 956 1400 1121 1225 c 128,-1,59
 1286 1050 1286 1050 1286 798 c 2,60,-1
 1286 108 l 2,61,62
 1286 58 1286 58 1346 58 c 1,63,-1
 1346 0 l 1,0,-1
EndSplineSet
EndChar

StartChar: tm_eekaar
Encoding: 3015 3015 90
Width: 1108
GlyphClass: 2
Flags: W
LayerCount: 2
Fore
SplineSet
1038 304 m 0,0,1
 1038 168 1038 168 922 76 c 0,2,3
 816 -10 816 -10 676 -10 c 0,4,5
 400 -10 400 -10 214 210 c 0,6,7
 38 420 38 420 38 700 c 256,8,9
 38 980 38 980 214 1186 c 0,10,11
 400 1400 400 1400 676 1400 c 0,12,13
 812 1400 812 1400 918 1328 c 0,14,15
 1038 1246 1038 1246 1038 1114 c 0,16,17
 1038 944 1038 944 852 870 c 0,18,19
 796 848 796 848 734 848 c 0,20,21
 630 848 630 848 554 908 c 0,22,23
 472 972 472 972 472 1074 c 0,24,25
 472 1166 472 1166 544 1224 c 0,26,27
 610 1280 610 1280 704 1280 c 0,28,29
 744 1280 744 1280 782 1258 c 1,30,-1
 782 1180 l 1,31,32
 730 1204 730 1204 702 1204 c 0,33,34
 658 1204 658 1204 631 1162 c 128,-1,35
 604 1120 604 1120 604 1074 c 0,36,37
 604 1018 604 1018 641 972 c 128,-1,38
 678 926 678 926 734 926 c 0,39,40
 800 926 800 926 842 986 c 128,-1,41
 884 1046 884 1046 884 1114 c 0,42,43
 884 1198 884 1198 822 1260 c 128,-1,44
 760 1322 760 1322 676 1322 c 0,45,46
 456 1322 456 1322 316 1114 c 0,47,48
 192 930 192 930 192 700 c 0,49,50
 192 472 192 472 316 286 c 0,51,52
 458 76 458 76 676 76 c 0,53,54
 758 76 758 76 821 141 c 128,-1,55
 884 206 884 206 884 304 c 0,56,57
 884 368 884 368 838 424 c 0,58,59
 796 474 796 474 734 474 c 0,60,61
 652 474 652 474 614 384 c 0,62,63
 604 360 604 360 604 326 c 0,64,65
 604 274 604 274 631 235 c 128,-1,66
 658 196 658 196 694 196 c 0,67,68
 736 196 736 196 782 228 c 1,69,-1
 782 118 l 1,70,-1
 694 118 l 2,71,72
 600 118 600 118 536 178 c 128,-1,73
 472 238 472 238 472 326 c 0,74,75
 472 426 472 426 554 492 c 0,76,77
 630 552 630 552 734 552 c 0,78,79
 848 552 848 552 938 486 c 0,80,81
 1038 414 1038 414 1038 304 c 0,0,1
EndSplineSet
EndChar

StartChar: tm_aikaar
Encoding: 3016 3016 91
Width: 1832
GlyphClass: 2
Flags: W
LayerCount: 2
Fore
SplineSet
1740 418 m 0,0,1
 1740 238 1740 238 1652 122 c 0,2,3
 1560 0 1560 0 1434 0 c 2,4,-1
 1346 0 l 1,5,-1
 1346 118 l 1,6,7
 1398 76 1398 76 1434 76 c 0,8,9
 1510 76 1510 76 1552 218 c 0,10,11
 1584 320 1584 320 1584 418 c 0,12,13
 1584 542 1584 542 1501 633 c 128,-1,14
 1418 724 1418 724 1296 724 c 0,15,16
 1218 724 1218 724 1132 698 c 1,17,18
 1232 626 1232 626 1282 534 c 0,19,20
 1344 420 1344 420 1344 302 c 0,21,22
 1344 172 1344 172 1254 86 c 128,-1,23
 1164 0 1164 0 1040 0 c 0,24,25
 914 0 914 0 828 88 c 128,-1,26
 742 176 742 176 742 302 c 0,27,28
 742 524 742 524 936 696 c 1,29,30
 804 724 804 724 644 724 c 0,31,32
 486 724 486 724 410 678 c 1,33,34
 380 668 380 668 350 642 c 0,35,36
 338 630 338 630 286 584 c 1,37,38
 400 604 400 604 426 604 c 0,39,40
 536 604 536 604 624 522 c 128,-1,41
 712 440 712 440 712 322 c 0,42,43
 712 186 712 186 629 93 c 128,-1,44
 546 0 546 0 426 0 c 0,45,46
 260 0 260 0 170 120 c 0,47,48
 90 228 90 228 90 400 c 0,49,50
 90 602 90 602 274 710 c 0,51,52
 426 800 426 800 644 800 c 0,53,54
 916 800 916 800 1028 746 c 1,55,56
 1146 800 1146 800 1296 800 c 0,57,58
 1470 800 1470 800 1600 698 c 0,59,60
 1740 588 1740 588 1740 418 c 0,0,1
1208 302 m 0,61,62
 1208 484 1208 484 1042 644 c 1,63,64
 890 508 890 508 890 302 c 0,65,66
 890 222 890 222 924 156 c 0,67,68
 966 76 966 76 1040 76 c 0,69,70
 1108 76 1108 76 1158 145 c 128,-1,71
 1208 214 1208 214 1208 302 c 0,61,62
556 322 m 0,72,73
 556 400 556 400 508 470 c 0,74,75
 468 528 468 528 406 528 c 0,76,77
 326 528 326 528 278 452 c 0,78,79
 238 386 238 386 238 302 c 0,80,81
 238 208 238 208 286 142 c 128,-1,82
 334 76 334 76 408 76 c 0,83,84
 476 76 476 76 520 170 c 0,85,86
 556 246 556 246 556 322 c 0,72,73
EndSplineSet
EndChar

StartChar: tm_okaar
Encoding: 3018 3018 92
Width: 2136
GlyphClass: 2
Flags: W
LayerCount: 2
Fore
SplineSet
2186 678 m 1,0,1
 2110 724 2110 724 2060 724 c 2,2,-1
 1990 724 l 1,3,-1
 1990 86 l 2,4,5
 1990 64 1990 64 2048 56 c 1,6,-1
 2048 0 l 1,7,-1
 1778 0 l 1,8,-1
 1778 56 l 1,9,10
 1838 62 1838 62 1838 86 c 2,11,-1
 1838 724 l 1,12,-1
 1638 724 l 1,13,-1
 1638 86 l 2,14,15
 1638 64 1638 64 1696 56 c 1,16,-1
 1696 0 l 1,17,-1
 1426 0 l 1,18,-1
 1426 56 l 1,19,20
 1486 62 1486 62 1486 86 c 2,21,-1
 1486 694 l 2,22,23
 1486 736 1486 736 1436 800 c 1,24,-1
 2186 800 l 1,25,-1
 2186 678 l 1,0,1
1346 0 m 1,26,-1
 1072 0 l 1,27,-1
 1072 58 l 1,28,29
 1132 58 1132 58 1132 108 c 2,30,-1
 1132 798 l 2,31,32
 1132 998 1132 998 1022 1152 c 0,33,34
 898 1322 898 1322 706 1322 c 0,35,36
 482 1322 482 1322 347 1154 c 128,-1,37
 212 986 212 986 212 700 c 0,38,39
 212 456 212 456 306 288 c 0,40,41
 420 78 420 78 646 78 c 0,42,43
 732 78 732 78 786 150 c 0,44,45
 834 216 834 216 834 304 c 0,46,47
 834 360 834 360 808 412 c 0,48,49
 776 474 776 474 724 474 c 0,50,51
 686 474 686 474 646 432 c 1,52,53
 616 386 616 386 616 326 c 0,54,55
 616 272 616 272 640 230 c 1,56,57
 670 196 670 196 704 196 c 2,58,-1
 754 196 l 1,59,-1
 754 128 l 1,60,-1
 656 128 l 2,61,62
 572 128 572 128 506 186 c 128,-1,63
 440 244 440 244 440 326 c 0,64,65
 440 426 440 426 536 492 c 0,66,67
 620 552 620 552 724 552 c 0,68,69
 848 552 848 552 926 480 c 0,70,71
 1010 402 1010 402 1010 304 c 0,72,73
 1010 172 1010 172 892 82 c 0,74,75
 784 0 784 0 646 0 c 0,76,77
 362 0 362 0 198 214 c 0,78,79
 46 408 46 408 46 700 c 0,80,81
 46 1006 46 1006 224 1203 c 128,-1,82
 402 1400 402 1400 706 1400 c 0,83,84
 956 1400 956 1400 1121 1225 c 128,-1,85
 1286 1050 1286 1050 1286 798 c 2,86,-1
 1286 108 l 2,87,88
 1286 58 1286 58 1346 58 c 1,89,-1
 1346 0 l 1,26,-1
EndSplineSet
EndChar

StartChar: tm_ookaar
Encoding: 3019 3019 93
Width: 1788
GlyphClass: 2
Flags: W
LayerCount: 2
Fore
SplineSet
1846 678 m 1,0,1
 1770 724 1770 724 1720 724 c 2,2,-1
 1650 724 l 1,3,-1
 1650 86 l 2,4,5
 1650 64 1650 64 1708 56 c 1,6,-1
 1708 0 l 1,7,-1
 1438 0 l 1,8,-1
 1438 56 l 1,9,10
 1498 62 1498 62 1498 86 c 2,11,-1
 1498 724 l 1,12,-1
 1298 724 l 1,13,-1
 1298 86 l 2,14,15
 1298 64 1298 64 1356 56 c 1,16,-1
 1356 0 l 1,17,-1
 1086 0 l 1,18,-1
 1086 56 l 1,19,20
 1146 62 1146 62 1146 86 c 2,21,-1
 1146 694 l 2,22,23
 1146 736 1146 736 1096 800 c 1,24,-1
 1846 800 l 1,25,-1
 1846 678 l 1,0,1
1038 304 m 0,26,27
 1038 168 1038 168 922 76 c 0,28,29
 816 -10 816 -10 676 -10 c 0,30,31
 400 -10 400 -10 214 210 c 0,32,33
 38 420 38 420 38 700 c 256,34,35
 38 980 38 980 214 1186 c 0,36,37
 400 1400 400 1400 676 1400 c 0,38,39
 812 1400 812 1400 918 1328 c 0,40,41
 1038 1246 1038 1246 1038 1114 c 0,42,43
 1038 944 1038 944 852 870 c 0,44,45
 796 848 796 848 734 848 c 0,46,47
 630 848 630 848 554 908 c 0,48,49
 472 972 472 972 472 1074 c 0,50,51
 472 1166 472 1166 544 1224 c 0,52,53
 610 1280 610 1280 704 1280 c 0,54,55
 744 1280 744 1280 782 1258 c 1,56,-1
 782 1180 l 1,57,58
 730 1204 730 1204 702 1204 c 0,59,60
 658 1204 658 1204 631 1162 c 128,-1,61
 604 1120 604 1120 604 1074 c 0,62,63
 604 1018 604 1018 641 972 c 128,-1,64
 678 926 678 926 734 926 c 0,65,66
 800 926 800 926 842 986 c 128,-1,67
 884 1046 884 1046 884 1114 c 0,68,69
 884 1198 884 1198 822 1260 c 128,-1,70
 760 1322 760 1322 676 1322 c 0,71,72
 456 1322 456 1322 316 1114 c 0,73,74
 192 930 192 930 192 700 c 0,75,76
 192 472 192 472 316 286 c 0,77,78
 458 76 458 76 676 76 c 0,79,80
 758 76 758 76 821 141 c 128,-1,81
 884 206 884 206 884 304 c 0,82,83
 884 368 884 368 838 424 c 0,84,85
 796 474 796 474 734 474 c 0,86,87
 652 474 652 474 614 384 c 0,88,89
 604 360 604 360 604 326 c 0,90,91
 604 274 604 274 631 235 c 128,-1,92
 658 196 658 196 694 196 c 0,93,94
 736 196 736 196 782 228 c 1,95,-1
 782 118 l 1,96,-1
 694 118 l 2,97,98
 600 118 600 118 536 178 c 128,-1,99
 472 238 472 238 472 326 c 0,100,101
 472 426 472 426 554 492 c 0,102,103
 630 552 630 552 734 552 c 0,104,105
 848 552 848 552 938 486 c 0,106,107
 1038 414 1038 414 1038 304 c 0,26,27
EndSplineSet
EndChar

StartChar: tm_aukaar
Encoding: 3020 3020 94
Width: 2694
GlyphClass: 2
Flags: W
LayerCount: 2
Fore
SplineSet
2762 678 m 1,0,1
 2674 724 2674 724 2596 724 c 2,2,-1
 2554 724 l 1,3,-1
 2554 106 l 2,4,5
 2554 62 2554 62 2614 56 c 1,6,-1
 2614 0 l 1,7,-1
 2340 0 l 1,8,-1
 2340 56 l 1,9,10
 2398 62 2398 62 2398 106 c 2,11,-1
 2398 724 l 1,12,-1
 2200 724 l 1,13,-1
 2200 106 l 2,14,15
 2200 62 2200 62 2258 56 c 1,16,-1
 2258 0 l 1,17,-1
 1984 0 l 1,18,-1
 1984 56 l 1,19,20
 2044 62 2044 62 2044 106 c 2,21,-1
 2042 536 l 1,22,23
 2016 620 2016 620 1932 672 c 128,-1,24
 1848 724 1848 724 1756 724 c 0,25,26
 1658 724 1658 724 1580 632 c 0,27,28
 1558 606 1558 606 1532 570 c 1,29,30
 1628 604 1628 604 1678 604 c 0,31,32
 1812 604 1812 604 1907 515 c 128,-1,33
 2002 426 2002 426 2002 302 c 0,34,35
 2002 172 2002 172 1906 86 c 128,-1,36
 1810 0 1810 0 1678 0 c 0,37,38
 1544 0 1544 0 1448 100 c 128,-1,39
 1352 200 1352 200 1352 342 c 0,40,41
 1352 520 1352 520 1464 656 c 0,42,43
 1582 800 1582 800 1756 800 c 0,44,45
 1914 800 1914 800 2044 712 c 1,46,-1
 2044 800 l 1,47,-1
 2762 800 l 1,48,-1
 2762 678 l 1,0,1
1346 0 m 1,49,-1
 1072 0 l 1,50,-1
 1072 58 l 1,51,52
 1132 58 1132 58 1132 108 c 2,53,-1
 1132 798 l 2,54,55
 1132 998 1132 998 1022 1152 c 0,56,57
 898 1322 898 1322 706 1322 c 0,58,59
 482 1322 482 1322 347 1154 c 128,-1,60
 212 986 212 986 212 700 c 0,61,62
 212 456 212 456 306 288 c 0,63,64
 420 78 420 78 646 78 c 0,65,66
 732 78 732 78 786 150 c 0,67,68
 834 216 834 216 834 304 c 0,69,70
 834 360 834 360 808 412 c 0,71,72
 776 474 776 474 724 474 c 0,73,74
 686 474 686 474 646 432 c 1,75,76
 616 386 616 386 616 326 c 0,77,78
 616 272 616 272 640 230 c 1,79,80
 670 196 670 196 704 196 c 2,81,-1
 754 196 l 1,82,-1
 754 128 l 1,83,-1
 656 128 l 2,84,85
 572 128 572 128 506 186 c 128,-1,86
 440 244 440 244 440 326 c 0,87,88
 440 426 440 426 536 492 c 0,89,90
 620 552 620 552 724 552 c 0,91,92
 848 552 848 552 926 480 c 0,93,94
 1010 402 1010 402 1010 304 c 0,95,96
 1010 172 1010 172 892 82 c 0,97,98
 784 0 784 0 646 0 c 0,99,100
 362 0 362 0 198 214 c 0,101,102
 46 408 46 408 46 700 c 0,103,104
 46 1006 46 1006 224 1203 c 128,-1,105
 402 1400 402 1400 706 1400 c 0,106,107
 956 1400 956 1400 1121 1225 c 128,-1,108
 1286 1050 1286 1050 1286 798 c 2,109,-1
 1286 108 l 2,110,111
 1286 58 1286 58 1346 58 c 1,112,-1
 1346 0 l 1,49,-1
1826 302 m 256,113,114
 1826 392 1826 392 1770 476 c 0,115,116
 1736 528 1736 528 1678 528 c 0,117,118
 1604 528 1604 528 1564 448 c 0,119,120
 1530 382 1530 382 1530 302 c 256,121,122
 1530 222 1530 222 1564 156 c 0,123,124
 1606 76 1606 76 1678 76 c 0,125,126
 1738 76 1738 76 1782 144 c 128,-1,127
 1826 212 1826 212 1826 302 c 256,113,114
EndSplineSet
EndChar

StartChar: tm_halant
Encoding: 3021 3021 95
Width: 20
GlyphClass: 4
Flags: W
LayerCount: 2
Fore
SplineSet
-434 1490 m 1,0,-1
 -590 1490 l 1,1,-1
 -590 1686 l 1,2,-1
 -434 1686 l 1,3,-1
 -434 1490 l 1,0,-1
EndSplineSet
EndChar

StartChar: tm_au_lengthmk
Encoding: 3031 3031 96
Width: 1442
GlyphClass: 2
Flags: W
LayerCount: 2
Fore
SplineSet
1502 678 m 1,0,1
 1414 724 1414 724 1336 724 c 2,2,-1
 1294 724 l 1,3,-1
 1294 106 l 2,4,5
 1294 62 1294 62 1354 56 c 1,6,-1
 1354 0 l 1,7,-1
 1080 0 l 1,8,-1
 1080 56 l 1,9,10
 1138 62 1138 62 1138 106 c 2,11,-1
 1138 724 l 1,12,-1
 940 724 l 1,13,-1
 940 106 l 2,14,15
 940 62 940 62 998 56 c 1,16,-1
 998 0 l 1,17,-1
 724 0 l 1,18,-1
 724 56 l 1,19,20
 784 62 784 62 784 106 c 2,21,-1
 782 536 l 1,22,23
 756 620 756 620 672 672 c 128,-1,24
 588 724 588 724 496 724 c 0,25,26
 398 724 398 724 320 632 c 0,27,28
 298 606 298 606 272 570 c 1,29,30
 368 604 368 604 418 604 c 0,31,32
 552 604 552 604 647 515 c 128,-1,33
 742 426 742 426 742 302 c 0,34,35
 742 172 742 172 646 86 c 128,-1,36
 550 0 550 0 418 0 c 0,37,38
 284 0 284 0 188 100 c 128,-1,39
 92 200 92 200 92 342 c 0,40,41
 92 520 92 520 204 656 c 0,42,43
 322 800 322 800 496 800 c 0,44,45
 654 800 654 800 784 712 c 1,46,-1
 784 800 l 1,47,-1
 1502 800 l 1,48,-1
 1502 678 l 1,0,1
566 302 m 256,49,50
 566 392 566 392 510 476 c 0,51,52
 476 528 476 528 418 528 c 0,53,54
 344 528 344 528 304 448 c 0,55,56
 270 382 270 382 270 302 c 256,57,58
 270 222 270 222 304 156 c 0,59,60
 346 76 346 76 418 76 c 0,61,62
 478 76 478 76 522 144 c 128,-1,63
 566 212 566 212 566 302 c 256,49,50
EndSplineSet
EndChar

StartChar: tm_one
Encoding: 3047 3047 97
Width: 1376
GlyphClass: 2
Flags: W
LayerCount: 2
Fore
SplineSet
1266 286 m 0,0,1
 1268 174 1268 174 1175 94 c 128,-1,2
 1082 14 1082 14 968 12 c 0,3,4
 920 12 920 12 832 42 c 1,5,-1
 832 164 l 1,6,-1
 890 140 l 1,7,-1
 960 132 l 1,8,9
 1040 132 1040 132 1097 171 c 128,-1,10
 1154 210 1154 210 1156 286 c 0,11,12
 1158 370 1158 370 1104 419 c 128,-1,13
 1050 468 1050 468 964 468 c 2,14,-1
 792 468 l 1,15,-1
 792 286 l 2,16,17
 792 146 792 146 686 68 c 0,18,19
 592 -2 592 -2 446 -4 c 0,20,21
 282 -6 282 -6 162 94 c 0,22,23
 34 200 34 200 32 360 c 0,24,25
 32 438 32 438 78 504 c 0,26,27
 130 578 130 578 204 578 c 2,28,-1
 250 578 l 1,29,-1
 250 964 l 1,30,-1
 1110 964 l 1,31,-1
 1110 856 l 1,32,-1
 792 856 l 1,33,-1
 792 578 l 1,34,-1
 1012 578 l 2,35,36
 1120 578 1120 578 1192 487 c 128,-1,37
 1264 396 1264 396 1266 286 c 0,0,1
684 578 m 1,38,-1
 684 856 l 1,39,-1
 360 856 l 1,40,-1
 360 578 l 1,41,-1
 684 578 l 1,38,-1
684 336 m 2,42,-1
 684 468 l 1,43,-1
 250 468 l 2,44,45
 222 468 222 468 180 424 c 1,46,47
 152 384 152 384 152 336 c 0,48,49
 150 244 150 244 254 172 c 0,50,51
 350 106 350 106 446 106 c 0,52,53
 684 106 684 106 684 336 c 2,42,-1
EndSplineSet
EndChar

StartChar: tm_two
Encoding: 3048 3048 98
Width: 1672
GlyphClass: 2
Flags: W
LayerCount: 2
Fore
SplineSet
1574 -4 m 1,0,-1
 254 -4 l 2,1,2
 26 -4 26 -4 24 164 c 0,3,4
 24 244 24 244 88 292 c 0,5,6
 146 336 146 336 230 336 c 2,7,-1
 484 336 l 2,8,9
 584 336 584 336 674 412 c 0,10,11
 698 432 698 432 736 484 c 0,12,13
 738 490 738 490 752 516 c 0,14,15
 754 524 754 524 762 566 c 1,16,17
 762 702 762 702 678 778 c 128,-1,18
 594 854 594 854 456 856 c 0,19,20
 370 858 370 858 276 810 c 0,21,22
 158 750 158 750 152 656 c 0,23,24
 148 594 148 594 210 494 c 1,25,26
 284 452 284 452 284 406 c 0,27,28
 284 380 284 380 250 378 c 0,29,30
 164 374 164 374 102 430 c 0,31,32
 72 458 72 458 48 520 c 128,-1,33
 24 582 24 582 24 626 c 0,34,35
 22 800 22 800 170 890 c 0,36,37
 218 920 218 920 304 944 c 1,38,39
 418 964 418 964 460 964 c 0,40,41
 628 966 628 966 749 856 c 128,-1,42
 870 746 870 746 872 578 c 0,43,44
 874 434 874 434 736 326 c 0,45,46
 608 226 608 226 460 226 c 2,47,-1
 230 226 l 2,48,49
 122 226 122 226 122 164 c 0,50,51
 122 106 122 106 230 106 c 2,52,-1
 1574 106 l 1,53,-1
 1574 -4 l 1,0,-1
EndSplineSet
EndChar

StartChar: tm_three
Encoding: 3049 3049 99
Width: 1488
GlyphClass: 2
Flags: W
LayerCount: 2
Fore
SplineSet
1380 -4 m 1,0,-1
 464 -4 l 1,1,-1
 464 106 l 1,2,-1
 730 106 l 1,3,4
 898 152 898 152 898 360 c 0,5,6
 898 426 898 426 838 472 c 0,7,8
 786 512 786 512 716 514 c 0,9,10
 644 516 644 516 574 446 c 1,11,-1
 574 262 l 1,12,-1
 464 262 l 1,13,-1
 464 856 l 1,14,-1
 136 856 l 1,15,-1
 136 -4 l 1,16,-1
 28 -4 l 1,17,-1
 28 964 l 1,18,-1
 864 964 l 1,19,-1
 864 856 l 1,20,-1
 574 856 l 1,21,-1
 574 590 l 1,22,23
 640 644 640 644 730 646 c 0,24,25
 844 648 844 648 937 567 c 128,-1,26
 1030 486 1030 486 1032 372 c 0,27,28
 1034 194 1034 194 922 106 c 1,29,-1
 1380 104 l 1,30,-1
 1380 -4 l 1,0,-1
EndSplineSet
EndChar

StartChar: tm_four
Encoding: 3050 3050 100
Width: 1466
GlyphClass: 2
Flags: W
LayerCount: 2
Fore
SplineSet
1414 468 m 1,0,-1
 792 468 l 1,1,-1
 792 286 l 2,2,3
 792 146 792 146 686 68 c 0,4,5
 592 -2 592 -2 446 -4 c 0,6,7
 282 -6 282 -6 162 94 c 0,8,9
 34 200 34 200 32 360 c 0,10,11
 32 444 32 444 74 508 c 0,12,13
 124 578 124 578 204 578 c 2,14,-1
 250 578 l 1,15,-1
 250 964 l 1,16,-1
 1110 964 l 1,17,-1
 1110 856 l 1,18,-1
 792 856 l 1,19,-1
 792 578 l 1,20,-1
 1304 576 l 1,21,-1
 1304 958 l 1,22,-1
 1414 958 l 1,23,-1
 1414 468 l 1,0,-1
684 578 m 1,24,-1
 684 856 l 1,25,-1
 360 856 l 1,26,-1
 360 578 l 1,27,-1
 684 578 l 1,24,-1
684 336 m 2,28,-1
 684 468 l 1,29,-1
 250 468 l 2,30,31
 208 468 208 468 178 426 c 1,32,-1
 162 390 l 1,33,34
 162 366 162 366 152 336 c 1,35,36
 152 246 152 246 256 172 c 0,37,38
 350 106 350 106 446 106 c 0,39,40
 684 106 684 106 684 336 c 2,28,-1
EndSplineSet
EndChar

StartChar: tm_five
Encoding: 3051 3051 101
Width: 1762
GlyphClass: 2
Flags: W
LayerCount: 2
Fore
SplineSet
1640 94 m 0,0,1
 1642 -184 1642 -184 1392 -372 c 0,2,3
 1164 -544 1164 -544 878 -546 c 0,4,5
 540 -548 540 -548 296 -330 c 0,6,7
 42 -102 42 -102 32 226 c 2,8,-1
 30 290 l 2,9,10
 24 462 24 462 76 620 c 0,11,12
 144 830 144 830 262 926 c 0,13,14
 274 938 274 938 292 938 c 0,15,16
 340 938 340 938 342 888 c 1,17,-1
 336 868 l 1,18,19
 126 638 126 638 138 294 c 2,20,-1
 140 238 l 2,21,22
 152 -82 152 -82 370 -262 c 0,23,24
 566 -424 566 -424 868 -426 c 0,25,26
 1110 -428 1110 -428 1308 -292 c 0,27,28
 1530 -140 1530 -140 1532 94 c 0,29,30
 1534 214 1534 214 1472 320 c 0,31,32
 1402 444 1402 444 1290 446 c 0,33,34
 1152 448 1152 448 1074 296 c 1,35,-1
 1074 -4 l 1,36,-1
 964 -4 l 1,37,-1
 964 856 l 1,38,-1
 684 856 l 1,39,-1
 684 -4 l 1,40,-1
 578 -4 l 1,41,-1
 578 964 l 1,42,-1
 1352 964 l 1,43,-1
 1352 856 l 1,44,-1
 1074 856 l 1,45,-1
 1074 430 l 1,46,47
 1086 470 1086 470 1170 518 c 0,48,49
 1206 538 1206 538 1234 542 c 2,50,-1
 1300 550 l 1,51,52
 1446 550 1446 550 1554 412 c 1,53,54
 1638 278 1638 278 1640 94 c 0,0,1
EndSplineSet
EndChar

StartChar: tm_six
Encoding: 3052 3052 102
Width: 1992
GlyphClass: 2
Flags: W
LayerCount: 2
Fore
SplineSet
1862 476 m 1,0,-1
 1666 476 l 1,1,-1
 1666 -4 l 1,2,-1
 1556 -4 l 1,3,-1
 1556 476 l 1,4,-1
 1278 476 l 1,5,-1
 1278 -4 l 1,6,-1
 1170 -4 l 1,7,-1
 1170 90 l 2,8,9
 1170 218 1170 218 1156 286 c 1,10,11
 1158 370 1158 370 1104 419 c 128,-1,12
 1050 468 1050 468 964 468 c 2,13,-1
 792 468 l 1,14,-1
 792 286 l 2,15,16
 792 146 792 146 686 68 c 0,17,18
 592 -2 592 -2 446 -4 c 0,19,20
 282 -6 282 -6 162 94 c 0,21,22
 34 200 34 200 32 360 c 0,23,24
 32 438 32 438 78 504 c 0,25,26
 130 578 130 578 204 578 c 2,27,-1
 250 578 l 1,28,-1
 250 964 l 1,29,-1
 1110 964 l 1,30,-1
 1110 856 l 1,31,-1
 792 856 l 1,32,-1
 792 578 l 1,33,-1
 1012 578 l 2,34,35
 1094 578 1094 578 1170 508 c 1,36,-1
 1170 584 l 1,37,-1
 1862 584 l 1,38,-1
 1862 476 l 1,0,-1
684 578 m 1,39,-1
 684 856 l 1,40,-1
 360 856 l 1,41,-1
 360 578 l 1,42,-1
 684 578 l 1,39,-1
684 336 m 2,43,-1
 684 468 l 1,44,-1
 250 468 l 2,45,46
 222 468 222 468 180 424 c 1,47,48
 152 384 152 384 152 336 c 0,49,50
 150 244 150 244 254 172 c 0,51,52
 350 106 350 106 446 106 c 0,53,54
 684 106 684 106 684 336 c 2,43,-1
EndSplineSet
EndChar

StartChar: tm_seven
Encoding: 3053 3053 103
Width: 1488
GlyphClass: 2
Flags: W
LayerCount: 2
Fore
SplineSet
1430 832 m 1,0,-1
 1070 832 l 1,1,-1
 1070 -4 l 1,2,-1
 950 -4 l 1,3,-1
 950 832 l 1,4,-1
 536 832 l 2,5,6
 394 832 394 832 268 724 c 0,7,8
 254 712 254 712 180 604 c 1,9,-1
 156 538 l 1,10,-1
 148 468 l 1,11,12
 238 594 238 594 426 598 c 0,13,14
 560 600 560 600 644 521 c 128,-1,15
 728 442 728 442 730 308 c 0,16,17
 732 170 732 170 630 76 c 0,18,19
 544 -2 544 -2 442 -4 c 0,20,21
 254 -6 254 -6 138 134 c 0,22,23
 30 266 30 266 28 458 c 0,24,25
 26 666 26 666 176 810 c 128,-1,26
 326 954 326 954 536 954 c 2,27,-1
 1430 954 l 1,28,-1
 1430 832 l 1,0,-1
622 286 m 0,29,30
 622 348 622 348 562 413 c 128,-1,31
 502 478 502 478 442 480 c 0,32,33
 364 482 364 482 300 423 c 128,-1,34
 236 364 236 364 234 286 c 0,35,36
 232 220 232 220 290 156 c 1,37,38
 344 114 344 114 422 112 c 0,39,40
 504 110 504 110 563 158 c 128,-1,41
 622 206 622 206 622 286 c 0,29,30
EndSplineSet
EndChar

StartChar: tm_eight
Encoding: 3054 3054 104
Width: 2036
GlyphClass: 2
Flags: W
LayerCount: 2
Fore
SplineSet
1922 -320 m 1,0,-1
 1816 -320 l 1,1,-1
 1816 140 l 1,2,-1
 1494 140 l 1,3,4
 1384 -52 1384 -52 1170 -158 c 0,5,6
 974 -256 974 -256 738 -258 c 0,7,8
 522 -260 522 -260 296 -156 c 0,9,10
 26 -32 26 -32 24 164 c 0,11,12
 22 262 22 262 180 262 c 2,13,-1
 1420 262 l 1,14,15
 1452 360 1452 360 1454 468 c 0,16,17
 1458 614 1458 614 1353 737 c 128,-1,18
 1248 860 1248 860 1104 862 c 0,19,20
 1080 862 1080 862 1004 844 c 1,21,22
 978 844 978 844 920 790 c 0,23,24
 868 744 868 744 848 712 c 1,25,26
 842 684 842 684 830 626 c 1,27,28
 830 574 830 574 862 540 c 0,29,30
 942 452 942 452 978 436 c 0,31,32
 988 432 988 432 1026 406 c 0,33,34
 1058 382 1058 382 1070 382 c 0,35,36
 1076 382 1076 382 1082 388 c 1,37,38
 1080 360 1080 360 1094 334 c 0,39,40
 1098 328 1098 328 1116 304 c 1,41,42
 1114 300 1114 300 1110 298 c 0,43,44
 1094 284 1094 284 1074 284 c 0,45,46
 1052 284 1052 284 1018 300 c 2,47,-1
 950 332 l 2,48,49
 886 358 886 358 770 478 c 1,50,51
 716 552 716 552 714 648 c 0,52,53
 712 798 712 798 856 888 c 0,54,55
 974 962 974 962 1114 964 c 0,56,57
 1318 968 1318 968 1446 810 c 0,58,59
 1564 668 1564 668 1574 458 c 1,60,-1
 1568 356 l 2,61,62
 1566 336 1566 336 1560 312 c 2,63,-1
 1546 262 l 1,64,-1
 1816 262 l 1,65,-1
 1816 942 l 1,66,-1
 1922 942 l 1,67,-1
 1922 -320 l 1,0,-1
1360 140 m 1,68,-1
 144 140 l 1,69,70
 186 8 186 8 378 -76 c 0,71,72
 542 -148 542 -148 726 -148 c 0,73,74
 916 -148 916 -148 1080 -80 c 0,75,76
 1266 -4 1266 -4 1360 140 c 1,68,-1
EndSplineSet
EndChar

StartChar: tm_nine
Encoding: 3055 3055 105
Width: 1928
GlyphClass: 2
Flags: W
LayerCount: 2
Fore
SplineSet
1816 -4 m 1,0,-1
 1528 -4 l 1,1,-1
 1528 102 l 1,2,3
 1662 158 1662 158 1664 386 c 0,4,5
 1664 492 1664 492 1560 566 c 0,6,7
 1468 632 1468 632 1356 634 c 0,8,9
 1236 636 1236 636 1168 558 c 1,10,11
 1272 558 1272 558 1358 462 c 1,12,13
 1418 378 1418 378 1420 256 c 0,14,15
 1422 140 1422 140 1360 65 c 128,-1,16
 1298 -10 1298 -10 1184 -12 c 0,17,18
 1034 -14 1034 -14 960 86 c 1,19,-1
 938 126 l 2,20,21
 930 146 930 146 914 184 c 1,22,23
 900 240 900 240 898 316 c 0,24,25
 896 396 896 396 932 468 c 1,26,-1
 786 468 l 1,27,-1
 786 286 l 2,28,29
 786 146 786 146 676 68 c 0,30,31
 580 -2 580 -2 434 -4 c 0,32,33
 272 -6 272 -6 152 94 c 0,34,35
 24 200 24 200 24 360 c 0,36,37
 24 444 24 444 68 506 c 0,38,39
 118 578 118 578 196 578 c 2,40,-1
 242 578 l 1,41,-1
 242 964 l 1,42,-1
 1102 964 l 1,43,-1
 1102 856 l 1,44,-1
 786 856 l 1,45,-1
 786 578 l 1,46,-1
 998 578 l 1,47,48
 1138 748 1138 748 1378 750 c 0,49,50
 1540 752 1540 752 1663 621 c 128,-1,51
 1786 490 1786 490 1786 326 c 0,52,53
 1786 226 1786 226 1714 106 c 1,54,-1
 1804 106 l 1,55,-1
 1816 -4 l 1,0,-1
1296 282 m 1,56,57
 1278 470 1278 470 1098 472 c 0,58,59
 1078 472 1078 472 1040 422 c 1,60,61
 1016 374 1016 374 1016 304 c 0,62,63
 1016 108 1016 108 1176 106 c 0,64,65
 1296 104 1296 104 1296 282 c 1,56,57
676 578 m 1,66,-1
 676 856 l 1,67,-1
 352 856 l 1,68,-1
 352 578 l 1,69,-1
 676 578 l 1,66,-1
676 336 m 2,70,-1
 676 468 l 1,71,-1
 242 468 l 2,72,73
 200 468 200 468 170 426 c 1,74,-1
 154 390 l 1,75,76
 154 366 154 366 144 336 c 1,77,78
 144 246 144 246 246 174 c 0,79,80
 340 106 340 106 434 106 c 0,81,82
 676 106 676 106 676 336 c 2,70,-1
EndSplineSet
EndChar

StartChar: tm_ten
Encoding: 3056 3056 106
Width: 1638
GlyphClass: 2
Flags: W
LayerCount: 2
Fore
SplineSet
1526 522 m 0,0,1
 1526 362 1526 362 1470 226 c 0,2,3
 1408 72 1408 72 1286 -4 c 0,4,5
 1090 -126 1090 -126 850 -124 c 256,6,7
 610 -122 610 -122 534 0 c 0,8,9
 512 36 512 36 478 132 c 1,10,11
 434 72 434 72 353 31 c 128,-1,12
 272 -10 272 -10 198 -10 c 0,13,14
 28 -12 28 -12 28 140 c 2,15,-1
 28 964 l 1,16,-1
 136 964 l 1,17,-1
 136 204 l 2,18,19
 136 106 136 106 222 104 c 0,20,21
 304 102 304 102 372 174 c 0,22,23
 432 238 432 238 454 324 c 1,24,-1
 454 964 l 1,25,-1
 570 966 l 1,26,27
 566 850 566 850 570 598 c 0,28,29
 568 528 568 528 576 350 c 1,30,31
 592 186 592 186 622 110 c 0,32,33
 662 14 662 14 758 0 c 0,34,35
 828 -10 828 -10 892 -10 c 0,36,37
 1224 -10 1224 -10 1342 242 c 0,38,39
 1404 376 1404 376 1404 530 c 0,40,41
 1404 878 1404 878 1096 1078 c 0,42,43
 954 1170 954 1170 648 1186 c 1,44,-1
 644 1294 l 1,45,46
 1000 1260 1000 1260 1164 1162 c 0,47,48
 1286 1088 1286 1088 1350 1012 c 0,49,50
 1526 810 1526 810 1526 522 c 0,0,1
EndSplineSet
EndChar

StartChar: tm_hundred
Encoding: 3057 3057 107
Width: 1476
GlyphClass: 2
Flags: W
LayerCount: 2
Fore
SplineSet
1392 856 m 1,0,-1
 1116 856 l 1,1,-1
 1116 8 l 1,2,-1
 1006 12 l 1,3,-1
 1006 856 l 1,4,-1
 728 856 l 1,5,-1
 728 -4 l 1,6,-1
 620 -4 l 1,7,-1
 620 816 l 1,8,9
 530 838 530 838 444 838 c 0,10,11
 264 838 264 838 204 720 c 0,12,13
 164 640 164 640 164 436 c 256,14,15
 164 232 164 232 208 -4 c 1,16,-1
 100 -4 l 1,17,18
 58 242 58 242 56 446 c 0,19,20
 54 788 54 788 170 872 c 0,21,22
 256 934 256 934 456 934 c 0,23,24
 540 934 540 934 620 924 c 1,25,-1
 620 964 l 1,26,-1
 1392 964 l 1,27,-1
 1392 856 l 1,0,-1
EndSplineSet
EndChar

StartChar: tm_thousand
Encoding: 3058 3058 108
Width: 1682
GlyphClass: 2
Flags: W
LayerCount: 2
Fore
SplineSet
1606 48 m 0,0,1
 1606 -68 1606 -68 1542 -136 c 0,2,3
 1450 -232 1450 -232 1302 -288 c 0,4,5
 1166 -340 1166 -340 1024 -340 c 0,6,7
 952 -340 952 -340 807 -323 c 128,-1,8
 662 -306 662 -306 590 -306 c 0,9,10
 466 -306 466 -306 430 -368 c 1,11,12
 400 -450 400 -450 398 -452 c 0,13,14
 372 -504 372 -504 336 -508 c 0,15,16
 262 -516 262 -516 220 -434 c 0,17,18
 192 -380 192 -380 192 -362 c 0,19,20
 192 -324 192 -324 264 -240 c 0,21,22
 302 -196 302 -196 472 -196 c 0,23,24
 568 -196 568 -196 762 -210 c 128,-1,25
 956 -224 956 -224 1052 -224 c 0,26,27
 1212 -224 1212 -224 1272 -190 c 2,28,-1
 1434 -98 l 1,29,30
 1496 -52 1496 -52 1496 36 c 0,31,32
 1496 118 1496 118 1426 166 c 0,33,34
 1364 208 1364 208 1278 210 c 0,35,36
 1220 212 1220 212 1148 166 c 1,37,-1
 1148 -4 l 1,38,-1
 1028 -4 l 1,39,-1
 1028 468 l 1,40,-1
 796 468 l 1,41,-1
 796 286 l 2,42,43
 796 146 796 146 690 68 c 0,44,45
 596 -2 596 -2 450 -4 c 0,46,47
 286 -6 286 -6 166 94 c 0,48,49
 38 200 38 200 36 360 c 0,50,51
 36 444 36 444 78 508 c 0,52,53
 128 578 128 578 208 578 c 2,54,-1
 254 578 l 1,55,-1
 254 964 l 1,56,-1
 1114 964 l 1,57,-1
 1114 856 l 1,58,-1
 796 856 l 1,59,-1
 796 578 l 1,60,-1
 1258 578 l 1,61,-1
 1258 468 l 1,62,-1
 1148 468 l 1,63,-1
 1148 288 l 1,64,65
 1226 324 1226 324 1296 324 c 0,66,67
 1420 324 1420 324 1510 250 c 0,68,69
 1606 170 1606 170 1606 48 c 0,0,1
692 578 m 1,70,-1
 692 856 l 1,71,-1
 364 856 l 1,72,-1
 364 578 l 1,73,-1
 692 578 l 1,70,-1
692 336 m 2,74,-1
 692 468 l 1,75,-1
 254 468 l 2,76,77
 212 468 212 468 182 426 c 1,78,-1
 166 390 l 1,79,80
 166 366 166 366 156 336 c 1,81,82
 156 246 156 246 260 172 c 0,83,84
 354 106 354 106 450 106 c 0,85,86
 692 106 692 106 692 336 c 2,74,-1
EndSplineSet
EndChar

StartChar: zerowidthnonjoiner
Encoding: 8204 8204 109
Width: 0
GlyphClass: 2
Flags: W
LayerCount: 2
Fore
SplineSet
315 1225 m 1,0,-1
 -34 -516 l 1,1,-1
 -103 -516 l 1,2,-1
 244 1225 l 1,3,-1
 315 1225 l 1,0,-1
EndSplineSet
EndChar

StartChar: zerowidthjoiner
Encoding: 8205 8205 110
Width: 0
GlyphClass: 2
Flags: W
LayerCount: 2
Fore
SplineSet
415 997 m 1,0,-1
 363 953 l 1,1,-1
 270 1073 l 1,2,-1
 -24 -441 l 1,3,-1
 -87 -441 l 1,4,-1
 206 1073 l 1,5,-1
 65 953 l 1,6,-1
 32 997 l 1,7,-1
 210 1145 l 1,8,-1
 89 1292 l 1,9,-1
 140 1334 l 1,10,-1
 260 1185 l 1,11,-1
 437 1334 l 1,12,-1
 472 1292 l 1,13,-1
 294 1145 l 1,14,-1
 415 997 l 1,0,-1
EndSplineSet
EndChar

StartChar: u2013
Encoding: 8211 8211 111
Width: 722
GlyphClass: 2
Flags: W
LayerCount: 2
Fore
SplineSet
733 319 m 1,0,-1
 -12 319 l 1,1,-1
 -12 370 l 1,2,-1
 733 370 l 1,3,-1
 733 319 l 1,0,-1
EndSplineSet
EndChar

StartChar: u2014
Encoding: 8212 8212 112
Width: 1284
GlyphClass: 2
Flags: W
LayerCount: 2
Fore
SplineSet
1296 318 m 1,0,-1
 -13 319 l 1,1,-1
 -13 371 l 1,2,-1
 1296 370 l 1,3,-1
 1296 318 l 1,0,-1
EndSplineSet
EndChar

StartChar: u2018
Encoding: 65539 -1 113
Width: 666
GlyphClass: 2
Flags: W
LayerCount: 2
Fore
SplineSet
478 964 m 2,0,1
 478 970 478 970 468 910 c 0,2,3
 466 898 466 898 446 882 c 1,4,-1
 398 856 l 1,5,-1
 346 848 l 1,6,-1
 318 852 l 1,7,-1
 282 864 l 2,8,9
 264 870 264 870 236 898 c 1,10,-1
 190 968 l 1,11,12
 180 994 180 994 180 1040 c 0,13,14
 180 1130 180 1130 228 1206 c 0,15,16
 244 1230 244 1230 260 1248 c 2,17,-1
 334 1308 l 1,18,-1
 434 1354 l 1,19,-1
 434 1298 l 1,20,-1
 350 1240 l 1,21,-1
 302 1190 l 1,22,-1
 284 1152 l 1,23,-1
 278 1108 l 1,24,-1
 280 1098 l 2,25,26
 278 1096 278 1096 278 1092 c 0,27,28
 278 1084 278 1084 301 1064 c 128,-1,29
 324 1044 324 1044 324 1026 c 1,30,-1
 222 1146 l 1,31,-1
 392 1062 l 1,32,-1
 324 1062 l 1,33,-1
 330 1064 l 1,34,-1
 354 1068 l 1,35,-1
 376 1070 l 2,36,37
 394 1070 394 1070 414 1062 c 0,38,39
 422 1060 422 1060 446 1046 c 0,40,41
 454 1040 454 1040 468 1006 c 1,42,-1
 478 964 l 2,0,1
EndSplineSet
EndChar

StartChar: u2019
Encoding: 65540 -1 114
Width: 666
GlyphClass: 2
Flags: W
LayerCount: 2
Fore
SplineSet
486 1162 m 1,0,1
 486 1094 486 1094 467 1052 c 128,-1,2
 448 1010 448 1010 398 954 c 1,3,-1
 368 928 l 1,4,-1
 328 898 l 1,5,-1
 230 848 l 1,6,-1
 230 904 l 1,7,-1
 312 962 l 1,8,-1
 336 982 l 1,9,-1
 362 1012 l 1,10,-1
 376 1052 l 1,11,-1
 386 1094 l 1,12,13
 386 1116 386 1116 382 1122 c 2,14,-1
 356 1174 l 1,15,-1
 338 1144 l 1,16,-1
 308 1132 l 1,17,-1
 292 1130 l 1,18,-1
 252 1140 l 2,19,20
 236 1146 236 1146 218 1164 c 1,21,-1
 198 1198 l 1,22,-1
 188 1240 l 1,23,-1
 192 1278 l 1,24,-1
 216 1312 l 1,25,-1
 252 1340 l 1,26,-1
 318 1354 l 1,27,28
 348 1354 348 1354 370 1340 c 2,29,-1
 432 1300 l 2,30,31
 454 1286 454 1286 470 1236 c 2,32,-1
 482 1200 l 1,33,-1
 486 1162 l 1,0,1
EndSplineSet
EndChar

StartChar: u201C
Encoding: 65541 -1 115
Width: 886
GlyphClass: 2
Flags: W
LayerCount: 2
Fore
SplineSet
830 968 m 1,0,1
 830 942 830 942 820 930 c 1,2,-1
 810 908 l 1,3,-1
 792 886 l 1,4,-1
 746 858 l 1,5,-1
 694 850 l 1,6,-1
 664 854 l 1,7,-1
 628 866 l 2,8,9
 620 868 620 868 604 882 c 2,10,-1
 580 898 l 1,11,-1
 530 972 l 1,12,13
 520 1012 520 1012 522 1044 c 2,14,-1
 524 1096 l 1,15,-1
 536 1146 l 1,16,17
 558 1188 558 1188 586 1220 c 1,18,19
 620 1270 620 1270 696 1310 c 0,20,21
 728 1326 728 1326 786 1348 c 1,22,-1
 786 1298 l 1,23,-1
 746 1276 l 1,24,-1
 700 1248 l 2,25,26
 682 1234 682 1234 656 1200 c 0,27,28
 642 1182 642 1182 632 1158 c 1,29,-1
 628 1102 l 1,30,-1
 628 1074 l 1,31,-1
 640 1064 l 1,32,-1
 650 1060 l 1,33,-1
 656 1102 l 1,34,-1
 656 1060 l 1,35,-1
 662 1062 l 1,36,-1
 680 1064 l 1,37,-1
 702 1072 l 1,38,-1
 724 1074 l 2,39,40
 746 1074 746 1074 764 1064 c 1,41,42
 784 1062 784 1062 798 1042 c 2,43,-1
 820 1010 l 1,44,-1
 830 968 l 1,0,1
372 964 m 1,45,46
 372 938 372 938 360 920 c 1,47,48
 358 906 358 906 334 886 c 2,49,-1
 290 858 l 1,50,-1
 242 850 l 1,51,-1
 210 852 l 1,52,-1
 196 856 l 1,53,-1
 168 866 l 1,54,-1
 118 906 l 1,55,-1
 78 968 l 1,56,-1
 68 1006 l 1,57,-1
 64 1046 l 1,58,-1
 64 1080 l 1,59,-1
 66 1106 l 2,60,61
 66 1116 66 1116 74 1132 c 2,62,-1
 80 1148 l 2,63,64
 94 1174 94 1174 128 1220 c 0,65,66
 154 1258 154 1258 210 1298 c 1,67,-1
 256 1324 l 1,68,-1
 330 1354 l 1,69,-1
 330 1298 l 1,70,-1
 286 1278 l 1,71,-1
 252 1254 l 1,72,-1
 206 1208 l 1,73,-1
 180 1164 l 1,74,-1
 172 1110 l 1,75,-1
 174 1082 l 1,76,77
 174 1082 174 1082 174 1068 c 0,78,79
 174 1062 174 1062 188 1062 c 1,80,-1
 202 1102 l 1,81,-1
 192 1102 l 1,82,-1
 196 1058 l 1,83,-1
 204 1060 l 1,84,-1
 222 1064 l 1,85,-1
 246 1074 l 1,86,-1
 266 1074 l 2,87,88
 286 1074 286 1074 304 1064 c 1,89,90
 322 1062 322 1062 340 1040 c 2,91,-1
 362 1006 l 1,92,-1
 372 964 l 1,45,46
EndSplineSet
EndChar

StartChar: u201D
Encoding: 65542 -1 116
Width: 886
GlyphClass: 2
Flags: W
LayerCount: 2
Fore
SplineSet
830 1190 m 1,0,1
 830 1120 830 1120 814 1098 c 1,2,-1
 796 1060 l 1,3,4
 784 1018 784 1018 684 940 c 1,5,-1
 648 922 l 1,6,-1
 566 884 l 1,7,-1
 566 940 l 1,8,9
 604 958 604 958 610 960 c 2,10,-1
 606 956 l 1,11,12
 606 982 606 982 646 1010 c 0,13,14
 656 1018 656 1018 686 1032 c 1,15,-1
 698 1046 l 1,16,-1
 714 1078 l 1,17,-1
 722 1108 l 1,18,-1
 724 1128 l 1,19,-1
 722 1152 l 1,20,-1
 716 1166 l 1,21,-1
 710 1174 l 1,22,-1
 694 1138 l 1,23,-1
 692 1138 l 1,24,-1
 702 1180 l 1,25,-1
 688 1180 l 1,26,-1
 670 1174 l 1,27,-1
 650 1170 l 1,28,-1
 628 1166 l 1,29,-1
 586 1174 l 1,30,-1
 552 1200 l 1,31,-1
 530 1234 l 1,32,-1
 524 1272 l 1,33,-1
 530 1316 l 1,34,-1
 536 1328 l 1,35,36
 550 1346 550 1346 556 1352 c 2,37,-1
 604 1380 l 1,38,-1
 654 1388 l 1,39,40
 700 1388 700 1388 718 1374 c 1,41,42
 748 1362 748 1362 774 1334 c 1,43,-1
 792 1306 l 1,44,-1
 814 1268 l 1,45,-1
 824 1232 l 1,46,-1
 830 1190 l 1,0,1
372 1190 m 1,47,-1
 370 1142 l 2,48,49
 370 1122 370 1122 358 1090 c 0,50,51
 348 1070 348 1070 310 1012 c 0,52,53
 290 982 290 982 230 940 c 0,54,55
 206 922 206 922 110 884 c 1,56,-1
 110 940 l 1,57,-1
 196 992 l 1,58,-1
 216 1012 l 1,59,-1
 234 1034 l 1,60,-1
 258 1086 l 1,61,-1
 264 1126 l 1,62,63
 286 1140 286 1140 286 1148 c 256,64,65
 286 1156 286 1156 262 1160 c 1,66,-1
 248 1180 l 1,67,-1
 232 1180 l 1,68,-1
 214 1174 l 2,69,70
 198 1172 198 1172 194 1168 c 2,71,-1
 170 1166 l 1,72,-1
 130 1174 l 1,73,74
 100 1188 100 1188 94 1198 c 2,75,-1
 72 1232 l 1,76,-1
 64 1272 l 1,77,78
 64 1300 64 1300 72 1314 c 1,79,80
 74 1330 74 1330 96 1348 c 0,81,82
 102 1352 102 1352 112 1360 c 0,83,84
 132 1374 132 1374 146 1382 c 1,85,-1
 200 1388 l 2,86,87
 236 1388 236 1388 260 1374 c 2,88,-1
 316 1340 l 1,89,90
 336 1322 336 1322 358 1266 c 1,91,-1
 372 1190 l 1,47,-1
EndSplineSet
EndChar

StartChar: u2026
Encoding: 8230 8230 117
Width: 1283
GlyphClass: 2
Flags: W
LayerCount: 2
Fore
SplineSet
265 136 m 0,0,1
 298 136 298 136 320.5 114 c 128,-1,2
 343 92 343 92 343 58 c 0,3,4
 343 26 343 26 320.5 3 c 128,-1,5
 298 -20 298 -20 265 -20 c 0,6,7
 233 -20 233 -20 210 3 c 128,-1,8
 187 26 187 26 187 58 c 0,9,10
 187 92 187 92 210 114 c 128,-1,11
 233 136 233 136 265 136 c 0,0,1
638 136 m 256,12,13
 670 136 670 136 693 114 c 128,-1,14
 716 92 716 92 716 58 c 0,15,16
 716 26 716 26 692.5 3 c 128,-1,17
 669 -20 669 -20 638 -20 c 0,18,19
 606 -20 606 -20 583 3 c 128,-1,20
 560 26 560 26 560 58 c 0,21,22
 560 92 560 92 583 114 c 128,-1,23
 606 136 606 136 638 136 c 256,12,13
1010 136 m 0,24,25
 1043 136 1043 136 1066 114 c 128,-1,26
 1089 92 1089 92 1089 58 c 0,27,28
 1089 26 1089 26 1065.5 3 c 128,-1,29
 1042 -20 1042 -20 1010 -20 c 256,30,31
 978 -20 978 -20 955.5 3 c 128,-1,32
 933 26 933 26 933 58 c 0,33,34
 933 92 933 92 955.5 114 c 128,-1,35
 978 136 978 136 1010 136 c 0,24,25
EndSplineSet
EndChar

StartChar: u2212
Encoding: 8722 8722 118
Width: 974
GlyphClass: 2
Flags: W
LayerCount: 2
Fore
SplineSet
133 450 m 1,0,-1
 133 508 l 1,1,-1
 894 508 l 1,2,-1
 894 450 l 1,3,-1
 133 450 l 1,0,-1
EndSplineSet
EndChar

StartChar: u25CC
Encoding: 9676 9676 119
Width: 1167
GlyphClass: 2
Flags: W
LayerCount: 2
Fore
SplineSet
654 665 m 0,0,1
 626 665 626 665 612 679 c 128,-1,2
 598 693 598 693 598 724 c 0,3,4
 598 746 598 746 615 762.5 c 128,-1,5
 632 779 632 779 654 779 c 0,6,7
 683 779 683 779 697.5 765 c 128,-1,8
 712 751 712 751 712 724 c 0,9,10
 712 693 712 693 697.5 679 c 128,-1,11
 683 665 683 665 654 665 c 0,0,1
840 616 m 0,12,13
 811 616 811 616 796.5 630.5 c 128,-1,14
 782 645 782 645 782 674 c 0,15,16
 782 701 782 701 796.5 715 c 128,-1,17
 811 729 811 729 840 729 c 0,18,19
 862 729 862 729 879 713 c 128,-1,20
 896 697 896 697 896 674 c 0,21,22
 896 645 896 645 882 630.5 c 128,-1,23
 868 616 868 616 840 616 c 0,12,13
470 616 m 0,24,25
 442 616 442 616 428 630.5 c 128,-1,26
 414 645 414 645 414 674 c 0,27,28
 414 697 414 697 431 713 c 128,-1,29
 448 729 448 729 470 729 c 0,30,31
 494 729 494 729 510 713 c 128,-1,32
 526 697 526 697 526 674 c 0,33,34
 526 645 526 645 512.5 630.5 c 128,-1,35
 499 616 499 616 470 616 c 0,24,25
973 482 m 0,36,37
 951 482 951 482 933.5 498 c 128,-1,38
 916 514 916 514 916 538 c 0,39,40
 916 567 916 567 930.5 581 c 128,-1,41
 945 595 945 595 973 595 c 256,42,43
 1001 595 1001 595 1014.5 581 c 128,-1,44
 1028 567 1028 567 1028 538 c 0,45,46
 1028 514 1028 514 1012 498 c 128,-1,47
 996 482 996 482 973 482 c 0,36,37
336 482 m 0,48,49
 307 482 307 482 293 495.5 c 128,-1,50
 279 509 279 509 279 538 c 256,51,52
 279 567 279 567 293 581 c 128,-1,53
 307 595 307 595 336 595 c 0,54,55
 364 595 364 595 378 581 c 128,-1,56
 392 567 392 567 392 538 c 0,57,58
 392 514 392 514 375 498 c 128,-1,59
 358 482 358 482 336 482 c 0,48,49
1024 298 m 0,60,61
 994 298 994 298 979.5 311.5 c 128,-1,62
 965 325 965 325 965 354 c 0,63,64
 965 382 965 382 979.5 396 c 128,-1,65
 994 410 994 410 1024 410 c 0,66,67
 1046 410 1046 410 1063 393 c 128,-1,68
 1080 376 1080 376 1080 354 c 0,69,70
 1080 331 1080 331 1063 314.5 c 128,-1,71
 1046 298 1046 298 1024 298 c 0,60,61
287 298 m 0,72,73
 257 298 257 298 243 311.5 c 128,-1,74
 229 325 229 325 229 354 c 0,75,76
 229 382 229 382 243 396 c 128,-1,77
 257 410 257 410 287 410 c 0,78,79
 310 410 310 410 326.5 393 c 128,-1,80
 343 376 343 376 343 354 c 0,81,82
 343 331 343 331 326.5 314.5 c 128,-1,83
 310 298 310 298 287 298 c 0,72,73
973 112 m 256,84,85
 945 112 945 112 930.5 126.5 c 128,-1,86
 916 141 916 141 916 169 c 0,87,88
 916 193 916 193 933.5 209.5 c 128,-1,89
 951 226 951 226 973 226 c 0,90,91
 996 226 996 226 1012 209.5 c 128,-1,92
 1028 193 1028 193 1028 169 c 0,93,94
 1028 141 1028 141 1014.5 126.5 c 128,-1,95
 1001 112 1001 112 973 112 c 256,84,85
336 112 m 0,96,97
 307 112 307 112 293 126.5 c 128,-1,98
 279 141 279 141 279 169 c 0,99,100
 279 198 279 198 293 212 c 128,-1,101
 307 226 307 226 336 226 c 0,102,103
 358 226 358 226 375 209.5 c 128,-1,104
 392 193 392 193 392 169 c 0,105,106
 392 141 392 141 378 126.5 c 128,-1,107
 364 112 364 112 336 112 c 0,96,97
840 -22 m 0,108,109
 811 -22 811 -22 796.5 -8 c 128,-1,110
 782 6 782 6 782 34 c 0,111,112
 782 63 782 63 796.5 78 c 128,-1,113
 811 93 811 93 840 93 c 0,114,115
 863 93 863 93 879.5 75 c 128,-1,116
 896 57 896 57 896 34 c 256,117,118
 896 11 896 11 879 -5.5 c 128,-1,119
 862 -22 862 -22 840 -22 c 0,108,109
470 -22 m 0,120,121
 448 -22 448 -22 431 -5.5 c 128,-1,122
 414 11 414 11 414 34 c 256,123,124
 414 57 414 57 430.5 75 c 128,-1,125
 447 93 447 93 470 93 c 0,126,127
 495 93 495 93 510.5 75 c 128,-1,128
 526 57 526 57 526 34 c 256,129,130
 526 11 526 11 510 -5.5 c 128,-1,131
 494 -22 494 -22 470 -22 c 0,120,121
654 -72 m 0,132,133
 632 -72 632 -72 615 -55 c 128,-1,134
 598 -38 598 -38 598 -16 c 0,135,136
 598 14 598 14 612 28.5 c 128,-1,137
 626 43 626 43 654 43 c 0,138,139
 683 43 683 43 697.5 28.5 c 128,-1,140
 712 14 712 14 712 -16 c 0,141,142
 712 -44 712 -44 697.5 -58 c 128,-1,143
 683 -72 683 -72 654 -72 c 0,132,133
EndSplineSet
EndChar

StartChar: tm_k_ikaar
Encoding: 65543 -1 120
Width: 1548
GlyphClass: 2
Flags: W
LayerCount: 2
Fore
SplineSet
1458 0 m 1,0,-1
 1184 0 l 1,1,-1
 1184 58 l 1,2,3
 1242 58 1242 58 1242 108 c 2,4,-1
 1242 976 l 2,5,6
 1242 1092 1242 1092 1134 1170 c 1,7,8
 1108 1194 1108 1194 1020 1234 c 1,9,10
 950 1254 950 1254 876 1254 c 0,11,12
 758 1254 758 1254 668 1186 c 0,13,14
 570 1110 570 1110 570 996 c 0,15,16
 570 924 570 924 607 872 c 128,-1,17
 644 820 644 820 698 806 c 1,18,-1
 994 806 l 1,19,-1
 994 680 l 1,20,21
 920 730 920 730 864 730 c 2,22,-1
 708 730 l 1,23,-1
 708 530 l 1,24,-1
 878 530 l 2,25,26
 990 530 990 530 1066 453 c 128,-1,27
 1142 376 1142 376 1142 266 c 0,28,29
 1142 152 1142 152 1067 76 c 128,-1,30
 992 0 992 0 878 0 c 2,31,-1
 710 0 l 1,32,-1
 710 108 l 1,33,34
 756 76 756 76 796 76 c 0,35,36
 870 76 870 76 918 134 c 128,-1,37
 966 192 966 192 966 266 c 0,38,39
 966 344 966 344 916 398 c 1,40,41
 874 454 874 454 796 454 c 2,42,-1
 708 454 l 1,43,-1
 708 206 l 2,44,45
 708 98 708 98 604 44 c 0,46,47
 522 0 522 0 404 0 c 0,48,49
 270 0 270 0 180 64 c 0,50,51
 78 136 78 136 78 266 c 0,52,53
 78 418 78 418 182 488 c 0,54,55
 212 508 212 508 256 520 c 1,56,-1
 256 806 l 1,57,-1
 486 806 l 1,58,-1
 430 866 l 1,59,60
 394 920 394 920 394 996 c 0,61,62
 394 1130 394 1130 538 1232 c 0,63,64
 676 1330 676 1330 878 1330 c 0,65,66
 1090 1330 1090 1330 1244 1229 c 128,-1,67
 1398 1128 1398 1128 1398 978 c 2,68,-1
 1398 108 l 2,69,70
 1398 58 1398 58 1458 58 c 1,71,-1
 1458 0 l 1,0,-1
552 530 m 1,72,-1
 552 730 l 1,73,-1
 412 730 l 1,74,-1
 412 530 l 1,75,-1
 552 530 l 1,72,-1
552 206 m 2,76,-1
 552 454 l 1,77,-1
 404 454 l 2,78,79
 334 454 334 454 294 395 c 128,-1,80
 254 336 254 336 254 264 c 0,81,82
 254 188 254 188 296 132 c 128,-1,83
 338 76 338 76 404 76 c 0,84,85
 466 76 466 76 509 112 c 128,-1,86
 552 148 552 148 552 206 c 2,76,-1
EndSplineSet
Ligature2: "'psts' Post Base Substitutions lookup 8 subtable" tm_ka tm_ikaar
EndChar

StartChar: tm_ng_ikaar
Encoding: 65544 -1 121
Width: 1876
GlyphClass: 2
Flags: W
LayerCount: 2
Fore
SplineSet
1786 0 m 1,0,-1
 1512 0 l 1,1,-1
 1512 58 l 1,2,3
 1570 58 1570 58 1570 88 c 2,4,-1
 1570 896 l 2,5,6
 1570 1040 1570 1040 1510 1138 c 0,7,8
 1438 1254 1438 1254 1302 1254 c 0,9,10
 1170 1254 1170 1254 1098 1164 c 0,11,12
 1034 1082 1034 1082 1034 946 c 0,13,14
 1034 770 1034 770 1140 698 c 0,15,16
 1168 678 1168 678 1214 664 c 1,17,-1
 1214 700 l 2,18,19
 1214 750 1214 750 1154 750 c 1,20,-1
 1154 806 l 1,21,-1
 1430 806 l 1,22,-1
 1430 750 l 1,23,24
 1370 750 1370 750 1370 700 c 2,25,-1
 1370 88 l 2,26,27
 1370 58 1370 58 1430 58 c 1,28,-1
 1430 0 l 1,29,-1
 442 0 l 1,30,-1
 442 116 l 1,31,32
 506 76 506 76 570 76 c 2,33,-1
 728 76 l 2,34,35
 802 76 802 76 859 149 c 128,-1,36
 916 222 916 222 916 324 c 0,37,38
 916 392 916 392 878 450 c 0,39,40
 834 514 834 514 768 514 c 0,41,42
 716 514 716 514 658 460 c 1,43,-1
 658 284 l 2,44,45
 658 256 658 256 718 256 c 1,46,-1
 718 198 l 1,47,-1
 442 198 l 1,48,-1
 442 256 l 1,49,50
 502 256 502 256 502 284 c 2,51,-1
 502 730 l 1,52,-1
 300 730 l 1,53,-1
 300 88 l 2,54,55
 300 58 300 58 360 58 c 1,56,-1
 360 0 l 1,57,-1
 86 0 l 1,58,-1
 86 58 l 1,59,60
 144 58 144 58 144 88 c 2,61,-1
 144 700 l 2,62,63
 144 746 144 746 96 806 c 1,64,-1
 856 806 l 1,65,-1
 856 678 l 1,66,67
 774 730 774 730 690 730 c 2,68,-1
 658 730 l 1,69,-1
 658 570 l 1,70,71
 734 610 734 610 828 610 c 0,72,73
 942 610 942 610 1018 525 c 128,-1,74
 1094 440 1094 440 1094 324 c 0,75,76
 1094 232 1094 232 1048 160 c 0,77,78
 1038 144 1038 144 1028 132 c 0,79,80
 1012 112 1012 112 980 76 c 1,81,-1
 1214 76 l 1,82,-1
 1214 590 l 1,83,84
 1074 590 1074 590 965 693 c 128,-1,85
 856 796 856 796 856 946 c 0,86,87
 856 1126 856 1126 992 1232 c 0,88,89
 1116 1330 1116 1330 1302 1330 c 0,90,91
 1492 1330 1492 1330 1609 1213 c 128,-1,92
 1726 1096 1726 1096 1726 896 c 2,93,-1
 1726 88 l 2,94,95
 1726 58 1726 58 1786 58 c 1,96,-1
 1786 0 l 1,0,-1
EndSplineSet
Ligature2: "'psts' Post Base Substitutions lookup 8 subtable" tm_nga tm_ikaar
EndChar

StartChar: tm_c_ikaar
Encoding: 65545 -1 122
Width: 1408
GlyphClass: 2
Flags: W
LayerCount: 2
Fore
SplineSet
1320 0 m 1,0,-1
 1046 0 l 1,1,-1
 1046 58 l 1,2,3
 1106 58 1106 58 1106 108 c 2,4,-1
 1106 976 l 2,5,6
 1106 1088 1106 1088 1021 1171 c 128,-1,7
 936 1254 936 1254 818 1254 c 0,8,9
 716 1254 716 1254 644 1176 c 128,-1,10
 572 1098 572 1098 572 996 c 0,11,12
 572 928 572 928 604 878 c 0,13,14
 638 822 638 822 700 806 c 1,15,-1
 964 806 l 1,16,-1
 964 680 l 1,17,18
 894 730 894 730 846 730 c 2,19,-1
 708 730 l 1,20,-1
 708 530 l 1,21,-1
 1024 530 l 1,22,-1
 1024 404 l 1,23,24
 948 454 948 454 894 454 c 2,25,-1
 708 454 l 1,26,-1
 708 206 l 2,27,28
 708 108 708 108 600 50 c 0,29,30
 510 0 510 0 404 0 c 0,31,32
 268 0 268 0 180 64 c 0,33,34
 80 136 80 136 80 266 c 0,35,36
 80 370 80 370 134 444 c 1,37,38
 158 484 158 484 188 500 c 0,39,40
 206 510 206 510 258 522 c 1,41,-1
 258 806 l 1,42,-1
 478 806 l 1,43,44
 466 822 466 822 451 843 c 128,-1,45
 436 864 436 864 434 868 c 0,46,47
 396 922 396 922 396 996 c 0,48,49
 396 1144 396 1144 538 1242 c 0,50,51
 664 1330 664 1330 818 1330 c 0,52,53
 984 1330 984 1330 1114 1238 c 0,54,55
 1260 1136 1260 1136 1260 976 c 2,56,-1
 1260 108 l 2,57,58
 1260 58 1260 58 1320 58 c 1,59,-1
 1320 0 l 1,0,-1
554 530 m 1,60,-1
 554 730 l 1,61,-1
 412 730 l 1,62,-1
 412 530 l 1,63,-1
 554 530 l 1,60,-1
554 206 m 2,64,-1
 554 454 l 1,65,-1
 404 454 l 2,66,67
 336 454 336 454 296 395 c 128,-1,68
 256 336 256 336 256 264 c 0,69,70
 256 188 256 188 296 132 c 128,-1,71
 336 76 336 76 404 76 c 0,72,73
 464 76 464 76 509 112 c 128,-1,74
 554 148 554 148 554 206 c 2,64,-1
EndSplineSet
Ligature2: "'psts' Post Base Substitutions lookup 8 subtable" tm_ca tm_ikaar
EndChar

StartChar: tm_j_ikaar
Encoding: 65546 -1 123
Width: 1806
GlyphClass: 2
Flags: W
LayerCount: 2
Fore
SplineSet
1718 -4 m 1,0,-1
 1444 -4 l 1,1,-1
 1444 52 l 1,2,3
 1502 52 1502 52 1502 104 c 2,4,-1
 1502 974 l 2,5,6
 1502 1092 1502 1092 1426 1172 c 128,-1,7
 1350 1252 1350 1252 1234 1252 c 0,8,9
 1136 1252 1136 1252 1071 1172 c 128,-1,10
 1006 1092 1006 1092 1006 994 c 0,11,12
 1006 920 1006 920 1045 866 c 128,-1,13
 1084 812 1084 812 1156 800 c 0,14,15
 1266 782 1266 782 1334 642 c 0,16,17
 1392 526 1392 526 1392 400 c 0,18,19
 1392 230 1392 230 1278 102 c 128,-1,20
 1164 -26 1164 -26 996 -26 c 2,21,-1
 442 -26 l 2,22,23
 360 -26 360 -26 307 -88 c 128,-1,24
 254 -150 254 -150 254 -234 c 0,25,26
 254 -314 254 -314 319 -373 c 128,-1,27
 384 -432 384 -432 464 -432 c 0,28,29
 634 -432 634 -432 762 -284 c 0,30,31
 916 -106 916 -106 1086 -106 c 0,32,33
 1192 -106 1192 -106 1264 -162 c 0,34,35
 1342 -224 1342 -224 1342 -302 c 0,36,37
 1342 -376 1342 -376 1268 -438 c 128,-1,38
 1194 -500 1194 -500 1094 -500 c 0,39,40
 960 -500 960 -500 908 -380 c 1,41,-1
 1006 -304 l 1,42,43
 1006 -356 1006 -356 1030 -376 c 0,44,45
 1064 -404 1064 -404 1094 -404 c 256,46,47
 1124 -404 1124 -404 1146 -362 c 0,48,49
 1166 -326 1166 -326 1166 -292 c 0,50,51
 1166 -252 1166 -252 1141 -228 c 128,-1,52
 1116 -204 1116 -204 1074 -204 c 0,53,54
 938 -204 938 -204 826 -340 c 0,55,56
 676 -520 676 -520 374 -520 c 0,57,58
 252 -520 252 -520 165 -438 c 128,-1,59
 78 -356 78 -356 78 -234 c 0,60,61
 78 -110 78 -110 163 -29 c 128,-1,62
 248 52 248 52 374 52 c 2,63,-1
 996 52 l 2,64,65
 1082 52 1082 52 1144 154 c 128,-1,66
 1206 256 1206 256 1206 400 c 0,67,68
 1206 532 1206 532 1158 632 c 0,69,70
 1114 726 1114 726 1056 726 c 0,71,72
 1006 726 1006 726 964 682 c 1,73,74
 926 632 926 632 926 560 c 2,75,-1
 926 222 l 2,76,77
 926 176 926 176 986 170 c 1,78,-1
 986 114 l 1,79,-1
 712 114 l 1,80,-1
 712 170 l 1,81,82
 770 176 770 176 770 222 c 2,83,-1
 770 560 l 2,84,85
 770 640 770 640 672 688 c 0,86,87
 592 726 592 726 502 726 c 0,88,89
 416 726 416 726 350 684 c 1,90,-1
 340 676 l 1,91,-1
 360 642 l 1,92,-1
 402 648 l 1,93,94
 524 648 524 648 620 580 c 0,95,96
 730 506 730 506 730 390 c 0,97,98
 730 280 730 280 633 197 c 128,-1,99
 536 114 536 114 404 114 c 0,100,101
 264 114 264 114 171 209 c 128,-1,102
 78 304 78 304 78 438 c 0,103,104
 78 614 78 614 204 714 c 0,105,106
 322 804 322 804 502 804 c 0,107,108
 726 804 726 804 846 672 c 1,109,110
 896 748 896 748 960 794 c 1,111,112
 924 818 924 818 876 862 c 1,113,114
 830 914 830 914 830 994 c 0,115,116
 830 1136 830 1136 949 1233 c 128,-1,117
 1068 1330 1068 1330 1234 1330 c 0,118,119
 1410 1330 1410 1330 1530 1228 c 0,120,121
 1658 1120 1658 1120 1658 974 c 2,122,-1
 1658 104 l 2,123,124
 1658 52 1658 52 1718 52 c 1,125,-1
 1718 -4 l 1,0,-1
554 390 m 0,126,127
 554 462 554 462 506 516 c 1,128,129
 470 570 470 570 402 570 c 0,130,131
 340 570 340 570 297 511 c 128,-1,132
 254 452 254 452 254 378 c 256,133,134
 254 304 254 304 299 248 c 128,-1,135
 344 192 344 192 404 192 c 0,136,137
 454 192 454 192 506 248 c 1,138,139
 554 312 554 312 554 390 c 0,126,127
EndSplineSet
Ligature2: "'psts' Post Base Substitutions lookup 8 subtable" tm_ja tm_ikaar
EndChar

StartChar: tm_ny_ikaar
Encoding: 65547 -1 124
Width: 2176
GlyphClass: 2
Flags: W
LayerCount: 2
Fore
SplineSet
2086 -4 m 1,0,-1
 1810 -4 l 1,1,-1
 1810 54 l 1,2,3
 1870 54 1870 54 1870 102 c 2,4,-1
 1870 974 l 2,5,6
 1870 1114 1870 1114 1706 1206 c 0,7,8
 1652 1234 1652 1234 1578 1246 c 0,9,10
 1540 1252 1540 1252 1500 1252 c 0,11,12
 1382 1252 1382 1252 1292 1184 c 0,13,14
 1194 1108 1194 1108 1194 994 c 0,15,16
 1194 920 1194 920 1233 869 c 128,-1,17
 1272 818 1272 818 1324 806 c 1,18,-1
 1572 806 l 1,19,-1
 1572 678 l 1,20,21
 1494 728 1494 728 1402 728 c 2,22,-1
 1312 728 l 1,23,-1
 1312 492 l 1,24,25
 1410 538 1410 538 1482 538 c 0,26,27
 1606 538 1606 538 1698 440 c 0,28,29
 1742 392 1742 392 1768 338 c 0,30,31
 1788 296 1788 296 1788 216 c 0,32,33
 1788 -64 1788 -64 1550 -262 c 128,-1,34
 1312 -460 1312 -460 968 -460 c 0,35,36
 632 -460 632 -460 378 -260 c 0,37,38
 106 -46 106 -46 106 282 c 0,39,40
 106 482 106 482 208 626 c 0,41,42
 304 762 304 762 482 806 c 1,43,-1
 482 728 l 1,44,45
 284 638 284 638 284 282 c 0,46,47
 284 2 284 2 485 -190 c 128,-1,48
 686 -382 686 -382 968 -382 c 0,49,50
 1224 -382 1224 -382 1414 -214 c 0,51,52
 1612 -40 1612 -40 1612 214 c 0,53,54
 1612 308 1612 308 1560 372 c 1,55,56
 1516 440 1516 440 1444 440 c 0,57,58
 1376 440 1376 440 1312 376 c 1,59,-1
 1312 102 l 2,60,61
 1312 54 1312 54 1374 54 c 1,62,-1
 1374 -4 l 1,63,-1
 1096 -4 l 1,64,-1
 1096 54 l 1,65,66
 1156 54 1156 54 1156 102 c 2,67,-1
 1156 728 l 1,68,-1
 850 728 l 2,69,70
 772 728 772 728 710 674 c 0,71,72
 692 662 692 662 664 630 c 1,73,-1
 686 596 l 1,74,75
 726 608 726 608 770 608 c 0,76,77
 900 608 900 608 998 519 c 128,-1,78
 1096 430 1096 430 1096 300 c 0,79,80
 1096 168 1096 168 1000 82 c 128,-1,81
 904 -4 904 -4 770 -4 c 256,82,83
 636 -4 636 -4 542 96 c 0,84,85
 454 188 454 188 454 342 c 0,86,87
 454 560 454 560 560 683 c 128,-1,88
 666 806 666 806 850 806 c 2,89,-1
 1110 806 l 1,90,-1
 1056 864 l 1,91,92
 1016 916 1016 916 1016 994 c 0,93,94
 1016 1150 1016 1150 1188 1248 c 0,95,96
 1334 1330 1334 1330 1502 1330 c 0,97,98
 1718 1330 1718 1330 1870 1230 c 0,99,100
 1950 1176 1950 1176 1986 1116 c 0,101,102
 2026 1048 2026 1048 2026 976 c 2,103,-1
 2026 102 l 2,104,105
 2026 54 2026 54 2086 54 c 1,106,-1
 2086 -4 l 1,0,-1
918 300 m 0,107,108
 918 378 918 378 874 462 c 1,109,110
 830 530 830 530 770 530 c 0,111,112
 694 530 694 530 652 448 c 0,113,114
 620 384 620 384 620 300 c 0,115,116
 620 220 620 220 654 154 c 0,117,118
 698 74 698 74 770 74 c 0,119,120
 830 74 830 74 874 140 c 128,-1,121
 918 206 918 206 918 300 c 0,107,108
EndSplineSet
Ligature2: "'psts' Post Base Substitutions lookup 8 subtable" tm_nya tm_ikaar
EndChar

StartChar: tm_tt_ikaar
Encoding: 65548 -1 125
Width: 1520
GlyphClass: 2
Flags: W
LayerCount: 2
Fore
SplineSet
1492 -4 m 1,0,-1
 1128 -4 l 1,1,-1
 1128 -72 l 2,2,3
 1128 -104 1128 -104 1186 -104 c 1,4,-1
 1186 -160 l 1,5,-1
 890 -160 l 1,6,-1
 890 -104 l 1,7,8
 950 -104 950 -104 950 -72 c 2,9,-1
 950 -4 l 1,10,-1
 142 -4 l 1,11,-1
 142 712 l 2,12,13
 142 744 142 744 82 744 c 1,14,-1
 82 800 l 1,15,-1
 356 800 l 1,16,-1
 356 744 l 1,17,18
 298 744 298 744 298 712 c 2,19,-1
 298 74 l 1,20,-1
 692 74 l 1,21,-1
 702 114 l 1,22,23
 658 136 658 136 612 182 c 0,24,25
 516 278 516 278 516 400 c 0,26,27
 516 512 516 512 608 590 c 0,28,29
 696 662 696 662 810 662 c 0,30,31
 950 662 950 662 1034 594 c 0,32,33
 1128 514 1128 514 1128 418 c 2,34,-1
 1128 74 l 1,35,-1
 1326 74 l 2,36,37
 1410 74 1410 74 1492 120 c 1,38,-1
 1492 -4 l 1,0,-1
950 102 m 1,39,-1
 950 418 l 2,40,41
 950 492 950 492 910 540 c 128,-1,42
 870 588 870 588 810 588 c 0,43,44
 754 588 754 588 722 516 c 0,45,46
 694 460 694 460 694 398 c 0,47,48
 694 184 694 184 950 102 c 1,39,-1
EndSplineSet
Ligature2: "'psts' Post Base Substitutions lookup 8 subtable" tm_tta tm_ikaar
EndChar

StartChar: tm_nn_ikaar
Encoding: 65549 -1 126
Width: 2616
GlyphClass: 2
Flags: W
LayerCount: 2
Fore
SplineSet
2528 0 m 1,0,-1
 2252 0 l 1,1,-1
 2252 58 l 1,2,3
 2310 58 2310 58 2310 108 c 2,4,-1
 2310 1014 l 2,5,6
 2310 1116 2310 1116 2257 1185 c 128,-1,7
 2204 1254 2204 1254 2130 1254 c 0,8,9
 2058 1254 2058 1254 1996 1186 c 1,10,11
 1942 1114 1942 1114 1942 1014 c 0,12,13
 1942 892 1942 892 2022 830 c 0,14,15
 2044 812 2044 812 2072 806 c 1,16,-1
 2296 806 l 1,17,-1
 2296 708 l 1,18,19
 2214 730 2214 730 2128 730 c 2,20,-1
 2096 730 l 1,21,-1
 2096 88 l 2,22,23
 2096 58 2096 58 2156 58 c 1,24,-1
 2156 0 l 1,25,-1
 1880 0 l 1,26,-1
 1880 58 l 1,27,28
 1940 58 1940 58 1940 88 c 2,29,-1
 1940 730 l 1,30,-1
 1852 730 l 2,31,32
 1768 730 1768 730 1678 700 c 1,33,34
 1774 632 1774 632 1828 536 c 0,35,36
 1894 418 1894 418 1894 306 c 0,37,38
 1894 180 1894 180 1799 90 c 128,-1,39
 1704 0 1704 0 1576 0 c 0,40,41
 1468 0 1468 0 1384 58 c 0,42,43
 1330 96 1330 96 1284 188 c 1,44,45
 1242 104 1242 104 1180 60 c 0,46,47
 1094 0 1094 0 990 0 c 0,48,49
 888 0 888 0 812 52 c 0,50,51
 750 94 750 94 702 168 c 1,52,53
 662 94 662 94 600 54 c 0,54,55
 516 0 516 0 416 0 c 0,56,57
 266 0 266 0 182 96 c 128,-1,58
 98 192 98 192 98 344 c 0,59,60
 98 574 98 574 270 702 c 0,61,62
 426 816 426 816 664 816 c 0,63,64
 868 816 868 816 990 750 c 1,65,66
 1120 816 1120 816 1288 816 c 0,67,68
 1402 816 1402 816 1572 754 c 1,69,70
 1680 806 1680 806 1864 806 c 2,71,-1
 1878 806 l 1,72,73
 1766 864 1766 864 1766 1014 c 0,74,75
 1766 1156 1766 1156 1880 1246 c 0,76,77
 1986 1330 1986 1330 2132 1330 c 0,78,79
 2268 1330 2268 1330 2368 1238 c 128,-1,80
 2468 1146 2468 1146 2468 1014 c 2,81,-1
 2468 108 l 2,82,83
 2468 58 2468 58 2528 58 c 1,84,-1
 2528 0 l 1,0,-1
1714 306 m 0,85,86
 1714 514 1714 514 1578 650 c 1,87,88
 1436 514 1436 514 1436 306 c 0,89,90
 1436 228 1436 228 1468 162 c 0,91,92
 1508 76 1508 76 1576 76 c 0,93,94
 1622 76 1622 76 1672 142 c 1,95,96
 1714 220 1714 220 1714 306 c 0,85,86
1492 702 m 1,97,98
 1394 730 1394 730 1288 730 c 0,99,100
 1188 730 1188 730 1088 704 c 1,101,102
 1212 602 1212 602 1286 444 c 1,103,104
 1354 594 1354 594 1492 702 c 1,97,98
1128 306 m 0,105,106
 1128 514 1128 514 992 650 c 1,107,108
 850 510 850 510 850 306 c 0,109,110
 850 210 850 210 893 143 c 128,-1,111
 936 76 936 76 990 76 c 0,112,113
 1036 76 1036 76 1086 142 c 1,114,115
 1128 220 1128 220 1128 306 c 0,105,106
898 702 m 1,116,117
 786 730 786 730 664 730 c 0,118,119
 530 730 530 730 430 682 c 0,120,121
 380 658 380 658 362 644 c 1,122,-1
 380 606 l 1,123,-1
 414 610 l 1,124,125
 516 610 516 610 592 562 c 0,126,127
 622 542 622 542 644 522 c 0,128,129
 674 494 674 494 704 450 c 1,130,131
 764 602 764 602 898 702 c 1,116,117
564 306 m 0,132,133
 564 392 564 392 516 468 c 0,134,135
 476 532 476 532 416 532 c 0,136,137
 342 532 342 532 300 452 c 0,138,139
 264 386 264 386 264 306 c 0,140,141
 264 228 264 228 300 160 c 0,142,143
 344 76 344 76 416 76 c 0,144,145
 486 76 486 76 530 160 c 0,146,147
 564 228 564 228 564 306 c 0,132,133
EndSplineSet
Ligature2: "'psts' Post Base Substitutions lookup 8 subtable" tm_nna tm_ikaar
EndChar

StartChar: tm_t_ikaar
Encoding: 65550 -1 127
Width: 1486
GlyphClass: 2
Flags: W
LayerCount: 2
Fore
SplineSet
1398 -4 m 1,0,-1
 1124 -4 l 1,1,-1
 1124 52 l 1,2,3
 1182 52 1182 52 1182 104 c 2,4,-1
 1182 974 l 2,5,6
 1182 1088 1182 1088 1086 1170 c 128,-1,7
 990 1252 990 1252 856 1252 c 0,8,9
 738 1252 738 1252 654 1178 c 128,-1,10
 570 1104 570 1104 570 994 c 0,11,12
 570 840 570 840 698 806 c 1,13,-1
 974 806 l 1,14,-1
 974 684 l 1,15,16
 882 728 882 728 814 728 c 2,17,-1
 708 728 l 1,18,-1
 708 528 l 1,19,-1
 788 528 l 2,20,21
 918 528 918 528 1010 430 c 128,-1,22
 1102 332 1102 332 1102 202 c 0,23,24
 1102 24 1102 24 961 -94 c 128,-1,25
 820 -212 820 -212 640 -212 c 2,26,-1
 264 -212 l 2,27,28
 230 -212 230 -212 212 -227 c 128,-1,29
 194 -242 194 -242 194 -272 c 0,30,31
 194 -322 194 -322 272 -342 c 1,32,-1
 272 -410 l 1,33,-1
 184 -410 l 2,34,35
 124 -410 124 -410 81 -370 c 128,-1,36
 38 -330 38 -330 38 -272 c 0,37,38
 38 -216 38 -216 82 -175 c 128,-1,39
 126 -134 126 -134 182 -134 c 2,40,-1
 640 -134 l 2,41,42
 746 -134 746 -134 840 -36 c 1,43,-1
 878 14 l 1,44,45
 904 58 904 58 922 140 c 0,46,47
 926 164 926 164 926 204 c 0,48,49
 926 294 926 294 868 378 c 0,50,51
 818 450 818 450 738 450 c 2,52,-1
 708 450 l 1,53,-1
 708 252 l 2,54,55
 708 136 708 136 625 61 c 128,-1,56
 542 -14 542 -14 402 -14 c 0,57,58
 254 -14 254 -14 166 58 c 128,-1,59
 78 130 78 130 78 262 c 0,60,61
 78 470 78 470 254 518 c 1,62,-1
 254 806 l 1,63,-1
 476 806 l 1,64,-1
 432 866 l 2,65,66
 392 920 392 920 392 994 c 0,67,68
 392 1150 392 1150 552 1246 c 0,69,70
 690 1330 690 1330 856 1330 c 0,71,72
 1058 1330 1058 1330 1198 1224 c 128,-1,73
 1338 1118 1338 1118 1338 974 c 2,74,-1
 1338 104 l 2,75,76
 1338 52 1338 52 1398 52 c 1,77,-1
 1398 -4 l 1,0,-1
552 528 m 1,78,-1
 552 728 l 1,79,-1
 410 728 l 1,80,-1
 410 528 l 1,81,-1
 552 528 l 1,78,-1
552 232 m 2,82,-1
 552 450 l 1,83,-1
 402 450 l 2,84,85
 334 450 334 450 298 394 c 1,86,87
 254 344 254 344 254 260 c 0,88,89
 254 190 254 190 292 130 c 0,90,91
 336 62 336 62 402 62 c 0,92,93
 456 62 456 62 504 115 c 128,-1,94
 552 168 552 168 552 232 c 2,82,-1
EndSplineSet
Ligature2: "'psts' Post Base Substitutions lookup 8 subtable" tm_ta tm_ikaar
EndChar

StartChar: tm_n_ikaar
Encoding: 65551 -1 128
Width: 1494
GlyphClass: 2
Flags: W
LayerCount: 2
Fore
SplineSet
1406 -4 m 1,0,-1
 1130 -4 l 1,1,-1
 1130 52 l 1,2,3
 1192 52 1192 52 1192 104 c 2,4,-1
 1192 974 l 2,5,6
 1192 1090 1192 1090 1084 1168 c 0,7,8
 1026 1210 1026 1210 968 1232 c 1,9,10
 892 1252 892 1252 822 1252 c 0,11,12
 704 1252 704 1252 611 1177 c 128,-1,13
 518 1102 518 1102 518 994 c 0,14,15
 518 920 518 920 556 870 c 1,16,17
 586 822 586 822 646 806 c 1,18,-1
 864 806 l 1,19,-1
 864 682 l 1,20,21
 780 728 780 728 714 728 c 2,22,-1
 656 728 l 1,23,-1
 656 490 l 1,24,25
 732 528 732 528 796 528 c 0,26,27
 930 528 930 528 1020 424 c 128,-1,28
 1110 320 1110 320 1110 184 c 0,29,30
 1110 24 1110 24 986 -94 c 128,-1,31
 862 -212 862 -212 686 -212 c 2,32,-1
 312 -212 l 2,33,34
 288 -212 288 -212 266 -232 c 0,35,36
 248 -244 248 -244 240 -282 c 1,37,38
 240 -312 240 -312 280 -344 c 0,39,40
 290 -352 290 -352 320 -352 c 1,41,-1
 320 -410 l 1,42,-1
 192 -410 l 2,43,44
 144 -410 144 -410 115 -371 c 128,-1,45
 86 -332 86 -332 86 -282 c 0,46,47
 86 -224 86 -224 134 -174 c 1,48,49
 184 -134 184 -134 250 -134 c 2,50,-1
 646 -134 l 2,51,52
 768 -134 768 -134 852 -34 c 0,53,54
 934 60 934 60 934 184 c 0,55,56
 934 268 934 268 900 344 c 0,57,58
 856 442 856 442 782 442 c 0,59,60
 702 442 702 442 658 388 c 1,61,-1
 656 84 l 2,62,63
 656 52 656 52 716 52 c 1,64,-1
 716 -4 l 1,65,-1
 440 -4 l 1,66,-1
 440 52 l 1,67,68
 498 52 498 52 498 84 c 2,69,-1
 498 728 l 1,70,-1
 300 728 l 1,71,-1
 300 84 l 2,72,73
 300 52 300 52 360 52 c 1,74,-1
 360 -4 l 1,75,-1
 86 -4 l 1,76,-1
 86 52 l 1,77,78
 144 52 144 52 144 84 c 2,79,-1
 144 698 l 2,80,81
 144 740 144 740 94 806 c 1,82,-1
 434 806 l 1,83,84
 398 842 398 842 384 858 c 0,85,86
 360 890 360 890 351 921 c 128,-1,87
 342 952 342 952 342 994 c 0,88,89
 342 1130 342 1130 486 1232 c 0,90,91
 624 1330 624 1330 824 1330 c 0,92,93
 1042 1330 1042 1330 1192 1230 c 0,94,95
 1266 1180 1266 1180 1307 1117 c 128,-1,96
 1348 1054 1348 1054 1348 976 c 2,97,-1
 1348 104 l 2,98,99
 1348 52 1348 52 1406 52 c 1,100,-1
 1406 -4 l 1,0,-1
EndSplineSet
Ligature2: "'psts' Post Base Substitutions lookup 8 subtable" tm_na tm_ikaar
EndChar

StartChar: tm_nnn_ikaar
Encoding: 65552 -1 129
Width: 2242
GlyphClass: 2
Flags: W
LayerCount: 2
Fore
SplineSet
2154 0 m 1,0,-1
 1878 0 l 1,1,-1
 1878 58 l 1,2,3
 1938 58 1938 58 1938 108 c 2,4,-1
 1938 1014 l 2,5,6
 1938 1110 1938 1110 1876 1182 c 128,-1,7
 1814 1254 1814 1254 1728 1254 c 0,8,9
 1638 1254 1638 1254 1569 1190 c 128,-1,10
 1500 1126 1500 1126 1500 1036 c 0,11,12
 1500 876 1500 876 1634 808 c 1,13,-1
 1856 806 l 1,14,-1
 1856 680 l 1,15,16
 1766 730 1766 730 1688 730 c 2,17,-1
 1638 730 l 1,18,-1
 1638 88 l 2,19,20
 1638 58 1638 58 1700 58 c 1,21,-1
 1700 0 l 1,22,-1
 1422 0 l 1,23,-1
 1422 58 l 1,24,25
 1480 58 1480 58 1480 88 c 2,26,-1
 1480 730 l 1,27,-1
 1332 730 l 2,28,29
 1264 730 1264 730 1186 702 c 1,30,31
 1348 580 1348 580 1396 422 c 0,32,33
 1412 364 1412 364 1412 306 c 0,34,35
 1412 174 1412 174 1316 87 c 128,-1,36
 1220 0 1220 0 1086 0 c 256,37,38
 952 0 952 0 858 86 c 0,39,40
 758 174 758 174 758 306 c 0,41,42
 758 520 758 520 982 702 c 1,43,44
 844 730 844 730 678 730 c 0,45,46
 496 730 496 730 378 644 c 1,47,-1
 396 606 l 1,48,-1
 428 610 l 1,49,50
 568 610 568 610 668 521 c 128,-1,51
 768 432 768 432 768 306 c 0,52,53
 768 174 768 174 666 87 c 128,-1,54
 564 0 564 0 430 0 c 0,55,56
 270 0 270 0 182 100 c 128,-1,57
 94 200 94 200 94 364 c 0,58,59
 94 586 94 586 282 706 c 0,60,61
 442 806 442 806 678 806 c 0,62,63
 940 806 940 806 1088 752 c 1,64,65
 1218 806 1218 806 1370 806 c 2,66,-1
 1434 806 l 1,67,68
 1322 872 1322 872 1322 1036 c 0,69,70
 1322 1174 1322 1174 1462 1258 c 0,71,72
 1580 1330 1580 1330 1728 1330 c 0,73,74
 1880 1330 1880 1330 1984 1238 c 0,75,76
 2094 1140 2094 1140 2094 1014 c 2,77,-1
 2094 108 l 2,78,79
 2094 58 2094 58 2154 58 c 1,80,-1
 2154 0 l 1,0,-1
1234 306 m 0,81,82
 1234 504 1234 504 1088 650 c 1,83,84
 934 510 934 510 934 306 c 0,85,86
 934 226 934 226 970 158 c 0,87,88
 1012 76 1012 76 1086 76 c 0,89,90
 1156 76 1156 76 1198 160 c 0,91,92
 1234 230 1234 230 1234 306 c 0,81,82
590 306 m 0,93,94
 590 388 590 388 552 454 c 0,95,96
 506 532 506 532 428 532 c 0,97,98
 372 532 372 532 316 468 c 1,99,100
 272 392 272 392 272 306 c 0,101,102
 272 218 272 218 317 147 c 128,-1,103
 362 76 362 76 432 76 c 0,104,105
 532 76 532 76 578 220 c 0,106,107
 590 262 590 262 590 306 c 0,93,94
EndSplineSet
Ligature2: "'psts' Post Base Substitutions lookup 8 subtable" tm_nnna tm_ikaar
EndChar

StartChar: tm_p_ikaar
Encoding: 65553 -1 130
Width: 1382
GlyphClass: 2
Flags: W
LayerCount: 2
Fore
SplineSet
1296 0 m 1,0,-1
 1024 0 l 1,1,-1
 1024 58 l 1,2,3
 1080 58 1080 58 1080 88 c 2,4,-1
 1080 896 l 2,5,6
 1080 1042 1080 1042 1022 1138 c 0,7,8
 950 1254 950 1254 814 1254 c 0,9,10
 684 1254 684 1254 612 1164 c 0,11,12
 548 1080 548 1080 548 946 c 0,13,14
 548 828 548 828 604 748 c 0,15,16
 648 686 648 686 728 666 c 1,17,-1
 728 720 l 2,18,19
 728 750 728 750 668 750 c 1,20,-1
 668 806 l 1,21,-1
 940 806 l 1,22,-1
 940 750 l 1,23,24
 882 750 882 750 882 720 c 2,25,-1
 882 146 l 2,26,27
 882 88 882 88 838 44 c 128,-1,28
 794 0 794 0 736 0 c 2,29,-1
 282 0 l 2,30,31
 220 0 220 0 178 42 c 128,-1,32
 136 84 136 84 136 146 c 2,33,-1
 136 720 l 2,34,35
 136 750 136 750 76 750 c 1,36,-1
 76 806 l 1,37,-1
 352 806 l 1,38,-1
 352 750 l 1,39,40
 292 750 292 750 292 720 c 2,41,-1
 292 146 l 2,42,43
 292 126 292 126 312 104 c 1,44,45
 324 82 324 82 360 76 c 1,46,-1
 658 76 l 2,47,48
 680 76 680 76 704 100 c 128,-1,49
 728 124 728 124 728 146 c 2,50,-1
 728 590 l 1,51,52
 588 590 588 590 480 692 c 128,-1,53
 372 794 372 794 372 946 c 0,54,55
 372 1126 372 1126 506 1232 c 0,56,57
 628 1330 628 1330 814 1330 c 0,58,59
 1002 1330 1002 1330 1119 1213 c 128,-1,60
 1236 1096 1236 1096 1236 896 c 2,61,-1
 1236 88 l 2,62,63
 1236 58 1236 58 1296 58 c 1,64,-1
 1296 0 l 1,0,-1
EndSplineSet
Ligature2: "'psts' Post Base Substitutions lookup 8 subtable" tm_pa tm_ikaar
EndChar

StartChar: tm_m_ikaar
Encoding: 65554 -1 131
Width: 1620
GlyphClass: 2
Flags: W
LayerCount: 2
Fore
SplineSet
1532 0 m 1,0,-1
 1256 0 l 1,1,-1
 1256 58 l 1,2,3
 1316 58 1316 58 1316 108 c 2,4,-1
 1316 976 l 2,5,6
 1316 1094 1316 1094 1223 1174 c 128,-1,7
 1130 1254 1130 1254 1010 1254 c 0,8,9
 900 1254 900 1254 824 1190 c 0,10,11
 742 1122 742 1122 742 1014 c 0,12,13
 742 892 742 892 822 830 c 0,14,15
 844 810 844 810 874 806 c 0,16,17
 1026 782 1026 782 1122 628 c 0,18,19
 1208 488 1208 488 1208 324 c 0,20,21
 1208 182 1208 182 1084 86 c 0,22,23
 968 0 968 0 822 0 c 2,24,-1
 230 0 l 2,25,26
 194 0 194 0 162 32 c 1,27,28
 142 76 142 76 142 110 c 2,29,-1
 142 720 l 2,30,31
 142 750 142 750 82 750 c 1,32,-1
 82 806 l 1,33,-1
 358 806 l 1,34,-1
 358 750 l 1,35,36
 298 750 298 750 298 720 c 2,37,-1
 298 128 l 2,38,39
 298 76 298 76 368 76 c 2,40,-1
 556 76 l 1,41,-1
 556 620 l 2,42,43
 556 692 556 692 602 742 c 0,44,45
 628 770 628 770 684 798 c 1,46,47
 628 838 628 838 610 864 c 0,48,49
 566 930 566 930 566 1014 c 0,50,51
 566 1164 566 1164 720 1254 c 0,52,53
 848 1330 848 1330 1010 1330 c 0,54,55
 1182 1330 1182 1330 1318 1242 c 0,56,57
 1472 1140 1472 1140 1472 976 c 2,58,-1
 1472 108 l 2,59,60
 1472 58 1472 58 1532 58 c 1,61,-1
 1532 0 l 1,0,-1
1030 324 m 0,62,63
 1030 456 1030 456 980 576 c 0,64,65
 916 730 916 730 802 730 c 0,66,67
 712 730 712 730 712 622 c 2,68,-1
 712 76 l 1,69,-1
 822 76 l 2,70,71
 912 76 912 76 971 151 c 128,-1,72
 1030 226 1030 226 1030 324 c 0,62,63
EndSplineSet
Ligature2: "'psts' Post Base Substitutions lookup 8 subtable" tm_ma tm_ikaar
EndChar

StartChar: tm_y_ikaar
Encoding: 65555 -1 132
Width: 1706
GlyphClass: 2
Flags: W
LayerCount: 2
Fore
SplineSet
1616 0 m 1,0,-1
 1340 0 l 1,1,-1
 1340 58 l 1,2,3
 1400 58 1400 58 1400 88 c 2,4,-1
 1400 896 l 2,5,6
 1400 1040 1400 1040 1340 1138 c 0,7,8
 1268 1254 1268 1254 1134 1254 c 0,9,10
 1008 1254 1008 1254 936 1169 c 128,-1,11
 864 1084 864 1084 864 946 c 0,12,13
 864 828 864 828 920 748 c 0,14,15
 962 688 962 688 1046 666 c 1,16,-1
 1046 720 l 2,17,18
 1046 750 1046 750 986 750 c 1,19,-1
 986 806 l 1,20,-1
 1260 806 l 1,21,-1
 1260 750 l 1,22,23
 1202 750 1202 750 1202 720 c 2,24,-1
 1202 128 l 2,25,26
 1202 90 1202 90 1158 38 c 1,27,28
 1114 0 1114 0 1054 0 c 2,29,-1
 638 0 l 2,30,31
 576 0 576 0 532 28 c 0,32,33
 528 30 528 30 492 82 c 1,34,35
 388 0 388 0 242 0 c 0,36,37
 202 0 202 0 166 30 c 1,38,39
 136 72 136 72 136 110 c 2,40,-1
 136 720 l 2,41,42
 136 750 136 750 76 750 c 1,43,-1
 76 806 l 1,44,-1
 352 806 l 1,45,-1
 352 750 l 1,46,47
 292 750 292 750 292 720 c 2,48,-1
 292 146 l 2,49,50
 292 96 292 96 322 96 c 0,51,52
 394 96 394 96 486 194 c 1,53,-1
 490 720 l 2,54,55
 490 750 490 750 432 750 c 1,56,-1
 432 806 l 1,57,-1
 706 806 l 1,58,-1
 706 750 l 1,59,60
 646 750 646 750 646 720 c 2,61,-1
 646 128 l 2,62,63
 646 76 646 76 698 76 c 2,64,-1
 994 76 l 2,65,66
 1046 76 1046 76 1046 128 c 2,67,-1
 1046 590 l 1,68,69
 904 590 904 590 796 692 c 128,-1,70
 688 794 688 794 688 946 c 0,71,72
 688 1126 688 1126 824 1232 c 0,73,74
 948 1330 948 1330 1134 1330 c 0,75,76
 1324 1330 1324 1330 1440 1209 c 128,-1,77
 1556 1088 1556 1088 1556 896 c 2,78,-1
 1556 88 l 2,79,80
 1556 58 1556 58 1616 58 c 1,81,-1
 1616 0 l 1,0,-1
EndSplineSet
Ligature2: "'psts' Post Base Substitutions lookup 8 subtable" tm_ya tm_ikaar
EndChar

StartChar: tm_r_ikaar
Encoding: 65556 -1 133
Width: 1284
GlyphClass: 2
Flags: W
LayerCount: 2
Fore
SplineSet
1196 0 m 1,0,-1
 922 0 l 1,1,-1
 922 58 l 1,2,3
 982 58 982 58 982 108 c 2,4,-1
 982 976 l 2,5,6
 982 1088 982 1088 916 1168 c 0,7,8
 844 1254 844 1254 734 1254 c 0,9,10
 640 1254 640 1254 573 1179 c 128,-1,11
 506 1104 506 1104 506 996 c 0,12,13
 506 930 506 930 544 870 c 0,14,15
 564 844 564 844 584 830 c 0,16,17
 596 818 596 818 624 800 c 1,18,-1
 846 800 l 1,19,-1
 846 676 l 1,20,21
 774 724 774 724 738 724 c 2,22,-1
 650 724 l 1,23,-1
 650 64 l 1,24,-1
 252 -250 l 1,25,-1
 192 -178 l 1,26,-1
 498 60 l 1,27,-1
 498 724 l 1,28,-1
 298 724 l 1,29,-1
 298 88 l 2,30,31
 298 56 298 56 356 56 c 1,32,-1
 356 0 l 1,33,-1
 86 0 l 1,34,-1
 86 56 l 1,35,36
 146 56 146 56 146 88 c 2,37,-1
 146 694 l 2,38,39
 146 736 146 736 96 800 c 1,40,-1
 414 800 l 1,41,-1
 368 868 l 2,42,43
 332 922 332 922 332 996 c 0,44,45
 332 1146 332 1146 462 1242 c 0,46,47
 580 1330 580 1330 734 1330 c 0,48,49
 894 1330 894 1330 1012 1234 c 0,50,51
 1138 1132 1138 1132 1138 976 c 2,52,-1
 1138 108 l 2,53,54
 1138 58 1138 58 1196 58 c 1,55,-1
 1196 0 l 1,0,-1
EndSplineSet
Ligature2: "'psts' Post Base Substitutions lookup 8 subtable" tm_ra tm_ikaar
EndChar

StartChar: tm_rr_ikaar
Encoding: 65557 -1 134
Width: 1624
GlyphClass: 2
Flags: W
LayerCount: 2
Fore
SplineSet
1538 -4 m 1,0,-1
 1262 -4 l 1,1,-1
 1262 52 l 1,2,3
 1322 52 1322 52 1322 104 c 2,4,-1
 1322 974 l 2,5,6
 1322 1094 1322 1094 1228 1176 c 0,7,8
 1138 1252 1138 1252 1016 1252 c 0,9,10
 910 1252 910 1252 833 1175 c 128,-1,11
 756 1098 756 1098 756 994 c 0,12,13
 756 920 756 920 796 870 c 1,14,15
 828 816 828 816 888 806 c 0,16,17
 1028 780 1028 780 1120 655 c 128,-1,18
 1212 530 1212 530 1212 362 c 0,19,20
 1212 144 1212 144 1082 -26 c 0,21,22
 940 -212 940 -212 728 -212 c 2,23,-1
 314 -212 l 2,24,25
 252 -212 252 -212 244 -282 c 1,26,27
 244 -348 244 -348 322 -340 c 1,28,-1
 322 -410 l 1,29,-1
 174 -410 l 2,30,31
 140 -410 140 -410 96 -372 c 1,32,33
 68 -330 68 -330 68 -282 c 0,34,35
 68 -220 68 -220 121 -177 c 128,-1,36
 174 -134 174 -134 254 -134 c 2,37,-1
 688 -134 l 2,38,39
 850 -134 850 -134 950 40 c 0,40,41
 1036 188 1036 188 1036 362 c 0,42,43
 1036 492 1036 492 978 598 c 0,44,45
 908 728 908 728 788 728 c 0,46,47
 734 728 734 728 696 696 c 128,-1,48
 658 664 658 664 658 608 c 2,49,-1
 658 104 l 2,50,51
 658 52 658 52 718 52 c 1,52,-1
 718 -4 l 1,53,-1
 444 -4 l 1,54,-1
 444 52 l 1,55,56
 502 52 502 52 502 104 c 2,57,-1
 502 606 l 1,58,59
 484 728 484 728 402 728 c 0,60,61
 372 728 372 728 344 694 c 1,62,63
 310 662 310 662 304 610 c 1,64,-1
 304 104 l 2,65,66
 304 52 304 52 362 52 c 1,67,-1
 362 -4 l 1,68,-1
 88 -4 l 1,69,-1
 88 52 l 1,70,71
 146 52 146 52 146 104 c 2,72,-1
 146 608 l 2,73,74
 146 698 146 698 232 756 c 0,75,76
 308 806 308 806 404 806 c 0,77,78
 518 806 518 806 590 740 c 1,79,80
 616 768 616 768 686 804 c 1,81,82
 634 840 634 840 618 866 c 0,83,84
 582 924 582 924 582 994 c 0,85,86
 582 1146 582 1146 728 1244 c 0,87,88
 856 1330 856 1330 1016 1330 c 0,89,90
 1208 1330 1208 1330 1343 1226 c 128,-1,91
 1478 1122 1478 1122 1478 974 c 2,92,-1
 1478 104 l 2,93,94
 1478 52 1478 52 1538 52 c 1,95,-1
 1538 -4 l 1,0,-1
EndSplineSet
Ligature2: "'psts' Post Base Substitutions lookup 8 subtable" tm_rra tm_ikaar
EndChar

StartChar: tm_l_ikaar
Encoding: 65558 -1 135
Width: 1868
GlyphClass: 2
Flags: W
LayerCount: 2
Fore
SplineSet
1782 0 m 1,0,-1
 1506 0 l 1,1,-1
 1506 58 l 1,2,3
 1564 58 1564 58 1564 108 c 2,4,-1
 1564 976 l 2,5,6
 1564 1090 1564 1090 1478 1172 c 128,-1,7
 1392 1254 1392 1254 1278 1254 c 0,8,9
 1172 1254 1172 1254 1094 1188 c 0,10,11
 1010 1118 1010 1118 1010 1014 c 0,12,13
 1010 854 1010 854 1216 736 c 0,14,15
 1312 680 1312 680 1374 582 c 128,-1,16
 1436 484 1436 484 1436 374 c 0,17,18
 1436 214 1436 214 1350 110 c 0,19,20
 1256 0 1256 0 1100 0 c 0,21,22
 938 0 938 0 846 124 c 0,23,24
 764 236 764 236 764 404 c 0,25,26
 764 532 764 532 714 620 c 0,27,28
 654 730 654 730 536 730 c 0,29,30
 454 730 454 730 380 676 c 0,31,32
 370 668 370 668 347 647 c 128,-1,33
 324 626 324 626 288 590 c 1,34,35
 388 610 388 610 418 610 c 0,36,37
 548 610 548 610 646 522 c 128,-1,38
 744 434 744 434 744 306 c 0,39,40
 744 182 744 182 651 91 c 128,-1,41
 558 0 558 0 418 0 c 0,42,43
 280 0 280 0 186 108 c 128,-1,44
 92 216 92 216 92 364 c 0,45,46
 92 550 92 550 224 678 c 128,-1,47
 356 806 356 806 536 806 c 0,48,49
 722 806 722 806 832 696 c 128,-1,50
 942 586 942 586 942 404 c 0,51,52
 942 250 942 250 986 159 c 128,-1,53
 1030 68 1030 68 1100 68 c 0,54,55
 1158 68 1158 68 1210 142 c 1,56,57
 1260 232 1260 232 1260 324 c 0,58,59
 1260 538 1260 538 1060 654 c 0,60,61
 950 718 950 718 896 794 c 0,62,63
 834 880 834 880 834 966 c 0,64,65
 834 1112 834 1112 961 1221 c 128,-1,66
 1088 1330 1088 1330 1278 1330 c 0,67,68
 1458 1330 1458 1330 1590 1225 c 128,-1,69
 1722 1120 1722 1120 1722 976 c 2,70,-1
 1722 108 l 2,71,72
 1722 58 1722 58 1782 58 c 1,73,-1
 1782 0 l 1,0,-1
568 306 m 0,74,75
 568 386 568 386 522 466 c 0,76,77
 484 532 484 532 418 532 c 0,78,79
 356 532 356 532 314 468 c 0,80,81
 268 398 268 398 268 306 c 0,82,83
 268 226 268 226 302 160 c 0,84,85
 346 76 346 76 418 76 c 0,86,87
 478 76 478 76 523 145 c 128,-1,88
 568 214 568 214 568 306 c 0,74,75
EndSplineSet
Ligature2: "'psts' Post Base Substitutions lookup 8 subtable" tm_la tm_ikaar
EndChar

StartChar: tm_ll_ikaar
Encoding: 65559 -1 136
Width: 1890
GlyphClass: 2
Flags: W
LayerCount: 2
Fore
SplineSet
1802 0 m 1,0,-1
 1526 0 l 1,1,-1
 1526 58 l 1,2,3
 1584 58 1584 58 1584 108 c 2,4,-1
 1584 1054 l 2,5,6
 1584 1136 1584 1136 1526 1195 c 128,-1,7
 1468 1254 1468 1254 1386 1254 c 0,8,9
 1296 1254 1296 1254 1240 1166 c 0,10,11
 1190 1090 1190 1090 1190 996 c 0,12,13
 1190 922 1190 922 1226 870 c 1,14,15
 1270 816 1270 816 1318 806 c 1,16,-1
 1506 806 l 1,17,-1
 1506 682 l 1,18,19
 1414 730 1414 730 1338 730 c 2,20,-1
 1298 730 l 1,21,-1
 1298 108 l 2,22,23
 1298 58 1298 58 1358 58 c 1,24,-1
 1358 0 l 1,25,-1
 1082 0 l 1,26,-1
 1082 58 l 1,27,28
 1140 58 1140 58 1140 108 c 2,29,-1
 1140 730 l 1,30,-1
 942 730 l 1,31,-1
 942 108 l 2,32,33
 942 58 942 58 1002 58 c 1,34,-1
 1002 0 l 1,35,-1
 724 0 l 1,36,-1
 724 58 l 1,37,38
 784 58 784 58 784 108 c 2,39,-1
 782 542 l 1,40,41
 756 626 756 626 672 678 c 128,-1,42
 588 730 588 730 498 730 c 0,43,44
 400 730 400 730 328 648 c 0,45,46
 312 630 312 630 272 578 c 1,47,48
 372 610 372 610 418 610 c 0,49,50
 548 610 548 610 646 522 c 128,-1,51
 744 434 744 434 744 306 c 0,52,53
 744 182 744 182 649 91 c 128,-1,54
 554 0 554 0 418 0 c 0,55,56
 286 0 286 0 186 104 c 0,57,58
 92 202 92 202 92 344 c 0,59,60
 92 530 92 530 200 664 c 0,61,62
 316 806 316 806 498 806 c 0,63,64
 662 806 662 806 784 716 c 1,65,-1
 784 806 l 1,66,-1
 1096 806 l 1,67,68
 1052 864 1052 864 1050 868 c 0,69,70
 1012 920 1012 920 1012 996 c 0,71,72
 1012 1140 1012 1140 1128 1238 c 0,73,74
 1240 1330 1240 1330 1386 1330 c 0,75,76
 1534 1330 1534 1330 1638 1248 c 128,-1,77
 1742 1166 1742 1166 1742 1054 c 2,78,-1
 1742 108 l 2,79,80
 1742 58 1742 58 1802 58 c 1,81,-1
 1802 0 l 1,0,-1
568 306 m 0,82,83
 568 386 568 386 522 466 c 0,84,85
 484 532 484 532 418 532 c 0,86,87
 356 532 356 532 314 468 c 0,88,89
 268 398 268 398 268 306 c 0,90,91
 268 226 268 226 302 160 c 0,92,93
 346 76 346 76 418 76 c 0,94,95
 476 76 476 76 522 142 c 1,96,97
 568 224 568 224 568 306 c 0,82,83
EndSplineSet
Ligature2: "'psts' Post Base Substitutions lookup 8 subtable" tm_lla tm_ikaar
EndChar

StartChar: tm_lll_ikaar
Encoding: 65560 -1 137
Width: 1620
GlyphClass: 2
Flags: W
LayerCount: 2
Fore
SplineSet
1532 -6 m 1,0,-1
 1256 -6 l 1,1,-1
 1256 52 l 1,2,3
 1316 52 1316 52 1316 102 c 2,4,-1
 1316 974 l 2,5,6
 1316 1094 1316 1094 1222 1176 c 0,7,8
 1132 1252 1132 1252 1010 1252 c 0,9,10
 898 1252 898 1252 820 1178 c 128,-1,11
 742 1104 742 1104 742 994 c 0,12,13
 742 924 742 924 780 868 c 1,14,15
 818 822 818 822 874 808 c 1,16,17
 1022 750 1022 750 1112 616 c 0,18,19
 1208 474 1208 474 1208 322 c 0,20,21
 1208 176 1208 176 1086 82 c 0,22,23
 972 -6 972 -6 822 -6 c 2,24,-1
 712 -6 l 1,25,-1
 712 -36 l 2,26,27
 712 -94 712 -94 747 -140 c 128,-1,28
 782 -186 782 -186 840 -186 c 2,29,-1
 1186 -186 l 1,30,-1
 1186 -296 l 1,31,32
 1136 -264 1136 -264 1096 -264 c 0,33,34
 1014 -264 1014 -264 928 -416 c 0,35,36
 880 -500 880 -500 772 -554 c 1,37,38
 654 -600 654 -600 526 -600 c 0,39,40
 394 -600 394 -600 284 -552 c 0,41,42
 142 -490 142 -490 142 -374 c 0,43,44
 142 -288 142 -288 201 -237 c 128,-1,45
 260 -186 260 -186 346 -186 c 2,46,-1
 556 -186 l 1,47,-1
 556 -320 l 1,48,49
 496 -264 496 -264 444 -264 c 0,50,51
 388 -264 388 -264 346 -290 c 0,52,53
 298 -322 298 -322 298 -374 c 0,54,55
 298 -432 298 -432 363 -477 c 128,-1,56
 428 -522 428 -522 526 -522 c 0,57,58
 700 -522 700 -522 794 -368 c 0,59,60
 804 -346 804 -346 820 -324 c 0,61,62
 826 -318 826 -318 870 -264 c 1,63,-1
 782 -264 l 2,64,65
 686 -264 686 -264 621 -199 c 128,-1,66
 556 -134 556 -134 556 -36 c 2,67,-1
 556 -6 l 1,68,-1
 230 -6 l 2,69,70
 194 -6 194 -6 162 26 c 1,71,72
 142 66 142 66 142 104 c 2,73,-1
 142 718 l 2,74,75
 142 746 142 746 82 746 c 1,76,-1
 82 806 l 1,77,-1
 358 806 l 1,78,-1
 358 746 l 1,79,80
 298 746 298 746 298 718 c 2,81,-1
 298 122 l 2,82,83
 298 72 298 72 368 72 c 2,84,-1
 556 72 l 1,85,-1
 556 618 l 2,86,87
 556 672 556 672 600 728 c 1,88,89
 626 750 626 750 678 792 c 1,90,91
 566 868 566 868 566 994 c 0,92,93
 566 1132 566 1132 693 1231 c 128,-1,94
 820 1330 820 1330 1010 1330 c 0,95,96
 1182 1330 1182 1330 1318 1240 c 0,97,98
 1472 1138 1472 1138 1472 974 c 2,99,-1
 1472 102 l 2,100,101
 1472 52 1472 52 1532 52 c 1,102,-1
 1532 -6 l 1,0,-1
1030 322 m 0,103,104
 1030 452 1030 452 980 572 c 0,105,106
 914 728 914 728 802 728 c 0,107,108
 760 728 760 728 736 698 c 128,-1,109
 712 668 712 668 712 620 c 2,110,-1
 712 72 l 1,111,-1
 822 72 l 2,112,113
 910 72 910 72 970 146 c 128,-1,114
 1030 220 1030 220 1030 322 c 0,103,104
EndSplineSet
Ligature2: "'psts' Post Base Substitutions lookup 8 subtable" tm_llla tm_ikaar
EndChar

StartChar: tm_v_ikaar
Encoding: 65561 -1 138
Width: 1940
GlyphClass: 2
Flags: W
LayerCount: 2
Fore
SplineSet
1854 0 m 1,0,-1
 1578 0 l 1,1,-1
 1578 58 l 1,2,3
 1638 58 1638 58 1638 88 c 2,4,-1
 1638 896 l 2,5,6
 1638 1040 1638 1040 1576 1138 c 0,7,8
 1504 1254 1504 1254 1368 1254 c 0,9,10
 1244 1254 1244 1254 1173 1171 c 128,-1,11
 1102 1088 1102 1088 1102 946 c 0,12,13
 1102 832 1102 832 1158 748 c 0,14,15
 1198 690 1198 690 1280 664 c 1,16,-1
 1280 720 l 2,17,18
 1280 750 1280 750 1222 750 c 1,19,-1
 1222 806 l 1,20,-1
 1498 806 l 1,21,-1
 1498 750 l 1,22,23
 1438 750 1438 750 1438 720 c 2,24,-1
 1438 128 l 2,25,26
 1438 76 1438 76 1400 38 c 128,-1,27
 1362 0 1362 0 1310 0 c 2,28,-1
 708 0 l 1,29,-1
 708 102 l 1,30,31
 744 86 744 86 788 76 c 1,32,33
 844 76 844 76 890 163 c 128,-1,34
 936 250 936 250 936 384 c 0,35,36
 936 526 936 526 850 634 c 0,37,38
 756 750 756 750 618 750 c 0,39,40
 498 750 498 750 408 690 c 0,41,42
 366 662 366 662 342 638 c 1,43,-1
 362 602 l 1,44,45
 386 610 386 610 420 610 c 0,46,47
 552 610 552 610 648 523 c 128,-1,48
 744 436 744 436 744 306 c 0,49,50
 744 182 744 182 651 91 c 128,-1,51
 558 0 558 0 420 0 c 0,52,53
 270 0 270 0 178 106 c 0,54,55
 94 204 94 204 94 374 c 0,56,57
 94 578 94 578 258 706 c 0,58,59
 410 826 410 826 618 826 c 0,60,61
 818 826 818 826 960 706 c 0,62,63
 1112 580 1112 580 1112 384 c 0,64,65
 1112 286 1112 286 1060 190 c 0,66,67
 1034 142 1034 142 968 76 c 1,68,-1
 1232 76 l 2,69,70
 1280 76 1280 76 1280 128 c 2,71,-1
 1280 590 l 1,72,73
 1142 590 1142 590 1033 693 c 128,-1,74
 924 796 924 796 924 946 c 0,75,76
 924 1124 924 1124 1060 1232 c 0,77,78
 1186 1330 1186 1330 1368 1330 c 0,79,80
 1560 1330 1560 1330 1677 1213 c 128,-1,81
 1794 1096 1794 1096 1794 896 c 2,82,-1
 1794 88 l 2,83,84
 1794 58 1794 58 1854 58 c 1,85,-1
 1854 0 l 1,0,-1
568 306 m 0,86,87
 568 384 568 384 534 450 c 0,88,89
 490 532 490 532 420 532 c 0,90,91
 358 532 358 532 316 468 c 0,92,93
 270 398 270 398 270 306 c 0,94,95
 270 226 270 226 304 160 c 0,96,97
 348 76 348 76 420 76 c 0,98,99
 480 76 480 76 524 143 c 128,-1,100
 568 210 568 210 568 306 c 0,86,87
EndSplineSet
Ligature2: "'psts' Post Base Substitutions lookup 8 subtable" tm_va tm_ikaar
EndChar

StartChar: tm_ss_ikaar
Encoding: 65562 -1 139
Width: 2522
GlyphClass: 2
Flags: W
LayerCount: 2
Fore
SplineSet
2432 -2 m 1,0,-1
 2156 -2 l 1,1,-1
 2156 56 l 1,2,3
 2214 56 2214 56 2214 104 c 2,4,-1
 2214 974 l 2,5,6
 2214 1094 2214 1094 2106 1170 c 0,7,8
 2042 1216 2042 1216 1990 1234 c 1,9,10
 1920 1252 1920 1252 1846 1252 c 0,11,12
 1716 1252 1716 1252 1608 1190 c 0,13,14
 1480 1116 1480 1116 1480 996 c 0,15,16
 1480 920 1480 920 1518 870 c 1,17,18
 1546 826 1546 826 1616 804 c 0,19,20
 1696 782 1696 782 1730 742 c 0,21,22
 1776 690 1776 690 1776 630 c 2,23,-1
 1776 390 l 1,24,-1
 1966 390 l 2,25,26
 2052 390 2052 390 2113 337 c 128,-1,27
 2174 284 2174 284 2174 204 c 256,28,29
 2174 124 2174 124 2113 61 c 128,-1,30
 2052 -2 2052 -2 1966 -2 c 2,31,-1
 1776 -2 l 1,32,-1
 1776 -132 l 2,33,34
 1776 -182 1776 -182 1836 -182 c 1,35,-1
 1836 -240 l 1,36,-1
 1560 -240 l 1,37,-1
 1560 -182 l 1,38,39
 1620 -182 1620 -182 1620 -132 c 2,40,-1
 1620 -2 l 1,41,-1
 706 -2 l 1,42,-1
 706 100 l 1,43,44
 750 82 750 82 788 74 c 1,45,46
 854 74 854 74 904 163 c 128,-1,47
 954 252 954 252 954 382 c 0,48,49
 954 536 954 536 851 647 c 128,-1,50
 748 758 748 758 606 758 c 0,51,52
 492 758 492 758 406 700 c 0,53,54
 376 680 376 680 286 578 c 1,55,56
 382 608 382 608 420 608 c 0,57,58
 554 608 554 608 650 520 c 128,-1,59
 746 432 746 432 746 304 c 0,60,61
 746 172 746 172 650 85 c 128,-1,62
 554 -2 554 -2 420 -2 c 0,63,64
 276 -2 276 -2 182 110 c 0,65,66
 92 214 92 214 92 362 c 0,67,68
 92 556 92 556 245 691 c 128,-1,69
 398 826 398 826 606 826 c 0,70,71
 810 826 810 826 960 708 c 0,72,73
 1122 580 1122 580 1122 382 c 0,74,75
 1122 204 1122 204 984 74 c 1,76,-1
 1620 74 l 1,77,-1
 1620 314 l 1,78,-1
 1490 314 l 2,79,80
 1366 314 1366 314 1288 378 c 0,81,82
 1202 448 1202 448 1202 540 c 0,83,84
 1202 638 1202 638 1272 716 c 0,85,86
 1312 760 1312 760 1412 800 c 1,87,88
 1384 822 1384 822 1340 866 c 1,89,90
 1302 924 1302 924 1302 996 c 0,91,92
 1302 1156 1302 1156 1494 1252 c 0,93,94
 1652 1330 1652 1330 1828 1330 c 0,95,96
 2012 1330 2012 1330 2174 1246 c 0,97,98
 2372 1142 2372 1142 2372 974 c 2,99,-1
 2372 104 l 2,100,101
 2372 56 2372 56 2432 56 c 1,102,-1
 2432 -2 l 1,0,-1
1996 206 m 0,103,104
 1996 260 1996 260 1942 296 c 0,105,106
 1914 314 1914 314 1876 314 c 2,107,-1
 1776 314 l 1,108,-1
 1776 74 l 1,109,-1
 1876 74 l 2,110,111
 1926 74 1926 74 1961 114 c 128,-1,112
 1996 154 1996 154 1996 206 c 0,103,104
1620 390 m 1,113,-1
 1620 628 l 2,114,115
 1620 674 1620 674 1592 701 c 128,-1,116
 1564 728 1564 728 1518 728 c 256,117,118
 1472 728 1472 728 1420 676 c 1,119,120
 1380 614 1380 614 1380 538 c 0,121,122
 1380 442 1380 442 1460 402 c 0,123,124
 1484 390 1484 390 1508 390 c 2,125,-1
 1620 390 l 1,113,-1
568 304 m 256,126,127
 568 392 568 392 525 462 c 128,-1,128
 482 532 482 532 420 532 c 0,129,130
 348 532 348 532 304 450 c 0,131,132
 270 384 270 384 270 304 c 0,133,134
 270 222 270 222 304 156 c 0,135,136
 346 74 346 74 420 74 c 0,137,138
 476 74 476 74 524 140 c 1,139,140
 568 216 568 216 568 304 c 256,126,127
EndSplineSet
Ligature2: "'psts' Post Base Substitutions lookup 8 subtable" tm_ssa tm_ikaar
EndChar

StartChar: tm_s_ikaar
Encoding: 65563 -1 140
Width: 2300
GlyphClass: 2
Flags: W
LayerCount: 2
Fore
SplineSet
2212 0 m 1,0,-1
 1934 0 l 1,1,-1
 1934 58 l 1,2,3
 1996 58 1996 58 1996 108 c 2,4,-1
 1996 976 l 2,5,6
 1996 1084 1996 1084 1925 1169 c 128,-1,7
 1854 1254 1854 1254 1748 1254 c 0,8,9
 1654 1254 1654 1254 1586 1192 c 128,-1,10
 1518 1130 1518 1130 1518 1036 c 0,11,12
 1518 922 1518 922 1612 818 c 1,13,-1
 1792 654 l 2,14,15
 1894 562 1894 562 1894 404 c 0,16,17
 1894 218 1894 218 1783 109 c 128,-1,18
 1672 0 1672 0 1488 0 c 0,19,20
 1364 0 1364 0 1286 60 c 0,21,22
 1202 124 1202 124 1202 206 c 2,23,-1
 1202 600 l 2,24,25
 1202 652 1202 652 1163 691 c 128,-1,26
 1124 730 1124 730 1072 730 c 0,27,28
 1022 730 1022 730 983 699 c 128,-1,29
 944 668 944 668 944 620 c 2,30,-1
 944 108 l 2,31,32
 944 58 944 58 1004 58 c 1,33,-1
 1004 0 l 1,34,-1
 726 0 l 1,35,-1
 726 58 l 1,36,37
 786 58 786 58 786 108 c 2,38,-1
 786 540 l 1,39,40
 774 624 774 624 700 677 c 128,-1,41
 626 730 626 730 538 730 c 0,42,43
 452 730 452 730 384 676 c 2,44,-1
 336 638 l 1,45,-1
 360 602 l 1,46,47
 384 610 384 610 418 610 c 0,48,49
 550 610 550 610 647 523 c 128,-1,50
 744 436 744 436 744 306 c 0,51,52
 744 182 744 182 651 91 c 128,-1,53
 558 0 558 0 418 0 c 0,54,55
 282 0 282 0 187 109 c 128,-1,56
 92 218 92 218 92 364 c 0,57,58
 92 554 92 554 220 676 c 0,59,60
 356 806 356 806 538 806 c 0,61,62
 666 806 666 806 750 770 c 0,63,64
 798 748 798 748 854 692 c 1,65,66
 946 806 946 806 1070 806 c 0,67,68
 1204 806 1204 806 1282 748 c 128,-1,69
 1360 690 1360 690 1360 600 c 2,70,-1
 1360 206 l 2,71,72
 1360 150 1360 150 1394 116 c 0,73,74
 1432 76 1432 76 1488 76 c 0,75,76
 1586 76 1586 76 1651 150 c 128,-1,77
 1716 224 1716 224 1716 324 c 0,78,79
 1716 478 1716 478 1622 588 c 1,80,-1
 1440 756 l 2,81,82
 1342 846 1342 846 1342 996 c 0,83,84
 1342 1136 1342 1136 1461 1233 c 128,-1,85
 1580 1330 1580 1330 1748 1330 c 0,86,87
 1912 1330 1912 1330 2032 1224 c 128,-1,88
 2152 1118 2152 1118 2152 976 c 2,89,-1
 2152 108 l 2,90,91
 2152 58 2152 58 2212 58 c 1,92,-1
 2212 0 l 1,0,-1
566 306 m 0,93,94
 566 384 566 384 530 450 c 0,95,96
 488 532 488 532 418 532 c 0,97,98
 346 532 346 532 304 452 c 0,99,100
 270 386 270 386 270 306 c 0,101,102
 270 214 270 214 310 144 c 1,103,104
 358 76 358 76 418 76 c 0,105,106
 492 76 492 76 532 158 c 0,107,108
 566 224 566 224 566 306 c 0,93,94
EndSplineSet
Ligature2: "'psts' Post Base Substitutions lookup 8 subtable" tm_sa tm_ikaar
EndChar

StartChar: tm_h_ikaar
Encoding: 65564 -1 141
Width: 2580
GlyphClass: 2
Flags: W
LayerCount: 2
Fore
SplineSet
2494 -4 m 1,0,-1
 2218 -4 l 1,1,-1
 2218 52 l 1,2,3
 2276 52 2276 52 2276 104 c 2,4,-1
 2276 974 l 2,5,6
 2276 1084 2276 1084 2218 1164 c 0,7,8
 2154 1252 2154 1252 2048 1252 c 256,9,10
 1942 1252 1942 1252 1871 1176 c 128,-1,11
 1800 1100 1800 1100 1800 994 c 0,12,13
 1800 820 1800 820 1852 806 c 1,14,15
 2010 806 2010 806 2110 646 c 0,16,17
 2198 508 2198 508 2198 342 c 0,18,19
 2198 142 2198 142 2106 -20 c 0,20,21
 1996 -212 1996 -212 1810 -212 c 2,22,-1
 342 -212 l 2,23,24
 302 -212 302 -212 272 -230 c 1,25,26
 256 -246 256 -246 252 -282 c 0,27,28
 252 -318 252 -318 290 -344 c 0,29,30
 302 -352 302 -352 332 -352 c 1,31,-1
 332 -410 l 1,32,-1
 202 -410 l 2,33,34
 158 -410 158 -410 122 -370 c 1,35,36
 94 -330 94 -330 94 -282 c 0,37,38
 94 -228 94 -228 140 -176 c 1,39,40
 194 -134 194 -134 260 -134 c 2,41,-1
 1770 -134 l 2,42,43
 1868 -134 1868 -134 1943 6 c 128,-1,44
 2018 146 2018 146 2018 342 c 0,45,46
 2018 504 2018 504 1965 616 c 128,-1,47
 1912 728 1912 728 1838 728 c 0,48,49
 1796 728 1796 728 1762 704 c 0,50,51
 1722 678 1722 678 1722 638 c 2,52,-1
 1722 104 l 2,53,54
 1722 52 1722 52 1780 52 c 1,55,-1
 1780 -4 l 1,56,-1
 1504 -4 l 1,57,-1
 1504 52 l 1,58,59
 1562 52 1562 52 1562 104 c 2,60,-1
 1562 638 l 2,61,62
 1562 678 1562 678 1532 703 c 128,-1,63
 1502 728 1502 728 1462 728 c 0,64,65
 1424 728 1424 728 1394 702 c 128,-1,66
 1364 676 1364 676 1364 640 c 2,67,-1
 1364 104 l 2,68,69
 1364 52 1364 52 1422 52 c 1,70,-1
 1422 -4 l 1,71,-1
 708 -4 l 1,72,-1
 708 100 l 1,73,-1
 762 76 l 1,74,75
 830 76 830 76 879 164 c 128,-1,76
 928 252 928 252 928 380 c 0,77,78
 928 522 928 522 835 625 c 128,-1,79
 742 728 742 728 600 728 c 0,80,81
 488 728 488 728 404 676 c 0,82,83
 376 658 376 658 358 642 c 2,84,85
 358 642 358 642 300 584 c 1,86,87
 390 608 390 608 422 608 c 0,88,89
 554 608 554 608 650 521 c 128,-1,90
 746 434 746 434 746 302 c 0,91,92
 746 174 746 174 651 85 c 128,-1,93
 556 -4 556 -4 422 -4 c 0,94,95
 278 -4 278 -4 184 110 c 0,96,97
 94 216 94 216 94 362 c 0,98,99
 94 566 94 566 230 682 c 0,100,101
 376 806 376 806 600 806 c 0,102,103
 828 806 828 806 966 690 c 128,-1,104
 1104 574 1104 574 1104 380 c 0,105,106
 1104 204 1104 204 982 74 c 1,107,-1
 1204 74 l 1,108,-1
 1204 618 l 2,109,110
 1204 692 1204 692 1277 749 c 128,-1,111
 1350 806 1350 806 1452 806 c 0,112,113
 1568 806 1568 806 1644 742 c 1,114,115
 1668 768 1668 768 1728 794 c 1,116,117
 1622 888 1622 888 1622 994 c 0,118,119
 1622 1128 1622 1128 1750 1232 c 0,120,121
 1872 1330 1872 1330 2048 1330 c 0,122,123
 2202 1330 2202 1330 2318 1228 c 128,-1,124
 2434 1126 2434 1126 2434 974 c 2,125,-1
 2434 104 l 2,126,127
 2434 52 2434 52 2494 52 c 1,128,-1
 2494 -4 l 1,0,-1
570 302 m 0,129,130
 570 392 570 392 526 461 c 128,-1,131
 482 530 482 530 422 530 c 0,132,133
 350 530 350 530 306 448 c 0,134,135
 270 380 270 380 270 302 c 0,136,137
 270 208 270 208 314 141 c 128,-1,138
 358 74 358 74 422 74 c 0,139,140
 478 74 478 74 526 138 c 1,141,142
 570 214 570 214 570 302 c 0,129,130
EndSplineSet
Ligature2: "'psts' Post Base Substitutions lookup 8 subtable" tm_ha tm_ikaar
EndChar

StartChar: tm_k_iikaar
Encoding: 65565 -1 142
Width: 1208
GlyphClass: 2
Flags: W
LayerCount: 2
Fore
SplineSet
1138 266 m 0,0,1
 1138 152 1138 152 1063 76 c 128,-1,2
 988 0 988 0 874 0 c 2,3,-1
 708 0 l 1,4,-1
 708 108 l 1,5,6
 752 78 752 78 798 78 c 0,7,8
 862 78 862 78 914 132 c 1,9,10
 964 196 964 196 964 266 c 0,11,12
 964 330 964 330 916 398 c 1,13,14
 868 454 868 454 796 454 c 2,15,-1
 706 454 l 1,16,-1
 706 206 l 2,17,18
 706 118 706 118 618 56 c 0,19,20
 538 0 538 0 402 0 c 0,21,22
 268 0 268 0 178 64 c 0,23,24
 78 138 78 138 78 266 c 0,25,26
 78 358 78 358 122 424 c 0,27,28
 170 498 170 498 254 518 c 1,29,-1
 254 808 l 1,30,-1
 520 808 l 1,31,32
 392 936 392 936 392 1086 c 0,33,34
 392 1214 392 1214 481 1302 c 128,-1,35
 570 1390 570 1390 698 1390 c 0,36,37
 812 1390 812 1390 902 1326 c 0,38,39
 1000 1254 1000 1254 1000 1144 c 256,40,41
 1000 1034 1000 1034 902 958 c 0,42,43
 812 888 812 888 698 888 c 0,44,45
 644 888 644 888 552 932 c 1,46,47
 574 872 574 872 594 852 c 0,48,49
 638 808 638 808 698 808 c 2,50,-1
 990 808 l 1,51,-1
 990 680 l 1,52,53
 920 726 920 726 862 732 c 1,54,-1
 706 732 l 1,55,-1
 706 532 l 1,56,-1
 874 532 l 2,57,58
 984 532 984 532 1061 454 c 128,-1,59
 1138 376 1138 376 1138 266 c 0,0,1
826 1144 m 0,60,61
 826 1206 826 1206 786 1262 c 0,62,63
 750 1312 750 1312 698 1312 c 0,64,65
 632 1312 632 1312 600 1261 c 128,-1,66
 568 1210 568 1210 568 1142 c 0,67,68
 568 1072 568 1072 604 1024 c 128,-1,69
 640 976 640 976 698 976 c 0,70,71
 748 976 748 976 786 1026 c 1,72,73
 826 1070 826 1070 826 1144 c 0,60,61
550 532 m 1,74,-1
 550 732 l 1,75,-1
 410 732 l 1,76,-1
 410 532 l 1,77,-1
 550 532 l 1,74,-1
550 206 m 2,78,-1
 550 454 l 1,79,-1
 402 454 l 2,80,81
 336 454 336 454 294 396 c 128,-1,82
 252 338 252 338 252 264 c 0,83,84
 252 192 252 192 292 138 c 0,85,86
 334 78 334 78 404 78 c 0,87,88
 464 78 464 78 507 114 c 128,-1,89
 550 150 550 150 550 206 c 2,78,-1
EndSplineSet
Ligature2: "'abvs' Above Base Substitutions lookup 6 subtable" tm_ka tm_iikaar
EndChar

StartChar: tm_ng_iikaar
Encoding: 65566 -1 143
Width: 1508
GlyphClass: 2
Flags: W
LayerCount: 2
Fore
SplineSet
1486 1144 m 0,0,1
 1486 1040 1486 1040 1394 966 c 0,2,3
 1310 898 1310 898 1202 898 c 0,4,5
 1114 898 1114 898 1024 956 c 1,6,7
 1036 834 1036 834 1079 763 c 128,-1,8
 1122 692 1122 692 1212 666 c 1,9,-1
 1212 700 l 2,10,11
 1212 750 1212 750 1154 750 c 1,12,-1
 1154 808 l 1,13,-1
 1426 808 l 1,14,-1
 1426 750 l 1,15,16
 1368 750 1368 750 1368 700 c 2,17,-1
 1368 88 l 2,18,19
 1368 64 1368 64 1426 58 c 1,20,-1
 1426 0 l 1,21,-1
 442 0 l 1,22,-1
 442 116 l 1,23,24
 502 78 502 78 568 78 c 2,25,-1
 726 78 l 2,26,27
 812 78 812 78 868 162 c 0,28,29
 916 234 916 234 916 326 c 0,30,31
 916 394 916 394 874 453 c 128,-1,32
 832 512 832 512 766 512 c 0,33,34
 710 512 710 512 658 460 c 1,35,-1
 656 286 l 2,36,37
 656 256 656 256 716 256 c 1,38,-1
 716 198 l 1,39,-1
 442 198 l 1,40,-1
 442 256 l 1,41,42
 500 256 500 256 500 286 c 2,43,-1
 500 732 l 1,44,-1
 300 732 l 1,45,-1
 300 88 l 2,46,47
 300 58 300 58 360 58 c 1,48,-1
 360 0 l 1,49,-1
 86 0 l 1,50,-1
 86 58 l 1,51,52
 144 58 144 58 144 88 c 2,53,-1
 144 700 l 2,54,55
 144 746 144 746 94 808 c 1,56,-1
 854 808 l 1,57,-1
 854 682 l 1,58,59
 762 732 762 732 688 732 c 2,60,-1
 656 732 l 1,61,-1
 656 570 l 1,62,63
 730 610 730 610 824 610 c 0,64,65
 940 610 940 610 1015 527 c 128,-1,66
 1090 444 1090 444 1090 326 c 0,67,68
 1090 230 1090 230 1044 158 c 0,69,70
 1032 132 1032 132 960 78 c 1,71,-1
 1212 78 l 1,72,-1
 1212 594 l 1,73,74
 1074 594 1074 594 975 714 c 128,-1,75
 876 834 876 834 876 1004 c 0,76,77
 876 1168 876 1168 956 1274 c 0,78,79
 1044 1390 1044 1390 1202 1390 c 0,80,81
 1314 1390 1314 1390 1400 1316 c 128,-1,82
 1486 1242 1486 1242 1486 1144 c 0,0,1
1330 1144 m 0,83,84
 1330 1206 1330 1206 1290 1262 c 0,85,86
 1254 1312 1254 1312 1202 1312 c 0,87,88
 1138 1312 1138 1312 1105 1261 c 128,-1,89
 1072 1210 1072 1210 1072 1142 c 0,90,91
 1072 1072 1072 1072 1108 1024 c 128,-1,92
 1144 976 1144 976 1202 976 c 0,93,94
 1252 976 1252 976 1290 1026 c 1,95,96
 1330 1070 1330 1070 1330 1144 c 0,83,84
EndSplineSet
Ligature2: "'abvs' Above Base Substitutions lookup 6 subtable" tm_nga tm_iikaar
EndChar

StartChar: tm_c_iikaar
Encoding: 65567 -1 144
Width: 1044
GlyphClass: 2
Flags: W
LayerCount: 2
Fore
SplineSet
1020 404 m 1,0,1
 948 454 948 454 892 454 c 2,2,-1
 706 454 l 1,3,-1
 706 206 l 2,4,5
 706 110 706 110 598 50 c 0,6,7
 506 0 506 0 402 0 c 0,8,9
 268 0 268 0 180 64 c 0,10,11
 80 136 80 136 80 266 c 0,12,13
 80 384 80 384 132 440 c 1,14,15
 164 500 164 500 258 520 c 1,16,-1
 258 808 l 1,17,-1
 520 808 l 1,18,19
 394 934 394 934 394 1086 c 0,20,21
 394 1212 394 1212 482 1301 c 128,-1,22
 570 1390 570 1390 696 1390 c 0,23,24
 810 1390 810 1390 900 1326 c 0,25,26
 1002 1254 1002 1254 1002 1144 c 0,27,28
 1002 1040 1002 1040 912 964 c 128,-1,29
 822 888 822 888 696 888 c 0,30,31
 644 888 644 888 552 940 c 1,32,33
 566 904 566 904 594 852 c 1,34,35
 642 808 642 808 696 808 c 2,36,-1
 962 808 l 1,37,-1
 962 680 l 1,38,39
 898 724 898 724 842 732 c 1,40,-1
 706 732 l 1,41,-1
 706 532 l 1,42,-1
 1020 532 l 1,43,-1
 1020 404 l 1,0,1
826 1144 m 0,44,45
 826 1214 826 1214 786 1262 c 1,46,47
 758 1312 758 1312 696 1312 c 0,48,49
 648 1312 648 1312 604 1266 c 1,50,51
 568 1220 568 1220 568 1142 c 0,52,53
 568 1080 568 1080 600 1032 c 0,54,55
 638 976 638 976 696 976 c 0,56,57
 748 976 748 976 784 1026 c 1,58,59
 826 1068 826 1068 826 1144 c 0,44,45
552 532 m 1,60,-1
 552 732 l 1,61,-1
 412 732 l 1,62,-1
 412 532 l 1,63,-1
 552 532 l 1,60,-1
552 206 m 2,64,-1
 552 454 l 1,65,-1
 402 454 l 2,66,67
 334 454 334 454 294 395 c 128,-1,68
 254 336 254 336 254 264 c 0,69,70
 254 138 254 138 344 92 c 0,71,72
 372 78 372 78 404 78 c 0,73,74
 466 78 466 78 509 114 c 128,-1,75
 552 150 552 150 552 206 c 2,64,-1
EndSplineSet
Ligature2: "'abvs' Above Base Substitutions lookup 6 subtable" tm_ca tm_iikaar
EndChar

StartChar: tm_j_iikaar
Encoding: 65568 -1 145
Width: 1478
GlyphClass: 2
Flags: W
LayerCount: 2
Fore
SplineSet
1478 1142 m 0,0,1
 1478 1032 1478 1032 1387 959 c 128,-1,2
 1296 886 1296 886 1174 886 c 0,3,4
 1116 886 1116 886 1028 936 c 1,5,6
 1042 900 1042 900 1070 850 c 1,7,8
 1118 806 1118 806 1178 806 c 1,9,10
 1264 774 1264 774 1327 658 c 128,-1,11
 1390 542 1390 542 1390 402 c 0,12,13
 1390 234 1390 234 1278 106 c 0,14,15
 1160 -26 1160 -26 994 -26 c 2,16,-1
 442 -26 l 2,17,18
 364 -26 364 -26 308 -84 c 128,-1,19
 252 -142 252 -142 252 -234 c 0,20,21
 252 -306 252 -306 312 -370 c 1,22,23
 386 -432 386 -432 462 -432 c 0,24,25
 634 -432 634 -432 762 -286 c 0,26,27
 848 -188 848 -188 916 -150 c 0,28,29
 996 -106 996 -106 1084 -106 c 0,30,31
 1180 -106 1180 -106 1254 -156 c 0,32,33
 1340 -212 1340 -212 1340 -302 c 0,34,35
 1340 -390 1340 -390 1258 -448 c 0,36,37
 1184 -500 1184 -500 1092 -500 c 0,38,39
 956 -500 956 -500 908 -382 c 1,40,-1
 1004 -304 l 1,41,42
 1004 -354 1004 -354 1028 -378 c 1,43,44
 1062 -402 1062 -402 1092 -402 c 0,45,46
 1126 -402 1126 -402 1146 -362 c 0,47,48
 1162 -328 1162 -328 1162 -292 c 0,49,50
 1162 -204 1162 -204 1072 -204 c 0,51,52
 938 -204 938 -204 826 -340 c 0,53,54
 676 -520 676 -520 372 -520 c 0,55,56
 248 -520 248 -520 163 -438 c 128,-1,57
 78 -356 78 -356 78 -234 c 256,58,59
 78 -112 78 -112 164 -29 c 128,-1,60
 250 54 250 54 372 54 c 2,61,-1
 994 54 l 2,62,63
 1084 54 1084 54 1142 154 c 0,64,65
 1204 262 1204 262 1204 402 c 0,66,67
 1204 530 1204 530 1156 632 c 0,68,69
 1112 728 1112 728 1054 728 c 0,70,71
 990 728 990 728 956 672 c 0,72,73
 926 626 926 626 926 558 c 2,74,-1
 926 222 l 2,75,76
 926 172 926 172 984 172 c 1,77,-1
 984 114 l 1,78,-1
 710 114 l 1,79,-1
 710 172 l 1,80,81
 770 172 770 172 770 222 c 2,82,-1
 770 558 l 2,83,84
 770 640 770 640 672 688 c 0,85,86
 592 728 592 728 502 728 c 256,87,88
 412 728 412 728 348 684 c 1,89,-1
 356 642 l 1,90,-1
 402 646 l 2,91,92
 526 656 526 656 634 570 c 0,93,94
 728 494 728 494 728 392 c 0,95,96
 728 270 728 270 624 190 c 0,97,98
 530 114 530 114 404 114 c 0,99,100
 266 114 266 114 172 208 c 128,-1,101
 78 302 78 302 78 440 c 0,102,103
 78 604 78 604 191 705 c 128,-1,104
 304 806 304 806 502 806 c 0,105,106
 732 806 732 806 848 668 c 1,107,108
 910 766 910 766 1014 804 c 1,109,110
 868 920 868 920 868 1084 c 0,111,112
 868 1214 868 1214 956 1302 c 128,-1,113
 1044 1390 1044 1390 1174 1390 c 0,114,115
 1292 1390 1292 1390 1385 1317 c 128,-1,116
 1478 1244 1478 1244 1478 1142 c 0,0,1
1302 1142 m 0,117,118
 1302 1202 1302 1202 1262 1262 c 0,119,120
 1228 1312 1228 1312 1174 1312 c 0,121,122
 1124 1312 1124 1312 1078 1266 c 1,123,124
 1044 1214 1044 1214 1044 1140 c 0,125,126
 1044 1078 1044 1078 1083 1026 c 128,-1,127
 1122 974 1122 974 1174 974 c 0,128,129
 1224 974 1224 974 1263 1022 c 128,-1,130
 1302 1070 1302 1070 1302 1142 c 0,117,118
552 392 m 0,131,132
 552 450 552 450 506 518 c 1,133,134
 462 568 462 568 402 568 c 0,135,136
 334 568 334 568 290 504 c 0,137,138
 252 448 252 448 252 378 c 256,139,140
 252 308 252 308 292 252 c 0,141,142
 338 190 338 190 404 190 c 0,143,144
 468 190 468 190 514 262 c 0,145,146
 552 324 552 324 552 392 c 0,131,132
EndSplineSet
Ligature2: "'abvs' Above Base Substitutions lookup 6 subtable" tm_ja tm_iikaar
EndChar

StartChar: tm_ny_iikaar
Encoding: 65569 -1 146
Width: 1872
GlyphClass: 2
Flags: W
LayerCount: 2
Fore
SplineSet
1786 214 m 0,0,1
 1786 -82 1786 -82 1516 -280 c 0,2,3
 1272 -460 1272 -460 966 -460 c 0,4,5
 630 -460 630 -460 378 -260 c 0,6,7
 106 -46 106 -46 106 282 c 0,8,9
 106 482 106 482 208 626 c 0,10,11
 306 764 306 764 480 808 c 1,12,-1
 480 730 l 1,13,14
 386 680 386 680 336 568 c 0,15,16
 282 448 282 448 282 282 c 0,17,18
 282 4 282 4 484 -189 c 128,-1,19
 686 -382 686 -382 966 -382 c 0,20,21
 1220 -382 1220 -382 1410 -214 c 0,22,23
 1610 -38 1610 -38 1610 212 c 0,24,25
 1610 294 1610 294 1568 362 c 0,26,27
 1518 442 1518 442 1440 442 c 0,28,29
 1376 442 1376 442 1310 378 c 1,30,-1
 1310 104 l 2,31,32
 1310 54 1310 54 1370 54 c 1,33,-1
 1370 -4 l 1,34,-1
 1096 -4 l 1,35,-1
 1096 54 l 1,36,37
 1154 54 1154 54 1154 104 c 2,38,-1
 1154 728 l 1,39,-1
 848 728 l 2,40,41
 774 728 774 728 708 674 c 0,42,43
 696 668 696 668 676 647 c 128,-1,44
 656 626 656 626 612 580 c 1,45,46
 734 608 734 608 768 608 c 0,47,48
 900 608 900 608 997 520 c 128,-1,49
 1094 432 1094 432 1094 302 c 0,50,51
 1094 178 1094 178 1001 87 c 128,-1,52
 908 -4 908 -4 768 -4 c 0,53,54
 638 -4 638 -4 542 96 c 0,55,56
 452 188 452 188 452 342 c 0,57,58
 452 538 452 538 550 666 c 0,59,60
 658 806 658 806 848 806 c 2,61,-1
 1106 806 l 1,62,63
 976 928 976 928 976 1084 c 0,64,65
 976 1212 976 1212 1065 1301 c 128,-1,66
 1154 1390 1154 1390 1282 1390 c 0,67,68
 1398 1390 1398 1390 1488 1324 c 0,69,70
 1588 1252 1588 1252 1588 1142 c 0,71,72
 1588 1034 1588 1034 1499 961 c 128,-1,73
 1410 888 1410 888 1282 888 c 0,74,75
 1228 888 1228 888 1128 932 c 1,76,-1
 1164 874 l 2,77,78
 1206 806 1206 806 1282 806 c 2,79,-1
 1568 806 l 1,80,-1
 1568 676 l 1,81,82
 1496 728 1496 728 1400 728 c 2,83,-1
 1310 728 l 1,84,-1
 1310 486 l 1,85,86
 1396 540 1396 540 1480 540 c 0,87,88
 1606 540 1606 540 1696 442 c 128,-1,89
 1786 344 1786 344 1786 214 c 0,0,1
1412 1142 m 0,90,91
 1412 1208 1412 1208 1372 1264 c 0,92,93
 1338 1312 1338 1312 1282 1312 c 0,94,95
 1232 1312 1232 1312 1188 1268 c 1,96,97
 1152 1208 1152 1208 1152 1140 c 0,98,99
 1152 1080 1152 1080 1188 1028 c 128,-1,100
 1224 976 1224 976 1282 976 c 256,101,102
 1340 976 1340 976 1378 1032 c 0,103,104
 1412 1080 1412 1080 1412 1142 c 0,90,91
918 302 m 0,105,106
 918 384 918 384 872 462 c 0,107,108
 832 530 832 530 768 530 c 0,109,110
 708 530 708 530 663 462 c 128,-1,111
 618 394 618 394 618 302 c 0,112,113
 618 222 618 222 652 156 c 0,114,115
 696 74 696 74 768 74 c 0,116,117
 826 74 826 74 872 138 c 1,118,119
 918 216 918 216 918 302 c 0,105,106
EndSplineSet
Ligature2: "'abvs' Above Base Substitutions lookup 6 subtable" tm_nya tm_iikaar
EndChar

